<svg width="426" height="182" viewBox="0 0 426 182" fill="none" xmlns="http://www.w3.org/2000/svg">
<g opacity="0.3">
<path d="M75.0916 143.213H0V113.626L71.1001 2.98361H105.028V116.361H130.724V143.213H105.028V179.016H75.0916V143.213ZM75.0916 45.2514H74.5927L30.4358 116.361H75.0916V45.2514Z" fill="#EACDCC"/>
<path d="M149.135 91C149.135 77.0765 150.216 65.225 152.378 55.4454C154.706 45.5 157.7 37.2122 161.359 30.582C165.018 23.786 169.093 18.3989 173.583 14.4208C178.24 10.2769 182.897 7.21038 187.554 5.2213C192.377 3.06648 196.951 1.65756 201.275 0.994538C205.765 0.331513 209.674 0 213 0C216.326 0 220.152 0.331513 224.476 0.994538C228.966 1.65756 233.54 3.06648 238.197 5.2213C243.02 7.21038 247.677 10.2769 252.167 14.4208C256.824 18.3989 260.982 23.786 264.641 30.582C268.3 37.2122 271.211 45.5 273.373 55.4454C275.701 65.225 276.865 77.0765 276.865 91C276.865 104.924 275.701 116.858 273.373 126.803C271.211 136.583 268.3 144.871 264.641 151.667C260.982 158.297 256.824 163.684 252.167 167.828C247.677 171.806 243.02 174.872 238.197 177.027C233.54 179.016 228.966 180.342 224.476 181.005C220.152 181.668 216.326 182 213 182C209.674 182 205.765 181.668 201.275 181.005C196.951 180.342 192.377 179.016 187.554 177.027C182.897 174.872 178.24 171.806 173.583 167.828C169.093 163.684 165.018 158.297 161.359 151.667C157.7 144.871 154.706 136.583 152.378 126.803C150.216 116.858 149.135 104.924 149.135 91ZM179.072 91C179.072 96.47 179.404 102.852 180.069 110.145C180.901 117.272 182.481 124.068 184.809 130.533C187.138 136.997 190.547 142.467 195.038 146.943C199.528 151.418 205.516 153.656 213 153.656C220.484 153.656 226.472 151.418 230.962 146.943C235.453 142.467 238.862 136.997 241.191 130.533C243.519 124.068 245.016 117.272 245.681 110.145C246.513 102.852 246.928 96.47 246.928 91C246.928 85.5301 246.513 79.2313 245.681 72.1038C245.016 64.8106 243.519 57.9317 241.191 51.4672C238.862 45.0027 235.453 39.5328 230.962 35.0574C226.472 30.582 220.484 28.3443 213 28.3443C205.516 28.3443 199.528 30.582 195.038 35.0574C190.547 39.5328 187.138 45.0027 184.809 51.4672C182.481 57.9317 180.901 64.8106 180.069 72.1038C179.404 79.2313 179.072 85.5301 179.072 91Z" fill="#EACDCC"/>
<path d="M370.367 143.213H295.276V113.626L366.376 2.98361H400.304V116.361H426V143.213H400.304V179.016H370.367V143.213ZM370.367 45.2514H369.868L325.712 116.361H370.367V45.2514Z" fill="#EACDCC"/>
</g>
</svg>
