<svg width="236" height="202" viewBox="0 0 236 202" fill="none" xmlns="http://www.w3.org/2000/svg">
<path fill-rule="evenodd" clip-rule="evenodd" d="M126.214 45.5304C125.773 43.675 125.331 41.9259 123.123 42.8104C121.42 43.493 120.6 44.6039 120.436 46.4517C120.312 47.8434 120.556 50.7043 122.57 49.9927C123.91 49.519 126.253 47.134 126.214 45.5304ZM117.329 52.8971C117.598 51.0299 116.147 46.6842 113.9 48.6923C113.109 49.3992 112.444 49.9853 111.623 50.6102C110.655 51.347 110.833 51.7969 110.766 53.1008C110.664 55.1152 110.815 58.1918 113.469 58.1609C115.94 58.1318 117.575 55.1514 117.329 52.8971ZM111.217 44.7037C110.673 42.0977 109.628 38.4927 107.366 36.9409C104.394 34.9018 103.339 40.9786 103.347 42.763C103.36 45.3317 103.432 49.0818 106.309 50.3046C109.05 51.4693 110.825 46.5381 111.217 44.7037ZM131.39 45.46C128.574 46.6176 126.682 49.3181 126.029 52.3432C125.727 53.7417 126.014 55.8764 125.129 57.0039C124.069 58.3533 122.422 57.1853 121.201 58.0309C118.416 59.9604 121.399 63.4432 123.474 64.0167C125.129 64.4739 126.813 64.754 128.477 65.0879C130.04 65.4012 130.803 66.8312 131.741 68.127C130.445 67.9036 129.174 67.5656 127.871 67.3523C127.311 67.2605 126.497 66.9719 125.913 67.0091C125.209 67.0544 124.76 67.5623 124.09 67.6826C122.94 67.8896 122.148 67.1248 121.695 68.622C121.361 69.7253 121.892 71.0441 122.846 71.5884C122.003 72.4426 120.058 72.6723 118.956 73.0267C117.358 73.5398 115.733 73.8731 114.252 74.7393C114.252 72.0432 114.284 69.9087 113.012 67.4422C112.395 66.2449 111.217 62.8819 109.955 62.3813C109.576 62.2309 109.04 62.3139 108.644 62.1917C108.233 62.0647 108.006 61.6944 107.545 61.6818C106.707 61.6585 105.803 62.6719 105.305 63.3341C104.047 65.009 104.096 67.6884 104.174 69.7061C104.254 71.7915 104.458 74.4096 105.281 76.3388C105.472 76.7869 105.668 77.2907 106.085 77.5602C106.388 77.7556 106.953 77.6013 107.187 77.8236C108.033 78.6317 106.858 79.0944 106.204 79.5892C104.535 80.8531 103.093 82.0778 101.872 83.7743C100.841 85.2065 99.2326 86.9449 98.9689 88.7806C97.834 87.1897 97.0361 85.3948 96.1657 83.6443C95.6714 82.6501 95.6608 82.8516 96.1866 82.0986C96.5964 81.5118 97.3167 80.9011 97.9018 80.491C99.0984 79.6522 100.335 78.7493 100.687 77.1531C100.952 75.9462 100.317 73.7161 99.9534 72.4949C99.4883 70.9344 98.2727 69.7371 96.7137 70.6485C95.5589 71.3239 95.0033 73.7386 93.8837 74.0765C92.6204 74.4578 92.7941 71.2866 92.6776 70.4067C92.4608 68.7651 91.6227 66.0043 92.1466 64.3919C92.5545 63.1365 94.5215 62.4674 95.5433 61.7037C97.061 60.5695 98.5572 59.1249 99.6244 57.5216C100.718 55.8773 100.622 54.2027 100.426 52.2861C100.312 51.1683 100.134 48.126 98.3322 48.7712C97.2953 49.1427 92.6609 55.6752 91.8405 53.3568C91.6094 52.7031 92.109 51.0554 92.1969 50.3016C92.2609 49.752 92.2506 47.1329 92.6088 46.7678C92.7464 46.6274 94.3714 46.4007 94.7266 46.1743C95.5785 45.6308 96.2181 44.9183 96.7306 44.0324C98.4281 41.0975 96.4982 36.51 93.3082 35.7735C91.2288 35.2932 90.1044 36.0484 88.9404 37.7827C87.814 39.4614 85.6033 38.7358 83.7229 39.1404C83.3689 38.1437 84.6137 36.183 84.9428 35.2225C85.4275 33.8078 85.9625 32.3389 86.1557 30.8464C86.5322 27.9337 85.8833 24.7918 84.9907 22.0469C86.0615 22.2168 87.5834 22.1494 88.3202 22.9786C89.0588 23.8091 89.3868 25.5144 90.0105 26.5127C91.2139 28.4386 92.5971 30.5402 94.2535 32.0719C96.4164 34.0718 97.2717 33.1379 98.9295 31.2808C100.61 29.3985 99.7292 26.7418 99.132 24.4177C100.492 24.2066 102.063 24.6027 103.399 24.8255C104.611 25.0273 106.883 25.0728 107.911 25.8304C108.68 26.397 108.406 27.0146 108.481 28.1286C108.582 29.6351 108.811 31.1583 109.254 32.6012C110.154 35.5372 112.188 36.5448 114.634 34.6559C115.483 35.8363 116.406 37.3973 117.718 38.0667C119.005 38.7243 121.399 39.2654 122.84 39.3736C124.654 39.5096 126.103 38.6741 127.603 37.7251C128.337 37.2608 128.544 36.8798 129.185 37.2444C129.658 37.5141 130.284 38.7884 130.765 39.2286C131.303 39.7215 131.896 40.1751 132.474 40.6178C132.743 40.8473 133.022 41.0622 133.312 41.2625C133.95 41.4204 134.165 41.8124 133.956 42.4385C134.359 43.6446 134.437 44.9222 134.778 46.1409C135.18 47.5808 136.137 48.3653 137.422 48.8965C137.868 49.0278 138.306 49.1835 138.736 49.3636C139.502 49.3792 139.676 49.6999 139.257 50.3257C139.257 51.1667 138.432 52.4457 137.991 53.1077C137.557 51.8607 135.882 50.4721 134.583 51.0008C133.072 51.6154 133.013 53.4136 133.12 54.8197C132.176 54.3598 131.365 53.6956 130.558 53.023C130.166 52.6959 129.517 52.3168 129.228 51.8802C128.728 51.1236 128.772 51.5159 129.124 50.4899C129.512 49.3554 132.389 46.5638 131.39 45.46Z" fill="#F4E2E1"/>
<path fill-rule="evenodd" clip-rule="evenodd" d="M199.904 175.681C198.79 176.62 197.64 177.545 196.486 178.431C193.846 180.457 191.387 182.674 188.886 184.88C186.623 186.876 184.2 188.663 181.844 190.536C179.605 192.316 177.612 194.415 175.517 196.377C176.882 197.202 178.366 198.419 180.014 198.027C181.353 197.708 182.933 196.503 184.087 195.72C186.774 193.898 189.022 191.386 191.266 189.036C193.467 186.733 195.57 184.483 197.648 182.094C199.984 179.407 201.636 176.846 203.2 173.627C202.009 172.808 200.702 175.007 199.904 175.681ZM179.933 182.168C178.364 182.695 176.737 182.926 175.172 183.424C173.81 183.857 172.644 185.225 171.786 186.361C171.223 187.107 170.853 187.984 170.349 188.788C170.064 189.243 168.975 190.312 168.989 190.757C169.006 191.33 170.608 192.769 170.984 193.21C171.683 194.026 172.401 194.824 173.131 195.609C174.205 193.272 176.773 191.31 178.689 189.707C180.678 188.043 182.764 186.397 184.823 184.749C189.37 181.111 193.651 177.521 198.562 174.373C198.266 173.639 181.759 181.555 179.933 182.168ZM172.334 180.797C170.835 182.723 168.559 184.898 168.072 187.424C169.016 186.296 169.851 185.056 170.765 183.899C171.163 183.397 171.577 182.949 172.023 182.492C172.841 181.655 173.101 181.73 172.334 180.797ZM133.724 74.0953C130.728 74.3276 127.7 74.8738 124.748 75.5454L124.612 75.5453C124.828 75.5453 125.041 75.5459 125.255 75.5464C125.085 75.5464 124.915 75.5463 124.746 75.5458C124.034 75.7079 123.325 75.8774 122.622 76.0516C115.701 77.7678 108.823 81.1852 103.825 86.5046L103.657 86.6847C103.424 87.0676 102.882 87.603 102.99 88.1183C102.651 87.898 102.545 87.708 102.578 87.5365C102.531 87.6076 102.489 87.6847 102.453 87.7688C103.869 88.6903 104.774 90.8067 105.709 92.2354C106.764 93.8461 107.945 95.3602 108.955 97.0052C111.15 100.581 113.255 104.274 115.227 107.987C118.641 114.413 122.844 120.513 126.599 126.732C130.347 132.941 133.924 139.06 137.671 145.261C141.66 151.861 146.235 158.08 150.356 164.515C152.813 168.352 155.619 171.951 158.136 175.751C160.518 179.348 162.866 182.945 165.292 186.509C166.572 182.788 169.067 179.593 172.514 177.71C167.82 170.811 163.327 163.82 159.194 156.537C155.634 150.264 152.494 143.97 149.188 137.62C145.931 131.363 142.717 125.101 139.426 118.85C137.782 115.728 136.397 112.448 134.987 109.186C133.486 105.716 132.856 101.851 131.231 98.4453C130.472 96.8533 129.443 95.0157 129.544 93.1712C129.639 91.4317 130.806 89.6563 131.704 88.2545C132.237 87.4225 133.258 85.1096 134.355 85.0984C136.334 85.0781 133.989 89.2626 133.679 90.0861C132.253 93.8792 134.238 97.1589 135.731 100.557C137.189 103.875 138.348 107.357 139.9 110.636C140.551 112.013 141.212 113.356 141.805 114.753C142.01 115.235 142.572 116.819 143.093 116.976C143.391 117.066 144.868 116.076 145.096 115.926C146.252 115.162 147.827 113.835 148.521 112.599C149.208 111.375 148.929 109.287 148.614 107.978C147.7 104.177 145.775 100.562 144.261 96.9961C142.672 93.2531 141.005 89.4622 139.636 85.6266C138.896 83.5543 138.23 81.4634 137.421 79.4166C136.962 78.253 136.481 77.0987 135.97 75.9584C135.32 74.5092 135.271 73.9753 133.724 74.0953ZM80.6377 119.333C79.1954 120.055 78.8131 120.437 78.519 122.057C78.2135 123.74 78.3488 125.402 78.181 127.094L78.1806 127.097L78.1796 127.109L78.179 127.113L78.1144 127.752C77.8668 130.163 77.584 132.571 77.4416 134.954C77.238 138.353 78.4409 141.526 79.8673 144.491C80.495 145.796 81.1348 147.065 82.087 148.158C82.6718 148.829 83.3495 149.399 84.0209 149.972C84.8704 150.696 84.9999 151.144 85.5542 150.162C86.2354 148.955 85.6921 146.995 85.4989 145.693C85.1944 143.64 85.0364 141.68 85.0613 139.595C85.1377 138.654 85.1919 137.712 85.2431 136.77L85.2432 136.768C85.3682 134.466 85.4746 132.163 85.8401 129.879C85.9717 129.058 86.1305 128.24 86.3275 127.433C86.507 126.696 87.2366 125.36 87.1781 124.638C87.119 123.909 86.0233 122.549 85.8165 121.337C85.6982 120.643 85.6969 119.906 85.6596 119.204C85.605 118.187 85.8401 117.941 84.9898 117.657C83.9735 117.319 81.5097 118.896 80.6377 119.333ZM65.7446 111.368C65.3584 112.582 63.7877 113.791 62.9761 114.696C60.76 117.167 59.044 119.678 57.3048 122.507C54.514 127.044 51.9705 132.332 50.8057 137.643C47.8343 138.493 48.8684 132.163 49.2763 130.938C50.2775 127.932 51.4447 124.977 52.9637 122.212C54.357 119.677 56.2596 116.93 58.2057 114.817C59.0099 113.944 59.9576 112.879 60.8344 112.066C61.6074 111.349 63.3433 109.605 64.3116 109.44C65.4423 109.248 66.1369 110.135 65.7446 111.368ZM78.1796 127.109L78.1759 127.16L78.1777 127.135L78.179 127.113L78.1796 127.109ZM171.888 92.8203C173.622 96.1502 174.468 100.263 175.092 103.967C175.658 107.322 176.107 110.988 176.021 114.395C176.106 114.98 176.139 115.568 176.147 116.157L176.135 116.691C176.144 116.257 176.154 115.823 176.165 115.39C176.335 115.82 176.356 116.246 176.148 116.665C176.139 117.524 176.088 118.385 176.071 119.244C176.045 120.486 176.3 123.024 175.481 124.092C174.234 125.722 173.861 122.8 173.783 122.002C173.59 120.003 173.562 117.98 173.409 115.977C172.873 108.956 171.997 101.197 169.389 94.6566C169.142 94.036 168.752 92.7066 168.277 92.2669C167.94 91.9558 167.682 92.2971 167.294 91.7532C166.889 91.1864 166.316 87.8855 167.014 87.2458C168.477 85.9043 171.288 91.6677 171.888 92.8203ZM53.1471 109.177C55.2225 110.675 47.6047 114.33 46.5834 115.002C44.7575 116.202 42.9378 117.366 41.1532 118.635C39.2787 119.967 37.5047 121.564 35.5775 122.78C33.1621 119.835 39.9633 115.548 41.9366 114.449C43.9411 113.333 45.849 112.063 47.9316 111.117C48.9273 110.665 52.0948 108.417 53.1471 109.177ZM112.214 110.26C111.806 110.326 111.016 110.837 110.62 110.981C106.726 112.4 102.233 113.072 98.6445 115.086C96.2212 115.111 93.665 116.609 91.3415 117.301C90.4186 117.575 88.5705 117.848 87.7949 118.394C86.9258 119.007 87.3406 121.536 87.3406 122.653C88.8525 121.186 90.6259 121.487 92.6264 121.398C95.4403 121.275 98.2358 120.987 101.035 120.82C104.003 120.644 106.903 120.167 109.886 120.179C112.823 120.191 115.697 119.556 118.589 120.141C118.084 118.09 116.27 115.894 115.167 114.14C114.488 113.06 113.988 111.684 113.216 110.683C112.629 109.922 113.043 110.126 112.214 110.26ZM92.4596 121.395L91.4592 121.412C91.7885 121.135 92.1231 121.2 92.4596 121.395ZM181.096 96.5138C182.525 100.734 183.846 104.852 183.934 109.376C183.964 110.944 184.006 113.417 183.365 114.861C182.298 117.264 181.338 115.138 181.381 113.488C181.03 109.341 180.552 105.167 179.687 101.096C179.285 99.2023 178.397 96.8096 178.717 94.8469C179.19 91.9611 180.778 95.5752 181.096 96.5138ZM181.363 114.145L181.361 114.235L181.359 114.282L181.361 114.195L181.363 114.145ZM190.316 104.43C190.781 105.694 191.578 108.704 190.81 109.947C189.784 111.605 189.017 109.747 188.717 108.556C188.245 106.681 188.28 104.733 187.597 102.92C188.639 100.623 189.728 102.831 190.316 104.43ZM44.2308 102.667C44.2308 103.992 42.2774 104.399 41.2217 104.947C40.4442 105.352 39.5327 106.532 39.0355 105.591C38.2003 104.009 43.2037 102.667 44.2308 102.667ZM84.9911 22.047C85.883 24.79 86.5324 27.9366 86.1562 30.8465C85.9627 32.342 85.4271 33.8055 84.9432 35.2227C84.6446 36.0976 83.3861 38.1907 83.7233 39.1405C85.1126 38.8418 87.3962 39.3404 88.521 38.5394C89.7999 37.6288 89.6837 35.7268 91.6999 35.5996C94.7938 35.4044 97.286 38.2486 97.502 41.4346C97.6137 43.0836 96.4412 44.8269 95.2499 45.8009C94.6077 46.326 93.998 46.4924 93.2922 46.8216C92.8236 47.0402 92.6859 47.0306 92.655 47.0194L92.6539 47.0186L92.6557 47.021C92.6755 47.0488 92.7098 47.1773 92.5049 47.6623C92.2505 48.2651 92.3233 49.2204 92.2482 49.8645C92.138 50.8088 91.7722 51.9881 91.8924 52.9184C92.0215 53.9205 91.9795 54.0269 93.0281 53.6697C94.2331 53.2594 95.7788 51.5336 96.684 50.6044C97.5716 49.6929 98.4505 47.7385 99.726 49.3026C100.704 50.5021 100.702 53.5127 100.552 55C100.205 58.4562 96.4033 61.2733 93.7431 62.9149C91.8675 64.0722 92.1364 64.8304 92.2545 67.0148C92.3501 68.7869 92.619 70.573 92.8464 72.3309C93.1215 74.4549 93.7801 74.4876 94.7869 72.9123C95.5573 71.7067 96.8184 69.7315 98.4738 70.4231C100.117 71.1094 99.9756 73.3163 100.343 74.7592C100.858 76.7786 100.693 78.2982 99.034 79.7741C98.2808 80.4443 95.8535 81.5349 95.647 82.6215C95.5467 83.1497 96.7239 84.8023 97.0048 85.367C97.5914 86.5468 98.2062 87.7109 98.9694 88.7808C99.2275 86.9837 100.746 85.4605 101.696 84.0277C102.843 82.2975 104.246 81.0799 105.891 79.825C106.494 79.3659 108.014 78.7489 107.302 77.9515C106.684 77.2588 106.041 77.7706 105.428 76.6602C104.402 74.7995 104.255 71.8027 104.174 69.7063C104.103 67.8338 104.037 65.207 105.111 63.5832C106.419 61.6063 107.73 61.5309 109.69 62.3733C111.22 63.0309 112.023 65.5878 112.841 67.1137C114.225 69.6937 114.252 71.8852 114.252 74.7395C115.734 73.8733 117.359 73.54 118.956 73.0268C120.059 72.6724 122.003 72.4427 122.846 71.5886C121.942 71.0724 121.459 69.9508 121.647 68.8922C121.955 67.1573 122.815 67.9122 124.091 67.6828C124.663 67.58 125.076 67.1329 125.652 67.0474C126.241 66.9602 126.874 67.2031 127.459 67.2968C128.902 67.5279 130.308 67.8801 131.741 68.1271C130.943 67.0249 130.138 65.5247 128.853 65.1092C127.306 64.6081 125.444 64.5272 123.828 64.1089C121.743 63.5698 118.149 60.1459 121.202 58.0314C122.356 57.2321 123.872 58.2454 124.964 57.174C126 56.1581 125.694 54.0466 125.972 52.6786C126.612 49.5257 128.431 46.6766 131.391 45.4601C132.406 46.5818 129.516 49.3487 129.124 50.4901C128.891 51.1701 128.712 51.095 128.953 51.6594C129.12 52.0519 129.939 52.4957 130.294 52.7959L130.59 53.0469C131.383 53.7152 132.189 54.366 133.121 54.8199C133.013 53.4115 133.065 51.6183 134.583 51.001C135.887 50.4703 137.559 51.8639 137.991 53.1078C138.433 52.4458 139.257 51.1671 139.258 50.3259C139.676 49.7001 139.502 49.3794 138.736 49.3637C138.412 49.2245 138.083 49.1039 137.747 49.0016C136.321 48.4219 135.238 47.7731 134.778 46.141C134.435 44.9221 134.359 43.6431 133.956 42.4386C134.165 41.8126 133.951 41.4206 133.313 41.2627C133.114 41.1144 132.915 40.9664 132.716 40.8181C132.057 40.3165 131.378 39.7896 130.765 39.2288C130.283 38.7869 129.833 37.8708 129.346 37.5312C129.237 37.2952 129.089 37.0877 128.902 36.9093C128.471 37.1839 128.038 37.4558 127.604 37.7253C126.099 38.677 124.665 39.5221 122.841 39.3738C121.416 39.2578 119.306 38.7532 117.978 38.2044C116.527 37.605 115.529 35.8995 114.634 34.6561C112.189 36.545 110.159 35.5321 109.254 32.6014C108.85 31.2939 108.624 29.908 108.509 28.5426C108.416 27.4267 108.737 26.4385 107.911 25.8306C106.88 25.0713 104.617 25.028 103.4 24.8257C102.065 24.6036 100.491 24.207 99.1324 24.4178C99.7281 26.7357 100.616 29.4063 98.9297 31.281C97.264 33.1334 96.4256 34.0796 94.254 32.0721C92.5931 30.5362 91.2242 28.4384 90.0109 26.5128C89.3748 25.503 89.0918 24.1865 88.4485 23.2295C87.708 22.1282 86.2364 22.2447 84.9911 22.047ZM10.6998 75.4107L10.6993 75.4165L10.6997 75.4833L10.7001 75.551L10.6998 75.4107ZM82.8921 22.517C82.3412 22.5059 81.035 22.7597 80.4889 22.8726C79.0037 23.1802 77.5279 23.4302 75.9721 23.6873C72.484 24.2632 69.0131 25.0093 65.5412 25.6543C62.3557 26.2461 58.8213 27.0542 55.7931 28.3096C52.4834 29.6815 49.2707 31.0156 46.1193 32.7557C42.9592 34.5004 42.8772 34.1427 39.8564 36.0678C34.1936 39.6761 28.4624 43.387 22.9084 47.2186C19.3761 49.6551 15.6075 51.7647 12.1819 54.3383C10.4169 55.6642 8.69881 57.0498 7.01751 58.4869C5.78017 59.5442 3.53447 61.0011 3.20541 62.7674C4.86368 62.7674 7.10726 59.7668 8.45923 58.8277C9.44376 58.1438 10.5458 57.5911 11.569 56.9684C12.1562 56.6109 14.0326 54.7494 14.6711 54.7399C15.5921 54.7259 15.7268 56.0885 15.4973 56.7044C15.1998 57.5026 14.3227 58.158 13.7401 58.7298C11.8406 60.594 10.2652 63.0473 9.00219 65.4173C11.3255 64.5324 13.2522 61.6285 14.9041 59.7679C15.7771 58.7844 20.2384 54.5433 19.9212 58.561C19.8039 60.0475 18.7681 61.1836 18.0459 62.413C17.2649 63.7427 16.4607 65.0916 15.7737 66.4748C14.3783 69.2833 13.3239 72.1724 12.4908 75.2167C13.9357 74.6274 14.3135 72.9791 14.9877 71.6892C15.6742 70.3759 16.4771 69.1068 17.248 67.8459C18.8837 65.17 20.3048 62.3557 22.0417 59.7443C22.7276 58.7123 25.7924 53.2597 27.0239 54.0285C27.8533 54.5461 28.0987 56.9815 28.3476 57.8365C28.7415 59.1889 29.3482 60.6061 30.6605 61.2187C30.7206 58.4562 30.629 55.6973 30.6716 52.942C30.7055 50.7735 31.8385 50.1545 33.2681 48.6409C36.5828 45.1309 38.1896 45.4982 42.1238 42.8509C43.8747 41.6728 45.4956 40.1397 47.4295 39.1586C49.6042 38.0556 51.717 36.7829 53.8407 35.5472C58.302 32.9517 63.3078 31.9698 68.3831 32.4472L68.5977 32.4683L68.607 32.4692C73.4897 31.7607 78.9646 32.7403 83.4591 34.7046C84.4437 31.1902 84.8106 27.4917 84.0331 23.8847C83.8051 22.8266 83.844 22.5374 82.8921 22.517ZM127.152 75.1667C126.945 75.1782 126.738 75.1895 126.528 75.201C126.734 75.1895 126.943 75.1782 127.152 75.1667ZM225.006 16.8121C223.586 18.1431 221.729 19.2473 220.161 20.3569C218.721 21.3757 217.381 22.5352 215.959 23.5535C212.264 26.1992 208.889 29.3279 205.309 32.1677C198.585 37.5014 191.578 42.3144 183.885 46.033C180.258 47.7862 176.526 49.3125 172.799 50.8143C169.167 52.2778 165.744 54.2807 161.73 54.2955C159.672 54.3029 157.5 54.3605 155.456 54.0392C153.251 53.6925 150.952 52.3258 148.943 51.3645C147.998 50.9125 147.034 50.4816 146.126 49.9558C145.29 49.4726 144.164 48.236 143.281 48.0762C141.286 47.7152 141.082 51.9563 140.567 53.4373C140.391 53.9408 139.798 54.8185 139.791 55.313C139.778 56.242 139.641 55.7675 140.442 56.3683C141.311 57.0205 142.515 57.5509 143.481 58.0643C145.307 59.0352 147.256 59.9011 149.137 60.7081C151.153 61.5726 153.101 62.143 155.283 62.3878C156.13 62.4829 156.935 62.5153 157.737 62.5259L158.004 62.5286L158.014 62.5243C158.394 62.3561 158.775 62.2451 159.163 62.5254L158.863 62.5307C159.516 62.53 160.178 62.5276 160.873 62.5449C160.526 62.5361 160.18 62.5276 159.833 62.5188C160.184 62.3464 160.531 62.3102 160.873 62.5449C165.971 61.9635 170.448 58.9283 175.236 57.3105C180.116 55.6614 185.183 53.2915 189.818 50.8053C194.219 48.4449 198.629 46.038 203.15 43.8747C205.744 42.6335 208.502 40.0629 211.469 41.0344C212.837 41.4823 214.059 42.3567 215.477 42.6604C217.109 43.0096 218.691 43.0693 220.306 43.571C220.205 42.7939 218.077 41.6273 217.584 40.8208C217.255 40.2827 217.209 39.6715 216.936 39.1405C216.687 38.6551 216.301 38.614 216.204 38.0416C215.829 35.8375 219.331 33.5276 220.656 32.2985C224.879 28.3781 229.844 25.2478 234.052 21.2195C231.517 21.2195 228.455 24.5735 226.558 26.1049C225.282 27.1351 224.017 28.1668 222.673 29.0993C222.304 29.3548 220.595 30.7103 220.125 30.5584C218.809 30.133 220.063 27.7545 220.54 27.2222C221.473 26.1798 222.73 25.3418 223.802 24.4611C226.057 22.607 228.118 20.6299 230.03 18.3542C228.143 18.4713 225.543 21.7014 224.208 22.9837C222.75 24.3849 220.82 26.2859 218.924 27.021C217.945 27.4007 217.459 27.2968 217.386 26.0671C217.302 24.6651 218.356 23.9266 219.268 23.096C221.084 21.4399 223.997 19.1247 225.006 16.8121ZM117.33 52.8973C117.582 55.2072 115.937 58.0656 113.469 58.161C110.826 58.2627 110.672 55.051 110.767 53.101C110.817 52.0539 110.694 51.4366 111.391 50.7129C111.681 50.413 112.383 50.2845 112.726 49.9953C113.169 49.6228 113.466 49.0803 113.901 48.6924C116.141 46.6934 117.596 51.0446 117.33 52.8973ZM107.366 36.9409C108.22 37.4905 109.151 38.9002 109.56 39.81C110.285 41.4242 110.855 42.9683 111.217 44.7039C110.819 46.5695 109.08 51.4649 106.309 50.3046C103.433 49.1004 103.361 45.319 103.348 42.7632C103.339 40.902 104.33 34.9857 107.366 36.9409ZM126.214 45.5306C126.256 47.2281 124.139 49.0792 122.839 49.7971C120.723 50.9659 120.295 48.0365 120.437 46.4519C120.594 44.6808 121.281 43.7006 122.856 42.9474C125.195 41.8287 125.726 43.4764 126.214 45.5306ZM92.6517 47.018L92.6539 47.0186C92.6481 47.0122 92.6442 47.0144 92.6517 47.018ZM121.547 18.4428C120.762 18.7004 119.58 20.2615 118.98 20.8853C118.609 21.271 117.973 22.4541 117.444 22.5223C116.656 22.624 116.728 22.2392 116.193 21.5758C114.178 19.0757 112.046 19.0847 110.889 22.1188C111.564 22.465 112.278 22.5284 113.016 22.5018C113.266 22.493 114.229 22.195 114.414 22.322C115.462 23.0409 113.927 23.6624 113.716 24.0308C113.556 24.3103 113.478 24.5589 113.416 24.7817L113.421 24.9045L113.421 24.8991V24.8974L113.42 24.8851L113.42 24.881L113.42 24.8747L113.419 24.8673L113.419 24.8563L113.418 24.8456L113.418 24.8412L113.418 24.8335L113.416 24.8053L113.416 24.7982L113.415 24.7834L113.403 24.8295C113.259 25.3478 113.176 25.7233 112.271 26.0224C111.359 26.3242 110.593 26.0603 109.686 25.7648C109.801 27.6143 109.796 30.9101 111.047 32.4288L111.116 32.5097C111.469 32.6769 111.822 32.8438 112.175 33.011C112.127 33.015 112.079 33.0175 112.032 33.0182C112.639 33.0303 113.361 32.7495 113.792 32.6545C113.605 31.736 112.592 28.6202 113.05 27.9544C113.917 26.6954 114.297 28.5717 114.513 29.4203C115.021 31.418 116.129 34.0422 117.872 35.2974C117.855 35.2694 117.839 35.2388 117.824 35.2057C118.239 35.2819 118.684 35.3008 118.891 35.7882C118.767 35.7346 118.63 35.705 118.496 35.6717C120.151 36.4737 123.252 37.8075 124.91 36.9112C127.203 35.6711 129.053 33.6172 130.989 31.8958C129.655 31.2133 129.473 30.1547 130.509 29.0456C132.708 31.486 134.053 26.2497 134.76 24.6522C133.407 24.5285 132.194 25.3714 130.81 25.0844C129.683 24.8506 128.323 24.4397 127.357 23.7832C126.066 22.9058 124.935 21.6391 123.826 20.5422C123.162 19.8854 122.26 18.2084 121.547 18.4428ZM80.936 35.9197C80.9987 36.1864 81.0602 36.4469 81.121 36.7078C81.4903 35.9852 81.4903 35.9852 80.936 35.9197ZM123.5 35.4833C122.952 35.4208 120.778 35.0184 122.177 34.3696C122.891 34.0382 123.567 34.8038 123.5 35.4833ZM130.035 27.3721C130.339 28.113 129.126 29.4405 128.786 30.0773C128.252 31.0753 127.323 35.2484 125.818 34.8257C124.163 34.8213 124.437 33.1892 125.346 32.3946C125.664 32.1175 126.011 32.1043 126.325 31.751C126.599 31.444 126.768 30.8286 126.95 30.4528C127.396 29.5326 127.798 28.4661 128.504 27.7243C129.071 27.1284 129.669 26.4807 130.035 27.3721ZM68.0253 32.4097L68.2106 32.4287L68.5424 32.4626L68.2389 32.4317L68.0253 32.4097ZM67.6624 32.3724L67.871 32.3939L67.9668 32.4036L67.7954 32.3862L67.6624 32.3724ZM122.036 26.3767C122.839 26.4738 122.315 26.871 122.727 27.2248C123.003 27.4615 123.046 27.5785 123.023 27.6322L123.019 27.6382L123.04 27.637C123.149 27.6305 123.349 27.6345 123.698 27.6683C124.462 27.7423 126.813 27.0327 125.319 28.5978C124.994 28.9386 123.038 29.8905 122.603 29.6732C121.631 29.1888 122.044 27.2166 122.036 26.3767ZM123.019 27.6382C122.824 27.6542 122.978 27.7062 123.019 27.6397L123.019 27.6382ZM58.8936 27.4154C58.685 27.4214 58.4761 27.4274 58.2649 27.4332C58.4727 27.4269 58.6831 27.4211 58.8936 27.4154ZM113.422 24.9235L113.423 24.9522L113.423 24.95L113.422 24.9267V24.9235ZM113.416 24.8026V24.8053L113.417 24.8124L113.416 24.8026ZM113.416 24.7889L113.416 24.7982L113.416 24.8001L113.416 24.7889ZM91.7713 20.0646L91.8666 20.0777L91.9524 20.0893L91.7713 20.0646ZM142.813 15.5393L142.814 15.5492L142.814 15.5631L142.814 15.562L142.813 15.5393ZM142.813 15.5344V15.5393V15.5371V15.5344ZM89.5468 19.9388L89.5226 19.9497C89.9797 19.737 90.4361 19.772 90.8923 19.9527C90.6066 19.952 90.321 19.9514 90.0354 19.9508C91.0219 20.0117 92.0057 20.1066 92.9857 20.2675C97.2349 20.9654 102.193 21.3321 106.248 23.087C106.23 23.0661 106.212 23.0442 106.194 23.0217C106.555 22.9422 106.829 23.0885 107.048 23.3774C107.009 23.3892 106.972 23.3977 106.936 23.4032C107.397 23.6267 107.844 23.871 108.274 24.1382C108.929 22.6816 107.706 23.1207 106.568 22.5769C105.312 21.9763 104.322 21.2258 103.383 20.2028C102.58 19.3284 101.893 18.2372 102.173 16.9343C102.318 16.2606 103.043 15.9928 103.172 15.4991C103.216 15.3311 102.771 14.771 102.753 14.5298C102.709 13.9526 102.707 13.5101 102.836 12.9419C103.488 10.0602 103.207 6.36162 106.364 5.12539C107.048 4.85813 107.033 5.15554 107.541 4.59882C108.032 4.06047 108.215 3.1666 108.777 2.58576C109.851 1.47506 111.194 0.609423 112.682 0.267882C114.241 -0.0903796 115.562 0.465242 117.062 0.410694C118.688 0.351486 119.902 -0.296236 121.602 0.164269C122.906 0.517048 123.009 1.06774 123.998 1.67489C125.004 2.29328 126.927 1.78892 128.21 2.19625C128.883 2.41005 129.298 2.79682 129.873 3.17071C130.221 3.3974 130.178 3.51801 130.544 3.67534C130.735 3.75703 131.164 3.65862 131.389 3.70933C132.948 4.06266 133.088 5.96416 134.082 6.33695C134.846 6.62422 135.206 6.06778 136.046 6.67959C136.52 7.02524 136.988 7.67077 137.239 8.20748C137.362 8.4709 137.482 9.3571 137.589 9.48895C137.927 9.90559 137.79 9.67918 138.118 9.91299C138.794 10.3938 139.588 10.3905 140.33 11.2002C141.336 12.2988 142.534 13.1694 142.773 14.7557C142.814 15.0248 142.822 15.2725 142.812 15.5105L142.801 15.6871C142.765 16.1526 142.671 16.5918 142.63 17.098C142.585 17.6585 142.513 17.6604 142.627 18.0623C142.704 18.3328 143.153 18.6974 143.262 19.0965C144.113 22.226 139.211 25.7511 136.691 23.9907C135.661 26.2447 134.919 28.6166 133.929 30.8827C133.387 32.1244 130.535 35.0292 130.741 35.9121C130.911 36.6395 132.534 37.1288 133.1 37.4794C134.126 38.1154 135.12 38.8826 136.105 39.5851C136.818 40.094 137.506 40.6302 138.198 41.1586L138.614 41.4743L138.668 41.4885C139.104 41.6144 139.433 41.8864 139.688 42.2593C140.259 42.6603 140.844 43.0397 141.459 43.3796C142.406 43.9029 142.658 44.0046 143.063 45.0487C143.479 46.1169 142.961 45.7438 143.865 46.4264C145.622 47.7525 148.299 48.3292 150.289 49.2311C154.703 51.2307 159.028 52.2797 163.882 51.4102C168.24 50.6299 172.312 48.4647 176.39 46.7742C180.428 45.1008 184.45 43.2697 188.278 41.1443C191.898 39.1337 195.482 37.0069 198.822 34.4889C200.694 33.0778 202.672 31.8207 204.471 30.3125C206.239 28.831 207.886 27.1871 209.681 25.7519C213.198 22.9395 216.907 20.2469 220.62 17.6985C221.678 16.9724 222.717 16.2159 223.751 15.4539C224.374 14.9953 225.621 13.6598 226.445 13.8251C229.014 14.3399 226.441 17.778 226.007 18.784C227.276 18.0817 228.311 17.0442 229.632 16.3971C230.308 16.0659 232.176 14.8947 232.889 15.3881C234.565 16.5462 230.609 20.3643 229.972 21.2505C231.032 20.6241 234.602 18.1445 235.469 20.174C236.377 22.2987 233.077 24.8172 231.875 26.0011C228.329 29.4932 224.234 32.2434 220.627 35.6327C220.129 36.1001 218.499 37.1302 218.622 37.9725C218.736 38.7595 220.235 39.6685 220.772 40.1909C221.827 41.2177 225.176 44.5594 223.044 46.2449C222.291 46.8395 220.146 46.3474 219.246 46.249C217.927 46.1051 216.629 45.9938 215.321 45.7677C213.398 45.4349 211.514 43.8739 209.589 43.8149C207.425 43.7489 205.095 45.731 203.234 46.6873C201.047 47.8104 198.946 49.054 196.77 50.2011C192.615 52.391 188.649 54.8446 184.362 56.8182C179.661 58.982 174.62 60.3821 169.977 62.6814C165.253 65.0212 160.698 65.7646 155.523 65.5993C150.472 65.4381 145.072 61.9733 141.074 59.0061C140.843 58.8331 140.612 58.6602 140.382 58.4872C139.953 57.8099 139.579 57.7923 139.26 58.434C138.611 58.544 138.342 58.6484 137.569 58.5922C136.305 58.5007 135.674 58.2062 134.515 57.7625C131.888 56.7568 129.904 55.9723 128.047 53.6245C126.83 56.902 129.898 60.3602 131.541 62.9253C132.446 64.3389 133.476 65.687 134.256 67.1812C134.89 68.3949 135.118 70.2805 136.331 70.8137C137.055 71.1322 137.503 70.6051 137.991 71.3611C138.31 71.8547 137.961 72.4213 137.898 72.8385C137.739 73.8985 137.245 72.4046 137.599 73.9679C137.711 74.4615 138.382 75.4028 138.605 75.8562C140.126 78.9465 141.366 82.1799 142.667 85.3766C143.962 88.5568 145.245 91.7063 146.513 94.8923C147.06 96.2673 147.828 97.5345 148.35 98.9242C148.986 100.618 149.377 102.388 149.983 104.095C150.924 106.746 151.104 110.252 150.328 112.992C149.568 115.675 146.266 118.434 143.635 118.262C144.853 120.787 146.235 123.058 147.505 125.538C148.694 127.861 149.525 130.343 150.759 132.583C152.164 135.132 153.392 137.854 154.801 140.351C155.991 142.461 156.738 144.863 157.856 147.007C160.405 151.894 162.863 156.975 165.595 161.824C167.185 164.644 168.618 167.547 170.231 170.358C171.093 171.861 171.975 173.351 172.853 174.845C173.36 175.707 173.934 177.601 174.886 178.018C174.612 178.314 173.734 178.993 173.703 179.425C173.619 180.574 174.741 180.257 175.37 180.098C176.966 179.695 178.504 179.274 180.047 178.7C183.002 177.602 185.815 176.047 188.803 175.062C191.906 174.038 194.829 172.252 198.05 171.491C199.515 171.145 204.334 169.017 204.759 170.802C204.839 171.139 204.629 171.951 204.633 172.36C204.638 173.084 204.821 173.73 204.722 174.482C204.531 175.923 203.767 177.362 203.022 178.565C201.24 181.443 199.241 184.266 196.891 186.673C192.863 190.8 189.221 196.335 184.25 199.281C183.263 199.866 182.329 200.902 181.213 201.21C179.975 201.551 178.922 201.122 177.815 201.074C177.206 201.048 177.173 201.399 176.439 201.112C175.836 200.877 175.061 200.117 174.569 199.715C173.327 198.7 172.277 197.415 171.252 196.171C170.346 195.07 169.385 192.969 168.158 192.267C167.477 191.876 167.513 192.503 166.902 191.634C166.564 191.155 166.533 190.664 166.116 190.183C165.67 189.67 165.389 189.598 165.095 188.978C164.889 188.545 164.88 188.124 164.614 187.679C163.729 186.201 162.39 184.932 161.44 183.469C160.022 181.283 158.199 179.393 156.707 177.27C154.92 174.729 152.933 172.198 150.995 169.784C147.261 165.133 143.828 160.003 140.292 155.089C136.467 149.774 132.895 144.099 129.706 138.345C127.996 135.26 125.929 132.275 124.134 129.226C122.379 126.246 120.763 123.123 118.711 120.357C118.315 120.681 118.984 121.858 118.497 122.34C117.989 122.845 115.608 122.865 114.958 122.981C112.74 123.378 110.377 123.819 108.121 123.908C103.477 124.091 98.8982 125.068 94.2175 125.278C93.1713 125.325 92.3416 125.154 91.3327 124.936C89.8195 124.609 89.5355 124.422 89.2255 125.963C88.754 128.306 88.1965 130.813 87.9879 133.188C87.7724 135.641 87.7337 138.097 87.7006 140.561C87.685 141.736 87.6543 142.911 87.6596 144.085C87.6675 145.792 88.116 147.458 88.0305 149.162C87.9214 151.334 87.5532 153.223 85.3925 153.835C84.184 154.177 84.1599 154.003 83.3059 153.315C82.4079 152.592 81.2224 151.939 80.4661 151.083C77.6549 147.899 75.428 143.438 74.5796 139.181C73.6183 134.357 74.9123 129.156 75.3838 124.36C75.5821 122.344 75.6584 119.104 77.0286 117.503C78.4926 115.792 81.4813 115.849 83.4488 115.826C83.8982 115.821 84.2451 115.773 84.5452 115.691C84.477 115.685 84.4092 115.681 84.342 115.683L84.7249 115.636C85.2623 115.452 85.6719 115.148 86.3341 114.77C87.2641 114.238 88.6108 113.97 89.6157 113.569C92.3477 112.48 95.2242 111.93 97.9915 110.964C100.229 110.182 102.453 109.722 104.725 109.153C106.388 108.736 108.123 108.656 109.79 108.362C109.599 108.339 109.409 108.316 109.223 108.342C109.618 108.076 110.047 108.221 110.465 108.229C110.87 108.14 111.269 108.033 111.662 107.901C109.048 102.983 106.661 97.9687 103.765 93.2142C103.132 94.4113 102.059 94.4329 100.802 94.0239C100.099 93.7948 99.8067 93.0755 99.1486 92.8192C98.7383 92.6594 98.4934 93.1441 98.0635 92.7987C97.8132 92.5979 97.6596 91.8889 97.5136 91.2816C95.0999 88.7586 93.957 85.8972 92.8405 82.5654C93.6609 84.1437 94.4101 85.7692 95.2591 87.3308C95.4517 87.6853 95.6973 88.0443 95.9599 88.4079L95.8839 88.2915C95.5347 87.7553 95.195 87.2104 94.8965 86.6293C92.2611 81.4977 90.8554 76.4636 89.9958 70.7377C89.2272 65.6149 89.0698 60.2065 89.2383 55.0279L89.2376 55.0366L89.2386 55.0188L89.2387 55.0145C89.2505 54.6532 89.267 54.2948 89.2881 53.9388C89.4196 51.7281 89.7316 49.6056 90.228 47.4189C90.422 46.5643 90.8274 45.3061 90.8448 44.4569C90.8554 43.9413 90.7119 41.4195 90.5499 41.2789C89.923 40.7339 87.4846 41.1582 86.7961 41.232C85.5428 41.3666 84.297 41.5708 83.0438 41.707C82.792 41.7322 82.5397 41.7572 82.288 41.7821C81.8041 41.6538 81.4509 41.7958 81.2288 42.2081C80.5696 42.3282 81.4027 42.8939 80.4844 42.3402C79.4178 41.6974 79.4448 39.3055 79.4408 38.2206C79.4392 37.8103 79.7323 36.0746 79.4593 35.772C79.2489 35.5387 77.8056 35.6322 77.4447 35.6015C76.0737 35.4858 74.6939 35.3139 73.3189 35.2569C70.6047 35.144 67.8499 35.2142 65.1359 35.2265C60.3125 35.2479 55.7441 37.5219 51.7154 40.0892C49.8549 41.2748 47.8017 42.1004 45.9647 43.3106C44.1574 44.5016 45.2016 43.3328 43.4257 44.5838C40.9428 46.3326 38.3406 47.7983 36.0379 49.8001C34.9353 50.7584 33.4714 51.7167 32.6637 52.9853C31.8523 54.2591 32.3987 55.7003 32.3648 57.1616C32.3278 58.7446 32.4244 60.4235 32.1623 61.975C32.0715 62.5131 31.991 63.5382 31.5124 63.8902C30.7828 64.4266 30.9665 64.0347 30.341 63.6767C27.6346 62.1271 27.1539 59.2265 26.3735 56.4604C21.9006 62.6784 18.9274 69.8598 14.6978 76.2868C14.05 77.2714 12.9212 79.3569 11.5613 78.3468C10.7635 77.7541 10.6126 76.614 10.6931 75.4986L10.6993 75.4165L10.6989 75.2368L10.6982 75.0075L10.6988 75.0712C10.6991 75.1542 10.6994 75.2372 10.6997 75.3202L10.6998 75.4107L10.7071 75.3288C10.7754 74.5912 10.9363 73.8773 11.0684 73.3544C11.5822 71.3222 12.0318 69.2441 12.9565 67.3615C13.42 66.418 13.9741 65.5244 14.4442 64.5848C14.6849 64.1048 15.4311 63.1501 15.3983 62.6109C15.1738 62.9059 14.9499 63.2005 14.7254 63.4958C13.6696 64.0231 12.8646 65.7306 11.9926 66.58C11.1992 67.3528 10.298 68.1219 9.44138 68.8595C7.86968 70.212 6.50447 71.6812 5.17235 73.3284C4.36387 74.328 3.33936 75.2786 2.61903 73.4468C2.0684 72.0466 2.93194 70.7898 3.56332 69.5936C4.38875 68.0298 5.21868 66.614 6.31492 65.2416C7.24359 64.0796 8.54765 62.8406 8.91165 61.3761C7.06093 62.7052 5.40108 64.2559 3.39999 65.366C1.80764 66.2492 -0.764208 66.201 0.217144 63.5525C0.929796 61.6302 3.12599 59.2942 4.57671 57.894C6.08434 56.4385 7.81541 55.0852 9.43449 53.7514C13.1987 50.6501 17.396 48.1026 21.3661 45.2864C24.9913 42.7149 28.6983 40.2877 32.2997 37.7705C40.3867 32.1178 45.6725 28.4291 55.0428 25.185C59.3944 23.6785 63.9713 22.5045 68.4837 21.6953C70.812 21.2779 73.3009 20.6814 75.6568 20.5737C76.5251 20.5339 77.3635 20.7036 78.2223 20.6499C79.1152 20.5942 80.2188 20.8379 81.0975 20.6271C82.0222 20.4057 82.8376 19.3827 83.7567 19.4452C84.0367 19.4644 84.2972 19.7469 84.5765 19.8148L84.6467 19.827C85.0282 19.7848 85.4018 19.4662 85.7616 19.8025C87.0366 19.8408 88.3098 19.8589 89.5788 19.9248L89.5468 19.9388Z" fill="black"/>
</svg>
