<svg width="134" height="67" viewBox="0 0 134 67" fill="none" xmlns="http://www.w3.org/2000/svg">
<path fill-rule="evenodd" clip-rule="evenodd" d="M9.39966 54.9926C8.01266 55.6591 6.62565 56.3256 5.23895 56.9922C4.78046 56.0128 4.00589 53.3373 2.84297 52.9956C0.96043 52.4425 2.15918 55.359 2.48407 56.0259C2.75097 56.5736 3.37008 57.4223 3.21978 58.0752C3.01817 58.9548 1.77508 59.2664 1.12439 59.7202C-0.485784 60.8435 -0.473031 63.2027 1.85889 62.203C3.17848 61.6371 4.81235 60.0679 5.82375 61.8496C6.29074 62.6716 7.39719 67.2644 8.55283 64.2608C9.26789 62.4012 5.82618 60.4692 7.5229 58.896C8.06914 58.3898 8.70859 58.3471 9.25422 58.0561C10.572 57.3532 9.829 56.0544 9.39966 54.9926Z" fill="black"/>
<path fill-rule="evenodd" clip-rule="evenodd" d="M114.133 45.7045C114.89 46.4295 116.501 45.0879 117.312 44.9941C118.657 44.8393 120.317 45.6603 120.801 46.9424C121.745 49.4455 119.267 52.0804 121.351 54.4415C123.214 56.5519 126.152 54.1971 128.547 54.6306C129.939 54.8826 131.348 55.3527 131.875 53.5162C132.239 52.2465 131.519 51.4211 130.293 51.2429C128.186 50.9359 125.828 53.502 123.82 52.3425C121.743 51.1429 123.331 48.0652 123.242 46.2457C123.106 43.4724 120.646 41.314 117.934 42.223C117.116 42.497 112.691 44.3246 114.133 45.7045Z" fill="black"/>
<path fill-rule="evenodd" clip-rule="evenodd" d="M7.54388 11.2913C8.5912 11.23 8.70082 9.13853 9.18316 8.48126C9.98356 7.3916 11.7158 6.73394 12.9861 7.25195C15.4666 8.2627 15.7178 11.868 18.8693 11.9473C21.6861 12.0184 21.9539 8.26622 23.9003 6.808C25.032 5.96006 26.3354 5.24813 25.3441 3.61418C24.6591 2.48418 23.5628 2.45049 22.5985 3.22684C20.9409 4.56032 21.2225 8.03144 19.0057 8.71298C16.7122 9.41811 15.5313 6.16269 14.1342 4.99086C12.0044 3.20498 8.74641 3.53844 7.57037 6.14183C7.21515 6.92742 5.54965 11.409 7.54388 11.2913Z" fill="black"/>
<path fill-rule="evenodd" clip-rule="evenodd" d="M108.571 52.8378C109.328 53.5628 110.939 52.2212 111.75 52.1274C113.094 51.9726 114.755 52.7936 115.238 54.0757C116.182 56.5788 113.704 59.2137 115.789 61.5748C117.652 63.6852 120.59 61.3304 122.984 61.7639C124.377 62.0159 125.786 62.486 126.312 60.6495C126.677 59.3798 125.956 58.5544 124.73 58.3762C122.624 58.0693 120.265 60.6353 118.257 59.4758C116.18 58.2762 117.769 55.1985 117.68 53.379C117.544 50.6057 115.084 48.4473 112.372 49.3563C111.553 49.6303 107.128 51.4579 108.571 52.8378Z" fill="black"/>
</svg>
