<svg width="228" height="179" viewBox="0 0 228 179" fill="none" xmlns="http://www.w3.org/2000/svg">
<path d="M167 37.0002C169.5 36.0002 174.6 34.0002 175 34.0002L180.5 37.0002L178.5 39.5002L174 41.5002L172 45.5002L171.5 50.0002L169.5 53.5002L165.5 52.5002L165 46.5002C164.833 44.8336 164.5 41.4002 164.5 41.0002C164.5 40.6002 166.167 38.1669 167 37.0002Z" fill="#F4E2E1"/>
<path fill-rule="evenodd" clip-rule="evenodd" d="M120.505 133.662C122.845 133.588 122.237 128.252 122.051 126.599C121.749 123.92 121.604 121.584 122.376 118.959C122.752 117.683 123.251 116.339 123.868 115.159C124.228 114.471 125.311 113.408 125.417 112.747C125.711 110.918 123.74 107.057 123.251 105.222C122.937 104.044 120.677 98.7785 121.954 98.0205C123.613 97.0349 125.44 101.901 125.944 102.971C126.522 104.196 126.822 105.447 127.306 106.683C127.757 107.837 128.604 108.397 129.068 109.122C130.393 111.193 129.228 113.552 128.577 115.919C127.852 118.554 127 121.155 126.733 123.889C126.442 126.856 127.279 129.669 127.22 132.609C127.125 137.385 122.332 141.281 117.564 141.185C115.03 141.134 115.092 139.414 113.851 137.789C113.38 137.172 112.484 137.002 111.998 136.145C111.483 135.238 111.366 133.906 111.289 132.87C110.92 127.849 111.067 122.448 111.26 117.414C104.527 123.934 96.9204 129.092 87.7543 131.412C83.1984 132.564 79.6305 132.491 77.401 137.259C75.6734 140.954 77.1143 146.234 77.0922 150.251C77.0684 154.611 77.4653 160.08 75.8221 164.17C73.8405 169.106 69.4298 169.583 67.6282 164.211C66.092 159.631 67.2057 154.591 65.5315 149.973C64.6893 147.649 63.1831 145.81 62.5852 143.387C62.0716 141.305 61.9484 139.251 61.7767 137.111C57.3959 138.893 54.394 141.711 52.0259 145.711C49.8082 149.456 49.5344 153.41 47.9565 157.432C46.5165 161.102 45.6504 165.849 41.1394 166.965C35.3814 168.39 33.103 161.442 34.2234 157.093C34.7961 154.869 35.9095 152.948 36.8419 150.873C37.8746 148.576 37.6465 147.02 37.3121 144.536C37.0564 142.642 36.4656 140.209 37.782 138.556C38.9655 137.068 40.9661 137.09 41.9427 135.28C42.8775 133.549 43.3441 131.186 44.106 129.346C45.0575 127.048 46.0435 124.674 46.8009 122.304C48.4297 117.202 51.3004 113.179 54.2683 108.726C52.6178 108.231 49.1615 110.216 47.338 110.414C44.342 110.738 40.2538 110.382 37.4939 109.022C31.7643 106.196 28.0993 101.49 26.2009 95.4147C24.3773 89.5797 23.3663 82.2184 26.5536 76.6455C28.1778 73.8047 30.5036 71.0723 32.9363 68.8808C34.5561 67.4219 37.861 64.3022 40.2647 64.5644C45.8148 65.1716 36.612 76.1015 35.4586 77.7633C31.7838 83.058 30.0603 87.6718 31.9121 94.0366C33.712 100.225 40.5074 101.551 46.078 102.244C48.9673 102.603 52.3394 102.604 55.2213 101.736C58.487 100.753 60.21 98.2538 62.9049 96.3295C68.2091 92.5424 73.8605 89.4282 79.5402 86.3035C85.1328 83.2255 91.7344 81.7796 97.6079 79.165C103.13 76.7069 108.216 74.1447 113.094 70.565C118.144 66.8585 120.733 59.1996 126.701 56.8433C130.402 55.3823 129.272 58.5919 128.001 60.4264C126.479 62.6213 124.73 64.6488 123.209 66.8495C119.333 72.4543 114.743 76.3804 108.81 79.7303C104.499 82.1633 99.806 84.619 95.0762 86.658C89.1053 89.2327 82.7783 90.6588 77.1144 93.9289C73.761 95.8649 70.5828 98.0329 67.5957 100.508C66.3721 101.522 63.761 103.324 63.8094 104.521C63.8712 106.072 65.031 105.725 63.9894 107.452C62.2352 110.363 59.5875 112.804 57.8327 115.805C55.8783 119.149 54.0325 122.378 52.7076 126.036C51.3938 129.665 50.4861 133.082 47.8844 136.046C47.0218 137.029 45.5683 138.736 44.4598 139.382C43.4396 139.976 42.814 139.662 42.0389 140.53C39.9768 142.84 42.8617 147.515 42.8856 150.211C42.9175 153.664 41.4108 156.674 40.8764 160.03C42.6516 159.108 43.1182 155.626 43.6868 153.888C44.3238 151.939 45.3975 150.451 46.3919 148.646C48.4827 144.851 48.1344 140.534 50.8219 136.765C55.6907 129.939 65.5465 127.73 68.9029 119.442C69.4463 118.099 69.3662 114.668 70.1913 113.692C71.7026 111.905 72.5874 115.776 72.7055 116.965C73.1074 121.022 71.9634 126.258 69.5023 129.559C68.3887 131.053 66.5468 132.1 65.7102 133.873C65.4416 134.074 65.1742 134.276 64.9057 134.477C65.2593 135.068 65.5341 135.691 65.7284 136.347C66.071 137.493 66.0977 138.694 66.3677 139.87C67.0484 142.831 68.3778 145.158 69.7282 147.804C70.6936 149.694 70.7014 154.178 72.0461 155.567C72.1995 149.114 72.4141 141.652 74.3391 135.43C74.7937 133.958 76.0906 132.493 76.3658 131.03C76.5735 130.618 76.7811 130.206 76.9888 129.794C76.3351 129.452 75.7335 129.037 75.1839 128.547C72.0075 124.851 77.149 126.271 79.0132 126.151C82.01 125.958 85.2238 123.804 88.1477 122.911C90.997 122.042 93.8041 121.175 96.4911 119.964C99.3928 118.658 102.341 117.073 105.092 115.47C107.853 113.86 110.158 111.466 112.857 109.955C109.424 108.765 107.806 106.438 105.929 103.494C104.695 101.558 100.96 97.0627 101.847 94.5157C102.808 91.7532 104.352 95.1785 105.215 96.306C106.674 98.2119 108.994 101.51 111.054 102.677C112.164 103.306 113.319 102.89 114.415 103.834C115.221 104.529 115.619 105.684 115.977 106.646C117.037 109.487 116.52 112.134 116.215 115.066C115.502 121.903 116.335 128.781 114.803 135.519C116.759 135.182 118.657 134.371 120.505 133.662Z" fill="black"/>
<path fill-rule="evenodd" clip-rule="evenodd" d="M14.5706 98.9357C11.5521 96.0648 10.3462 91.4705 9.86485 87.4291C9.70253 86.0668 10.2263 75.5269 12.6829 77.0193C14.1399 77.9046 12.3559 86.5558 12.4254 88.4029C12.5089 90.63 12.8228 92.7699 13.7265 94.8234C13.9715 95.3783 16.268 98.6987 14.5706 98.9357Z" fill="black"/>
<path fill-rule="evenodd" clip-rule="evenodd" d="M129.023 88.7339C126.93 87.0635 127.701 81.8405 127.715 79.4553C127.724 77.9851 127.49 72.5363 129.632 73.1297C131.712 73.7056 131.017 79.0617 131.02 80.4876C131.025 82.6029 131.655 87.9641 129.023 88.7339Z" fill="black"/>
<path fill-rule="evenodd" clip-rule="evenodd" d="M157.266 32.0094C153.978 28.7949 157.325 20.8667 161.331 25.4553C161.874 26.0767 163.188 27.7922 162.401 28.6441C161.557 29.5585 161.523 28.573 160.647 28.6616C159.603 28.7669 159.803 28.2122 158.78 29.0342C158.054 29.6179 157.655 31.1945 157.266 32.0094Z" fill="black"/>
<path fill-rule="evenodd" clip-rule="evenodd" d="M147.323 73.9829C148.754 73.207 153.425 71.3711 151.265 68.9474C149.08 66.4959 146.567 72.1066 147.323 73.9829ZM186.807 39.2483C185.833 39.214 184.231 38.9523 183.288 39.283C182.171 39.675 181.549 40.7314 180.422 41.1555C178.124 42.0206 176.025 41.5107 175.169 44.4496C178.449 43.5566 185.313 42.8824 186.807 39.2483ZM140.923 114.851C144.163 114.437 141.96 100.228 141.634 98.377C140.195 98.6149 137.17 102.392 137.185 103.748C137.203 105.238 139.055 107.131 139.6 108.537C140.407 110.616 140.705 112.646 140.923 114.851ZM136.892 31.4205C133.233 32.8097 129.36 35.1711 125.341 34.0201C122.083 33.0875 120.074 29.7953 117.148 28.3384C118.795 34.3898 125.535 37.6764 131.594 38.089C134.68 38.2989 138.599 35.6484 141.523 36.5636C142.371 36.8287 144.484 38.5136 144.777 39.3675C145.777 42.2777 142.943 40.2011 141.772 40.6182C140.144 41.1979 139.024 46.2094 138.001 47.9189C137.231 49.205 136.276 50.3387 135.333 51.5204C135.023 51.9103 133.303 53.462 133.336 53.9767C133.367 54.4334 134.893 55.7263 135.235 56.0737C137.589 58.467 140.05 59.9716 143.099 61.282C144.601 61.9277 146.036 62.1244 147.496 62.6029C147.972 62.7599 150.223 64.5494 149.72 64.5852C149.84 62.3017 151.144 59.3397 151.947 57.1311C152.77 54.8666 153.994 52.3957 156.031 51.0149C156.926 50.4082 158.481 49.6732 159.486 49.3106C160.2 49.0889 160.93 48.9536 161.677 48.9048C162.831 49.0787 163.134 48.6034 162.586 47.4777C163.057 44.9363 161.649 42.2812 162.403 39.6244C163.288 36.5052 165.599 34.5724 168.707 34.0506C170.103 33.816 171.727 34.0007 173.009 33.3962C174.279 32.7972 175.498 31.3089 176.677 30.4895C181.258 27.3055 186.919 23.4102 189.872 18.571C190.321 17.8372 191.595 15.7929 191.506 14.9377C190.933 14.2355 190.362 13.5342 189.79 12.8325C189.378 11.6876 188.722 11.5234 187.822 12.3404C186.583 12.6498 184.632 14.6987 183.51 15.4385C182.085 16.378 180.634 17.2581 179.252 18.257C176.854 19.9907 174.534 21.7325 171.891 23.0948C169.154 24.5048 167.874 25.2587 165.596 22.9227C163.368 20.6395 163.152 19.0083 159.779 20.3492C156.773 21.5436 154.492 23.4216 151.968 25.435C150.293 26.7718 148.229 28.9553 146.386 29.8046C145.02 30.4344 143.324 30.2974 141.866 30.3854C140.026 30.4973 138.663 30.9367 136.892 31.4205ZM177.175 37.2359L178.738 36.8104C177.333 36.4286 175.928 36.0463 174.523 35.6644C173.567 38.8803 168.98 38.8439 166.843 41.1868C165.088 43.1112 164.659 49.3926 167.265 50.9283C170.887 53.0626 170.526 46.2372 170.925 44.5333C171.738 41.0655 173.585 38.1313 177.175 37.2359ZM129.338 56.8773C127.419 54.8303 127.628 52.3174 129.163 50.5359C131.379 47.9664 133.565 45.217 135.674 42.4642C130.957 42.9862 127.308 42.3729 122.869 40.6183C117.747 38.5934 115.736 35.9814 114.391 30.572C113.716 27.8568 111.25 20.2885 116.213 21.3292C120.313 22.1891 122.21 27.199 126.557 27.8887C130.851 28.5698 134.871 25.5565 139.259 25.8026C140.508 25.8731 144.302 27.7274 145.229 27.4617C146.46 27.108 148.821 23.5317 149.813 22.5649C152.302 20.1399 155.663 17.5211 158.801 16.1629C160.772 15.31 161.383 14.9171 163.282 16.0244C165.407 17.264 166.499 19.2148 167.692 21.2525C173.299 16.9325 179.018 12.7684 184.936 8.87997C186.815 7.64506 187.997 6.39819 189.46 4.83403C191.557 2.59463 193.154 2.9321 194.487 6.01935C196.834 11.4581 194.362 16.0184 192.51 21.0717C191.489 23.8585 190.806 25.8165 188.437 27.7428C185.97 29.7476 182.486 30.2667 179.694 32.0287C180.735 32.7676 181.751 34.8713 182.621 35.3531C183.329 35.7443 185.983 34.9246 187.016 35.1534C190.111 35.8395 190.436 38.3026 189.398 41.1084C188.226 44.2731 185.562 45.523 182.567 46.5863C181.226 47.0617 180.011 47.4128 178.615 47.6888C177.712 47.8677 174.366 47.7501 173.775 48.2157C173.075 48.7664 173.367 50.5621 173.223 51.4574C172.996 52.8803 172.708 54.336 171.521 55.2883C170.492 56.1118 169.141 56.3328 167.892 55.9265C166.218 55.3826 166.308 54.1779 165.089 53.2264C164.662 51.9909 164.06 51.8985 163.284 52.9483C162.6 53.4182 161.919 53.8905 161.239 54.3652C159.836 55.3566 158.53 56.3002 157.418 57.6268C155.289 60.1672 154.537 63.6798 151.959 65.7599C154.758 68.5041 154.774 73.2696 152.022 75.8397C151.401 76.4186 150.642 77.1296 149.939 77.5868C149.416 77.9275 147.875 78.1865 147.574 78.6123C147.139 79.2296 148.028 83.7108 147.902 84.7975C147.468 88.534 145.055 90.9914 144.188 94.5091C143.343 97.9417 144.959 102.472 145.391 105.962C145.926 110.284 146.736 114.754 146.005 119.099C145.517 122.006 142.775 126.042 139.48 126.392C134.635 126.907 135.039 120.428 135.766 117.485C136.889 112.946 136.074 109.965 134.331 105.757C132.572 106.528 128.521 109.557 127.788 106.005C127.289 103.583 131.836 100 133.312 98.3137C136.65 94.5014 139.962 90.2208 142.458 85.8205C143.49 84.0016 144.805 80.8035 144.996 78.6482C145.133 77.0757 144.642 75.7166 144.35 74.1911C144.081 72.7871 144.773 70.5698 144.386 69.384C143.812 67.6254 138.342 66.0548 136.486 64.5325C133.842 62.3639 131.368 59.6214 129.338 56.8773Z" fill="black"/>
</svg>
