<svg width="60" height="58" viewBox="0 0 60 58" fill="none" xmlns="http://www.w3.org/2000/svg">
<path fill-rule="evenodd" clip-rule="evenodd" d="M54.7946 39.9049C55.1742 39.4706 55.5531 39.0361 55.9326 38.6022C55.8837 39.5741 55.8042 40.0381 54.7946 39.9049ZM54.2651 42.3401C53.7908 42.2674 54.4696 40.8636 54.5572 40.6082C55.1699 41.335 54.3446 41.659 54.2651 42.3401ZM55.0221 37.8689C55.4827 37.7669 55.9432 37.6652 56.4038 37.5631C55.522 38.4051 55.95 37.8359 55.9325 38.5987C55.4924 38.5789 55.1526 38.3027 55.0221 37.8689ZM50.0136 45.1098C46.7302 50.0263 40.7414 52.7113 35.2054 53.2482C32.0244 53.5563 29.2169 52.9277 26.3016 51.7462C25.1773 51.2905 23.9659 50.4293 22.8409 50.1157C21.9747 49.8744 21.9997 49.9263 21.0399 50.432C20.9353 49.7238 21.3045 49.3821 20.8017 48.8148C20.1743 48.1071 19.6778 48.5008 19.0855 48.9683C18.7693 48.2433 18.6612 47.8848 18.1194 47.3301C18.1364 47.3477 17.4992 47.0953 17.5227 47.113C17.4189 47.0343 16.8788 46.3141 16.6884 46.1506C15.9075 45.4788 14.9137 44.9666 14.2556 44.1648C13.6796 43.4643 13.5082 42.0049 12.3449 42.6721C12.8948 41.0682 11.0629 39.6803 10.3856 38.5015C9.32734 36.6597 8.79497 34.2955 8.68818 32.1518C8.57428 29.8658 8.96639 27.8501 9.30034 25.6526C9.53372 24.1172 8.53263 21.4281 10.0642 20.3334C10.1002 21.0304 9.7701 21.6154 9.98803 22.3123C10.6102 21.6991 11.0973 20.9396 11.5422 20.1856C11.7604 19.8164 12.6337 18.8144 12.6991 18.449C12.8336 17.7014 12.0094 17.369 12.7722 16.6623C13.3581 18.0989 14.7979 16.4422 14.3343 15.4178C13.8292 15.7166 13.5316 16.1528 13.1853 16.6208C12.9266 14.2844 15.3257 15.8493 15.3736 13.8389C16.3964 13.9815 17.033 13.9217 17.7369 13.0584C18.5199 12.0977 18.3049 11.753 19.4734 11.3465C19.8753 11.207 20.8923 11.1603 21.1972 10.8056C21.7868 10.1205 21.0631 9.60204 22.0241 9.10335C22.1118 9.62473 22.742 10.8171 23.5332 10.1704C23.6914 10.0417 23.3043 9.77513 23.7452 9.50518C24.398 9.10591 25.1018 8.73662 25.8397 9.12753C25.7781 7.29571 29.7604 8.54951 30.9 8.5221C32.0419 8.49507 32.9857 8.54524 34.0879 8.83268C35.1891 9.11974 35.3553 8.80953 36.4939 8.45168C36.2386 9.44565 36.5335 9.31089 37.1306 9.71151C37.3855 9.48335 37.5581 9.50809 37.6478 9.78598C37.7561 10.0078 37.9309 10.1554 38.1714 10.2294C38.5246 10.3753 38.95 10.4693 39.3244 10.6098C40.2038 10.9385 41.1439 11.1816 42.0059 11.506C42.2435 11.5453 42.4809 11.5371 42.7197 11.4816C42.7461 11.6721 42.7727 11.8631 42.7986 12.0538C43.2381 12.2757 43.0661 12.8929 43.8592 12.4302C43.738 13.3297 44.3694 13.061 44.7995 13.4673C45.1915 13.8383 45.1511 14.1969 45.4992 14.5793C45.6985 14.9172 45.9892 15.0545 46.3719 14.9924C46.5968 15.3384 46.8288 15.6792 47.0676 16.0145C47.5314 16.5634 48.1451 17.0152 48.665 17.5027C49.0125 17.8222 49.355 18.1482 49.6919 18.4796C49.5292 18.9929 49.6852 19.2492 50.1598 19.2478C50.427 19.7174 50.5391 19.7421 50.714 20.4434C51.11 22.0326 51.5103 23.2997 52.1746 24.8291C55.0614 31.4774 54.0372 39.0855 50.0136 45.1098ZM58.7736 24.2193C57.6948 20.5639 55.8963 16.1805 53.8811 13.404C52.8598 11.9963 51.5519 9.65389 50.0797 8.58248C49.7307 8.32842 49.3304 8.17935 48.9899 7.92184C48.7269 7.72298 48.6753 7.34844 48.3578 7.17276C48.1357 7.04998 47.9196 7.59424 47.6865 7.45552C47.1995 7.1647 47.0546 6.50326 46.8017 6.03266C45.5143 7.18928 45.912 4.62406 44.1881 5.8377C43.5835 3.06799 40.1503 2.42281 37.8936 1.76015C37.2245 1.56338 36.8313 1.70034 36.1859 1.67761C35.5854 1.65635 35.5467 1.59402 34.9558 1.38154C33.4844 0.851965 32.1077 0.586933 30.5106 0.787823C27.8274 1.1251 25.1136 2.16534 22.465 2.7771C19.5048 3.46079 16.6405 4.64803 14.0077 6.24317C4.48954 12.0116 -1.38322 23.2449 0.745031 34.5498C4.12592 52.505 25.5538 61.8143 41.494 56.0283C53.8094 51.5575 62.715 37.5696 58.7736 24.2193Z" fill="black"/>
</svg>
