<svg width="351" height="264" viewBox="0 0 351 264" fill="none" xmlns="http://www.w3.org/2000/svg">
<path fill-rule="evenodd" clip-rule="evenodd" d="M94.9999 194.228C96.5919 195.884 95.4251 198.351 99.6289 198.351C101.523 199.942 104.943 202.429 106.83 204C115.152 194.852 129.908 184.108 139.785 176.517C144.467 172.917 147.509 167.929 150.033 162.919C151.328 160.351 151.342 157.439 152.091 154.703C152.428 153.47 152.605 151.622 153.634 150.081C154.662 149.054 154.042 149.208 155.177 148.027C155.665 147.519 157.233 154.553 158.19 154.717C158.995 154.854 160.468 157.059 160.977 157.603C163.424 160.223 165.797 162.921 168.374 165.439C172.316 169.291 175.905 173.082 179.565 177.165C187.053 185.519 184.35 183.64 192.5 191.5C193.104 192.083 202.068 202.18 203.124 202.459C204.18 202.739 209.55 200.42 209.55 198.351C212.117 196.78 215.421 192.596 217.616 190.649C221.898 186.848 221.128 179.806 223.078 174.73C224.246 171.691 225.612 168.515 226.817 165.486C227.32 164.224 226.687 162.52 226.109 161.421C225.937 161.093 224.842 160.223 224.455 160.156C223.999 160.077 227.237 160.64 227.078 160.602C225.563 160.228 224.401 159.768 223.5 159C222.989 158.564 222.392 157.662 221.616 157.423C218.778 156.548 216.232 154.878 213.55 153.881C202.319 149.708 190.952 145.65 181.257 138.836C178.743 137.069 177.072 135.741 174.072 134.599C171.04 133.445 167.993 132.416 164.899 131.409C162.17 130.52 159.425 129.687 156.606 129.051C153.557 128.362 149.232 127.489 146.186 128.376C140.203 130.117 138.272 134.55 135.889 139.226C132.666 145.553 128.769 151.54 124.544 157.363C116.417 168.567 102.931 182.934 94.9999 194.228Z" fill="#F4E2E1"/>
<path fill-rule="evenodd" clip-rule="evenodd" d="M273.136 86.9036C273.456 86.7411 275.955 87.7585 276.375 87.9141C278.051 88.5359 279.629 89.569 281.208 90.4095C279.998 91.882 278.788 93.3549 277.578 94.8278C276.392 91.9187 274.868 89.5183 273.136 86.9036ZM272.311 105.004C272.722 105.05 269.246 113.402 268.841 114.34C267.364 117.751 265.813 121.129 264.316 124.531C262.866 127.828 261.027 130.862 259.174 133.942C257.589 136.576 255.959 140.664 253.568 142.615C255.078 135.918 254.879 128.217 259.209 122.594C263.697 116.765 268.135 111.072 272.311 105.004ZM97.9232 194.317C104.63 183.696 113.026 174.3 120.02 163.869C123.936 158.028 127.748 152.112 131.044 145.895C133.442 141.373 134.932 134.92 138.636 131.462C140.268 129.939 142.011 128.448 144.201 127.766C147.198 126.832 151.325 127.757 154.335 128.496C159.945 129.871 165.426 132.007 170.74 134.251C176.13 136.526 180.729 140.613 185.599 143.897C190.823 147.42 196.478 149.987 202.331 152.233C207.428 154.189 211.961 156.998 217.031 158.967C218.041 159.359 220.102 159.301 220.95 159.813C221.863 160.364 221.503 161.991 222.612 162.591C223.112 162.862 223.278 161.88 223.662 161.896C224.132 161.916 224.56 162.467 225.013 162.816C226.855 164.237 225.726 165.185 224.997 167.141C222.619 173.514 221.341 179.998 218.003 186.014C215.258 190.959 211.329 195.391 206.704 198.665C206 199.163 203.706 201.093 202.881 200.965C202.137 200.85 200.625 198.873 200.111 198.337C197.782 195.901 195.653 193.281 193.325 190.841C189.728 187.071 186.265 183.2 182.775 179.378C178.722 174.942 175.136 169.915 171.486 165.175C169.807 162.994 167.646 161.218 165.78 159.196C163.271 156.477 160.966 153.554 158.586 150.722C157.866 149.865 156.659 147.673 155.54 147.699C154.756 147.717 153.373 149.564 152.963 150.142C151.438 152.293 151.445 156.177 150.687 158.862C148.837 165.409 145.5 171.804 140.925 176.856C136.375 181.88 130.546 185.453 125.165 189.491C119.335 193.866 113.812 198.343 109.188 203.995C107.354 202.296 105.354 200.793 103.512 199.073C101.757 197.436 99.4711 196.107 97.9232 194.317ZM184.257 224.364C182.953 224.378 180.745 225.18 179.579 224.697C183.039 220.868 186.216 217.584 190.594 214.778C195.136 211.866 199.664 208.981 204.076 205.875C212.968 199.617 219.508 192.195 223.223 181.773C224.179 179.089 224.82 176.274 225.521 173.515C225.898 172.029 226.648 165.078 227.923 164.477C228.678 164.122 234.361 168.116 235.262 168.614C237.367 169.778 239.48 170.681 241.657 171.592C246.335 173.551 251.159 175.045 256.12 176.292C262.068 177.788 266.12 175.313 269.805 170.638C273.985 165.334 277.459 159.35 281.281 153.78C283.019 151.246 284.459 148.717 285.743 145.923C286.583 144.094 289.915 139.161 288.764 137.213C285.479 139.714 284.297 144.687 282.06 148.036C279.271 152.209 276.128 156.143 273.325 160.313C270.968 163.819 268.563 168.068 265.08 170.588C262.017 172.805 259.107 172.123 255.81 171.127C251.814 169.92 247.672 169.324 243.756 167.827C239.519 166.207 235.509 163.908 231.375 162.034C229.447 161.16 227.139 160.663 225.323 159.573C223.758 158.635 223.991 158.139 223.876 156.14C223.742 153.809 223.587 151.475 223.484 149.141C223.415 147.573 224.263 145.447 223.687 144.276C228.381 145.09 232.969 146.18 237.63 147.144C240.182 147.672 242.643 148.324 245.221 148.739C246.204 148.897 247.547 148.893 248.427 149.321C249.129 149.119 249.487 149.248 249.5 149.705C249.534 149.954 249.587 150.199 249.66 150.44C251.099 151.094 251.936 149.69 253.185 148.343C254.725 146.681 255.879 144.808 257.009 142.855C259.536 138.487 262.448 134.379 264.787 129.889C267.17 125.311 269.106 120.41 271.126 115.66C272.98 111.303 274.167 106.59 276.215 102.336C277.13 100.437 278.288 98.8671 279.641 97.2629C280.757 95.9391 282.475 93.0834 284.142 92.4754C284.583 92.3146 285.738 92.5847 286.238 92.5491C287.237 92.4778 288.126 92.1113 289.148 92.1915C291.359 92.3646 293.77 93.7632 295.538 94.9927C294.395 96.0107 291.538 97.2481 293.591 99.082C295.582 100.862 296.682 97.6687 297.442 96.2695C301.021 99.2081 300.503 103.26 300.917 107.412C301.133 109.58 301.701 111.715 302.067 113.85C302.331 115.386 302.146 116.976 302.221 118.545C302.414 122.531 302.814 126.348 302.795 130.278C302.774 134.48 302.488 138.538 302.152 142.709C301.586 149.732 300.289 156.757 299.177 163.724C298.552 167.64 297.695 171.445 296.864 175.298C295.921 179.67 294.176 183.812 293.197 188.174C292.2 186.906 291.45 186.9 289.837 187.068C288.597 187.197 287.763 186.902 287.836 188.624C287.883 189.74 288.868 190.593 289.958 190.788C291.38 191.042 291.863 190.333 292.595 189.256C292.767 191.295 291.395 193.427 290.853 195.418C290.34 197.305 290 199.155 289.138 200.961C288.296 202.723 287.576 204.46 286.724 206.206C286.332 207.008 285.965 207.824 285.569 208.624C285.368 209.03 285.132 209.589 284.833 209.93C284.131 210.732 284.242 210.344 283.421 210.8C281.631 211.794 282.303 211.546 282.261 213.6C282.22 215.625 281.182 217.113 279.516 218.251C275.983 220.667 272.497 221.339 268.48 222.56C264.737 223.697 260.794 224.673 256.831 224.651C251.977 224.623 247.187 223.987 242.332 223.922C236.977 223.852 231.57 223.881 226.225 224.066C224.024 224.142 221.979 224.24 219.854 224.802C217.385 225.455 214.997 225.196 212.453 225.097C207.026 224.886 201.411 224.466 196.055 224.428C192.198 224.401 188.128 224.132 184.257 224.364ZM43.5185 226.468C42.5536 226.978 40.3907 226.769 39.4207 226.627C37.7119 226.378 37.5289 225.701 36.4447 224.177C34.5786 221.553 33.0636 219.04 31.9657 216.001C29.8645 210.184 29.0065 204.233 28.0841 198.147C27.0589 191.386 28.9311 184.377 29.6009 177.661C29.7548 176.121 29.9652 174.594 30.2086 173.065C30.3543 172.151 30.3923 169.041 30.9939 168.249C32.1497 166.729 37.5244 167.955 39.6376 168.093C45.5361 168.478 51.4733 168.568 57.369 168.635C60.5125 168.671 63.6736 168.802 66.7859 168.827C68.2153 168.838 69.6128 168.767 71.0473 168.628C71.5272 168.582 71.9958 168.471 72.4791 168.445C74.134 168.353 74.0096 168.113 74.4373 169.578C75.1866 172.146 74.6101 175.412 74.8069 178.077C75.0701 181.638 75.2124 185.249 75.1472 188.817C75.0869 192.114 75.1993 195.404 75.0763 198.709C75.0249 200.078 74.8754 201.194 74.5145 202.501C74.1062 203.978 73.6572 207.431 72.6405 208.453C72.525 208.57 71.6609 208.298 71.4316 208.588C71.0782 209.035 71.1429 209.98 70.9003 210.268C70.115 211.203 68.4919 211.277 67.3145 211.697C64.0839 212.849 61.1203 214.1 58.0754 215.653C55.3548 217.041 50.9684 218.222 49.3326 220.96C48.5826 222.215 48.4815 223.871 47.7919 225.166C47.0066 226.641 48.5779 225.87 46.6539 226.468C45.7874 226.738 44.4066 226.468 43.5185 226.468ZM330.336 209.783C330.581 213.19 332.5 216.435 333.168 219.784C333.48 221.353 334.011 222.894 334.378 224.454C334.731 225.95 336.004 227.721 335.875 229.201C331.176 227.527 326.417 227.106 321.506 226.655C316.851 226.227 311.934 226.056 307.319 226.054C302.615 226.052 297.587 225.592 292.744 225.521C287.679 225.447 282.539 225.316 277.547 224.79C280.157 222.857 283.423 221.042 285.35 218.353C287.445 215.429 288.533 211.766 290.376 208.681C294.076 202.491 296.427 194.809 298.366 187.853C302.281 173.813 306.656 160.031 307.71 145.467C309.717 146.495 311.31 150.482 312.315 152.467C313.597 155.002 314.268 157.75 315.102 160.444C316.819 165.993 318.007 171.747 320.109 177.243C324.126 187.75 326.708 199.071 330.336 209.783ZM75.2741 127.95C74.4052 134.23 72.5829 140.59 72.513 146.946C72.4976 148.344 72.7345 149.897 72.4431 151.275C72.1319 152.747 71.1197 154.048 70.5352 155.447C69.6077 157.668 67.2587 162.219 69.524 164.101C69.57 162.315 71.204 160.048 72.027 158.486C73.2675 156.134 74.8974 153.983 76.2421 151.689C79.0569 146.887 82.2111 142.188 85.8387 137.955C89.372 133.831 93.4441 130.173 97.191 126.247C98.3167 125.067 107.347 113.712 107.706 113.871C104.905 124.673 100.143 134.072 93.6268 143.116C90.4318 147.55 86.5972 150.467 82.7078 154.224C79.4689 157.352 73.3645 160.697 74.4843 165.822C69.4212 165.335 64.3914 164.558 59.2823 164.558C60.1225 158.091 60.7658 151.727 62.2658 145.367C63.9687 138.145 65.1222 130.707 66.5632 123.421C68.0337 115.983 70.528 108.782 72.0798 101.358C73.5657 94.2489 74.8422 87.1524 75.9315 79.9641C76.8316 83.9472 76.4995 88.322 76.8189 92.3859C77.1453 96.5379 77.1137 100.613 77.0051 104.79C76.8039 112.547 75.9771 120.211 75.2741 127.95ZM53.3345 90.9654C53.3061 87.645 52.6627 84.3694 52.4642 81.0569C52.4032 80.0406 51.391 73.1066 52.335 72.7446C53.1114 74.4373 53.2924 76.6032 53.9974 78.3791C54.7018 80.1533 55.6441 81.8436 56.3201 83.6301C57.7844 87.5003 58.2896 91.8796 58.4473 95.9943C58.8042 105.301 58.9886 114.587 58.363 123.894C58.095 127.884 57.8893 131.88 57.9626 135.877C58.0432 140.275 58.7167 144.092 57.8989 148.454C57.0892 152.774 56.5806 157.076 56.3108 161.459C56.1216 164.535 56.0455 164.317 53.1107 164.101C50.992 163.944 48.8524 164.111 46.7307 164.014C47.7226 152.025 47.8847 140.012 49.4694 128.069C50.278 121.976 50.2996 115.795 51.3039 109.725C51.803 106.71 52.6404 103.755 53.1216 100.736C53.6382 97.4949 53.3839 94.2317 53.3345 90.9654ZM267.948 83.4207C262.298 83.9101 256.288 85.5993 250.497 84.4839C251.451 84.0973 253.95 83.5639 252.825 82.0379C251.682 80.4862 249.756 82.4544 248.616 82.2511C247.913 82.1257 246.359 79.1871 245.926 78.5786C244.942 77.1959 244.824 76.9549 243.055 76.6005C241.342 76.2577 240.954 76.6289 240.737 74.9257C240.488 72.9671 241.165 70.7651 241.098 68.7623C240.954 64.4505 239.563 60.6694 238.268 56.6127C243.769 57.8093 249.147 59.2284 254.771 59.9996C257.176 60.3294 260.916 61.09 263.1 59.4557C263.668 59.0306 263.577 58.4568 264.042 57.9642C264.822 57.1378 266.267 56.2829 267.373 56.0475C274.176 54.5992 274.84 64.2973 271.43 67.9263C270.576 68.8356 269.388 69.2847 268.514 70.118C267.347 71.2292 267.251 72.3998 267.081 74.0962C266.761 77.2771 267.195 80.4704 268.552 83.3802L267.948 83.4207ZM185.392 129.205C183.384 129.586 181.288 129.499 179.275 129.824C178.559 129.94 176.415 130.343 175.786 129.925C174.825 129.286 174.484 126.944 174.029 125.853C173.231 123.935 172.101 122.261 171.339 120.308C168.227 112.329 165.324 104.318 161.56 96.6113C163.003 96.2363 164.111 96.2215 165.565 96.0279C167.079 95.826 168.453 94.9303 169.898 94.5454C171.271 94.1796 172.71 94.2729 174.071 93.8475C174.821 93.6134 175.464 93.0927 176.203 92.9107C177.381 92.621 178.756 92.4517 179.457 93.225C180.175 94.0182 180.427 96.1931 180.817 97.2176C181.858 99.9471 183.067 102.581 183.939 105.374C184.725 107.892 185.473 110.384 186.165 112.925C186.897 115.608 188.338 117.819 189.216 120.382C189.884 122.333 190.515 124.327 190.615 126.407C190.712 128.436 191.007 128.566 188.977 128.89C187.953 129.053 186.356 129.662 185.392 129.205ZM53.2567 224.193C52.7336 224.437 52.2404 224.404 51.7776 224.096C56.3125 222.18 60.7237 219.524 65.4547 218.209C69.8925 216.977 74.206 215.505 78.4814 213.987C81.9554 212.754 85.0788 211.793 88.2196 209.623C90.1261 208.305 91.8198 206.824 93.1298 204.899C94.5883 202.755 94.9129 199.704 96.4924 197.774C98.6245 200.115 101.129 201.888 103.652 203.749C104.524 204.393 106.618 205.796 106.916 206.792C107.293 208.049 106.284 209.251 105.785 210.523C104.506 213.781 103.882 217.037 103.189 220.424C102.911 221.781 102.31 223.822 101.195 224.391C100.18 224.908 97.2397 224.532 95.9762 224.436C89.3847 223.937 82.91 223.425 76.2787 223.88C68.7747 224.394 60.7412 224.75 53.2567 224.193ZM40.0911 163.826C38.8931 163.831 37.7229 163.681 36.5294 163.681C37.2183 160.464 35.6076 156.301 35.0366 153.09C34.3976 149.498 33.9112 145.784 33.4852 142.163C32.5871 134.537 32.1802 127.003 32.1686 119.321C32.1576 111.887 30.8044 105.094 28.9088 97.9477C26.8734 90.273 23.5403 83.3713 20.7844 75.9698C23.8073 77.5678 25.4807 81.3071 27.0692 84.1658C29.0771 87.7804 30.4146 91.7826 31.2345 95.8404C32.8164 103.668 34.5516 111.52 36.3768 119.335C38.2775 127.472 39.3949 135.684 41.5722 143.754C42.6342 147.69 44.0779 152.532 44.1581 156.591C44.1914 158.27 44.6973 161.786 43.9363 163.244C43.2247 164.608 41.6514 163.966 40.0911 163.826ZM220.922 153.73C220.985 154.566 221.044 155.361 221.193 156.186C219.533 156.171 217.432 154.449 216.009 153.676C214.275 152.734 212.539 151.696 210.843 150.749C207.57 148.922 203.854 147.717 200.358 146.216C196.343 144.491 192.652 142.407 188.813 140.331C187.471 139.605 177.832 135.427 177.994 134.285C180.11 134.215 182.226 134.145 184.343 134.074C186.157 134.014 188.967 134.424 190.705 133.863C191.656 133.556 192.725 132.424 193.084 131.538C193.439 130.661 192.64 126.629 193.105 126.372C195.473 128.79 196.963 132.004 199.08 134.613C201.421 137.496 204.444 139.18 207.777 140.712C211.458 142.404 215.267 143.715 219.028 145.165C220.614 145.777 220.583 146.127 220.721 147.866C220.876 149.81 220.859 151.781 220.922 153.73ZM29.6722 226.864C25.6826 227.293 21.594 227.049 17.5733 227.382C16.1104 227.504 14.0822 227.685 15.554 229.648C16.4809 230.885 19.45 230.488 20.7968 230.574C24.4127 230.804 28.2411 230.68 31.8652 230.627C32.6282 230.616 33.4715 230.389 34.2427 230.44C35.1329 230.499 36.1989 231.139 37.0103 231.134C37.5103 231.131 37.6896 230.603 38.1208 230.555C39.0604 230.45 39.9996 230.372 40.947 230.373C55.2715 230.376 69.3993 230.088 83.6881 230.073C90.5206 230.065 97.4628 229.947 104.293 229.627C105.727 229.559 113.894 229.852 113.668 227.27C113.552 225.94 110.886 225.753 109.913 225.611C109.193 225.507 108.445 225.523 107.722 225.484C105.804 225.382 104.963 225.843 105.368 223.744C106.903 215.781 109.654 209.199 115.532 203.474C120.338 198.792 126.126 194.545 131.57 190.635C138.18 185.888 143.542 180.895 147.467 173.63C149.758 169.388 151.677 165.051 152.854 160.361C153.278 158.673 153.288 156.754 153.807 155.127C154.207 153.875 155.117 152.998 155.653 151.701C162.23 162.685 170.946 171.875 178.938 181.78C182.757 186.511 187.113 191.005 191.676 195.122C193.03 196.343 194.293 197.619 195.557 198.933C196.614 200.034 198.292 201.012 199.185 202.232C200.041 203.403 199.83 203.347 198.527 204.277C196.804 205.506 194.906 206.527 193.156 207.725C190.359 209.641 187.306 211.26 184.805 213.565C182.1 216.059 179.737 218.947 177.373 221.758C175.797 223.632 173.73 226.037 173.333 228.406C173.202 229.19 172.704 231.129 173.361 231.703C173.924 232.193 173.867 232.007 174.565 231.708C175.479 231.316 175.749 230.416 176.866 229.987C179.724 228.89 183.183 229.267 186.157 229.254C189.132 229.24 192.132 229.574 195.106 229.562C201.897 229.534 208.544 230.084 215.333 230.379C222.543 230.693 229.842 229.941 237.029 230.047C242.354 230.126 247.82 229.728 253.292 230.024C256.106 230.176 258.87 229.824 261.615 229.784C265.208 229.732 268.898 230.221 272.521 230.291C278.469 230.406 284.344 230.405 290.328 230.548C303.2 230.856 316.002 231.174 328.882 231.378C330.6 231.405 332.481 231.347 334.178 231.54C335.98 231.746 335.05 232.129 336.286 232.778C339.748 234.593 338.948 227.863 338.865 226.539C338.421 219.445 336.62 212.487 334.455 205.752C332.402 199.365 330.735 192.679 328.996 186.154C327.093 179.011 324.613 172.161 322.361 165.089C320.053 157.842 318.175 150.313 313.984 143.889C313.029 142.426 312.042 140.852 310.507 139.929C308.785 138.895 308.711 139.499 308.713 137.607C308.714 135.824 308.604 133.443 309.025 131.742C309.405 130.205 309.346 131.117 310.202 130.013C310.899 129.115 311.627 128.502 312.127 127.412C315.197 130.524 322.224 128.882 325.19 126.64C328.82 123.897 331.586 119.268 332.599 114.86C333.413 111.32 332.414 104.573 328.496 102.871C326.586 102.041 319.571 101.414 319.29 98.709C319.146 97.3129 321.615 95.3499 322.184 94.1495C323.24 91.9255 324.254 88.9674 324.547 86.5296C325.121 81.7712 322.96 76.4504 319.519 73.2362C313.207 67.3398 302.1 64.3138 293.98 68.0548C295.696 61.5 296.732 55.8452 295.868 49.0268C295.123 43.1527 291.657 39.8661 286.888 36.9402C278.75 31.9467 267.683 29.9758 258.378 31.4278C256.264 31.7578 254.234 32.4657 252.276 33.0288C249.432 33.847 246.027 33.5745 243.341 34.9038C241.394 35.8674 239.915 37.7869 238.205 39.0685C236.209 40.5647 234.55 42.7979 233.162 44.8631C230.196 49.2794 231.355 57.4758 233.838 61.9089C234.37 62.8597 235.028 63.6601 235.909 64.309C236.826 64.9842 238.224 65.1944 238.697 66.0702C239.908 68.3136 238.74 73.1704 238.579 75.5951C238.39 78.4107 239.814 80.5256 243.006 80.7501C244.853 80.8804 244.912 79.8088 245.797 82.0136C246.37 83.4426 246.89 84.9995 247.718 86.3096C249.423 89.0096 252.546 88.746 255.391 88.673C258.685 88.588 261.929 88.0676 265.224 87.7393C264.353 90.5277 261.971 92.692 260.483 95.1761C258.472 98.5359 257.261 101.321 256.934 105.235C256.683 108.243 257.225 110.618 259.283 112.856C260.135 113.783 260.89 113.828 260.679 114.897C260.55 115.549 259.422 116.625 259.023 117.145C257.968 118.522 256.742 119.785 255.814 121.255C252.239 126.912 251.183 135.535 251.174 142.119C251.174 142.421 251.013 143.063 251.146 143.376C251.245 143.606 251.995 144.337 252.006 144.399C252.153 145.246 251.327 146.697 250.032 146.841C248.672 146.991 246.18 145.856 244.914 145.483C242.889 144.886 240.825 144.445 238.804 143.832C235.541 142.842 232.292 142.052 228.975 141.276C227.475 140.926 225.968 140.634 224.464 140.306C222.751 139.933 221.955 139.212 221.07 140.955C220.312 142.451 220.783 142.722 218.946 141.968C217.121 141.219 215.338 140.291 213.557 139.446C210.415 137.956 206.674 136.627 203.963 134.427C199.442 130.756 197.768 124.91 193.441 121.015C192.237 119.931 191.518 119.912 190.756 118.409C189.941 116.801 189.52 114.739 189.092 113.01C188.341 109.981 187.806 106.941 187.125 103.915C186.277 100.146 184.443 96.7316 183.105 93.1359C182.584 91.735 182.314 89.9543 181.473 88.6953C181.25 88.3614 180.825 88.1732 180.651 87.8969C180.053 86.9485 180.059 86.688 179.904 85.5469C179.179 80.215 175.996 83.02 172.519 84.2426C171.053 84.7578 164.095 88.0988 166.752 90.3207C163.585 91.2397 158.512 90.7402 158.555 95.2793C158.577 97.605 159.968 100.093 160.714 102.27C161.377 104.203 162.018 106.143 162.692 108.073C164.168 112.3 165.958 116.401 167.398 120.642C168.054 122.574 168.596 124.552 169.51 126.376C170.316 127.985 172.267 129.758 172.588 131.518C164.148 127.917 156.34 122.711 146.893 123.043C142.757 123.188 139.003 124.927 136.718 128.564C133.854 133.123 131.969 138.227 129.17 142.828C118.986 159.565 106.839 174.771 95.6591 190.815C94.8005 192.048 93.6961 193.214 93.3982 194.738C93.2039 195.732 93.5809 196.726 93.3478 197.681C92.8642 199.666 90.4205 202.144 88.7636 203.284C85.5874 205.47 80.4243 208.554 76.4608 208.281C78.9483 202.303 78.915 195.753 78.7995 189.376C78.6895 183.319 78.0348 177.311 77.2577 171.316C77.0818 169.96 76.9286 168.702 76.5389 167.388C76.0916 165.88 75.4773 166.023 76.8172 164.667C78.8794 162.579 81.3322 160.862 83.4112 158.748C87.9073 154.178 92.5156 150.595 96.0544 145.137C99.4197 139.946 102.97 134.605 105.461 128.92C108.026 123.068 109.051 116.818 110.324 110.62C110.841 108.105 112.725 105.297 112.346 102.671C111.868 99.3521 110.329 101.769 109.702 103.555C107.79 109.008 103.313 113.888 99.6052 118.273C95.5988 123.01 90.6989 126.973 86.517 131.573C81.9633 136.582 78.8441 142.339 74.7945 147.686C74.7945 141.05 77.0603 134.293 77.9871 127.728C78.8026 121.95 79.0586 116.153 79.5742 110.35C80.7447 97.1679 79.7332 83.5972 78.0903 70.5091C77.3095 64.2932 77.7523 58.2237 77.7287 51.9866C77.7211 50.0016 78.5428 45.4266 77.4956 43.6651C75.49 40.2912 74.3201 47.6687 74.2187 48.7687C73.6123 55.3211 74.6999 61.8006 74.1443 68.3249C73.5636 75.1382 72.3036 81.7603 71.2314 88.4947C70.0697 95.7866 68.1786 102.914 66.3681 110.066C64.4671 117.575 62.8684 125.241 60.7549 132.69C60.1848 130.348 60.9845 127.472 61.1425 125.087C61.3681 121.675 61.8086 118.261 61.8466 114.84C61.9076 109.386 61.9501 103.832 61.6416 98.4043C61.3376 93.0543 61.4294 87.4482 59.7886 82.294C59.0098 79.8476 57.8677 77.4609 56.7502 75.1564C55.3716 72.3148 54.8842 69.5596 54.1208 66.5374C53.4668 63.9491 52.5098 61.429 52.0741 58.789C51.8033 57.1471 51.0475 52.3003 49.1678 55.9724C48.0764 58.1038 48.548 61.2634 48.5175 63.5532C48.4785 66.4887 48.9278 69.343 48.9967 72.2661C49.1307 78.0014 49.2271 83.7298 49.6548 89.4555C50.1035 95.4626 49.7117 100.846 48.5689 106.765C47.3181 113.244 46.9521 119.738 46.3039 126.296C45.9697 129.682 45.4062 133.049 45.134 136.441C44.9901 138.236 45.7284 143.386 44.4416 144.665C44.3172 141.554 43.426 138.441 42.7504 135.41C41.95 131.82 41.6267 128.045 41.0368 124.403C40.0815 118.503 38.2278 112.868 37.0013 107.034C34.4734 95.0067 32.3729 79.5494 21.7784 71.6772C20.3923 70.6472 18.869 69.8869 17.3704 69.0393C16.522 68.5594 15.2616 67.3178 14.2909 67.1012C13.2314 66.8647 12.7896 67.0484 12.36 68.2776C11.7612 69.9911 12.8564 70.7915 13.8789 72.0361C17.4174 76.3427 18.929 81.8634 21.1138 86.9142C26.1169 98.4797 28.3306 110.678 28.3559 123.18C28.3693 129.725 28.8207 136.037 29.5186 142.542C30.2696 149.542 31.2585 156.946 33.3854 163.68C31.2523 164.159 28.938 163.446 28.359 165.925C28.2168 166.534 28.4738 167.254 28.3165 168.047C28.1636 168.818 27.7958 169.584 27.5782 170.342C27.1285 171.91 26.8906 173.456 26.6719 175.066C25.8263 181.287 24.3743 187.203 24.2197 193.511C24.0774 199.341 25.2189 205.248 26.2705 210.966C27.33 216.725 30.3687 221.635 32.7609 226.843C31.7312 226.843 30.7019 226.854 29.6722 226.864Z" fill="black"/>
<path fill-rule="evenodd" clip-rule="evenodd" d="M165.068 213.625C166.203 213.946 171.68 214.551 171.679 216.27C171.678 217.301 166.209 217.281 165.241 217.393C165.183 216.137 165.126 214.881 165.068 213.625ZM152.978 225.485C149.822 226.085 145.538 225.241 143.52 222.458C142.577 221.158 142.13 219.181 141.823 217.629C141.53 216.15 140.625 212.46 141.241 211.074C141.996 209.372 149.248 211.151 151.36 211.346C155.045 211.686 158.855 211.727 162.542 211.486C162.542 215.293 162.736 219.003 160.497 222.28C158.882 224.644 155.848 225.202 152.978 225.485ZM153.613 230.187C157.042 228.932 160.643 229.748 162.876 226.066C163.443 225.132 163.92 224.127 164.263 223.09C164.43 222.635 164.56 222.17 164.653 221.693C164.479 220.667 164.855 220.377 165.781 220.825C167.598 220.471 169.592 221.719 171.506 221.351C176.15 220.459 175.307 213.807 172.19 211.504C171.575 211.049 170.96 210.923 170.255 210.698C168.702 210.203 167.861 210.756 166.44 210.615C165.292 210.502 164.976 209.298 163.742 208.767C162.934 208.421 161.812 208.447 160.963 208.412C156.518 208.23 152.059 208.231 147.585 207.942C145.499 207.807 143.246 208.137 141.202 207.781C140.245 207.613 140.383 206.976 139.476 207.535C138.538 208.114 138.943 210.253 138.991 211.106C139.264 216.04 139.558 221.331 142.201 225.644C144.619 229.591 149.377 229.994 153.613 230.187Z" fill="black"/>
<path fill-rule="evenodd" clip-rule="evenodd" d="M334.729 231.547C333.626 231.535 332.523 231.523 331.423 231.512C332.528 231.524 333.629 231.535 334.729 231.547Z" fill="black"/>
<path fill-rule="evenodd" clip-rule="evenodd" d="M28.3486 126.357C28.3507 125.297 28.3531 124.237 28.3555 123.18C28.3534 124.24 28.351 125.299 28.3486 126.357Z" fill="black"/>
<path fill-rule="evenodd" clip-rule="evenodd" d="M309.022 130.709C309.025 131.741 309.029 132.774 309.032 133.804C309.029 132.771 309.026 131.74 309.022 130.709Z" fill="black"/>
<path fill-rule="evenodd" clip-rule="evenodd" d="M217.306 230.375C216.428 230.376 215.55 230.377 214.676 230.38C215.555 230.379 216.43 230.377 217.306 230.375Z" fill="black"/>
<path fill-rule="evenodd" clip-rule="evenodd" d="M270.606 230.165C269.729 230.168 268.851 230.171 267.977 230.174C268.857 230.172 269.731 230.168 270.606 230.165Z" fill="black"/>
<path fill-rule="evenodd" clip-rule="evenodd" d="M78.6839 187.288C78.7223 187.984 78.7614 188.681 78.7998 189.376C78.7611 188.679 78.7223 187.983 78.6839 187.288Z" fill="black"/>
<path fill-rule="evenodd" clip-rule="evenodd" d="M29.672 226.864C30.3503 226.857 31.0287 226.85 31.707 226.843C31.0256 226.558 30.3472 226.571 29.672 226.864Z" fill="black"/>
<path fill-rule="evenodd" clip-rule="evenodd" d="M89.8994 229.95C89.4123 229.943 88.9256 229.935 88.4433 229.927C88.9314 229.934 89.4154 229.942 89.8994 229.95Z" fill="black"/>
<path fill-rule="evenodd" clip-rule="evenodd" d="M28.6133 134.957C28.6013 134.43 28.5893 133.903 28.5773 133.378C28.5893 133.906 28.6013 134.431 28.6133 134.957Z" fill="black"/>
<path fill-rule="evenodd" clip-rule="evenodd" d="M74.145 68.3254C74.1851 67.7821 74.2252 67.2392 74.2656 66.6973C74.2252 67.2409 74.1851 67.7832 74.145 68.3254Z" fill="black"/>
<path fill-rule="evenodd" clip-rule="evenodd" d="M28.373 128.432C28.3665 127.888 28.36 127.343 28.3535 126.801C28.36 127.346 28.3665 127.889 28.373 128.432Z" fill="black"/>
<path fill-rule="evenodd" clip-rule="evenodd" d="M181.485 229.274C181.052 229.281 180.62 229.287 180.19 229.293C180.624 229.286 181.055 229.28 181.485 229.274Z" fill="black"/>
<path fill-rule="evenodd" clip-rule="evenodd" d="M69.9785 230.162C69.5555 230.17 69.1322 230.179 68.713 230.188C69.1377 230.18 69.5579 230.171 69.9785 230.162Z" fill="black"/>
<path fill-rule="evenodd" clip-rule="evenodd" d="M24.2685 191.871C24.299 191.393 24.3296 190.916 24.3594 190.439C24.3289 190.917 24.2987 191.394 24.2685 191.871Z" fill="black"/>
<path fill-rule="evenodd" clip-rule="evenodd" d="M31.8652 230.626C31.5207 230.624 31.1763 230.622 30.8359 230.621C31.1814 230.623 31.5235 230.625 31.8652 230.626Z" fill="black"/>
<path fill-rule="evenodd" clip-rule="evenodd" d="M78.7969 230.184C78.4558 230.176 78.1148 230.167 77.7771 230.159C78.1196 230.168 78.4586 230.176 78.7969 230.184Z" fill="black"/>
<path fill-rule="evenodd" clip-rule="evenodd" d="M155.472 229.924C155.096 229.922 154.721 229.92 154.349 229.917C154.725 229.919 155.098 229.921 155.472 229.924Z" fill="black"/>
<path fill-rule="evenodd" clip-rule="evenodd" d="M242.06 229.922C241.703 229.925 241.346 229.928 240.993 229.931C241.351 229.929 241.705 229.925 242.06 229.922Z" fill="black"/>
<path fill-rule="evenodd" clip-rule="evenodd" d="M263.123 229.979C262.759 229.959 262.396 229.938 262.035 229.918C262.4 229.939 262.761 229.959 263.123 229.979Z" fill="black"/>
<path fill-rule="evenodd" clip-rule="evenodd" d="M162.277 91.2876C162.818 91.241 163.36 91.1943 163.901 91.1474C163.359 91.1854 162.786 90.8646 162.277 91.2876Z" fill="black"/>
<path fill-rule="evenodd" clip-rule="evenodd" d="M24.2172 227.071C24.7513 227.017 25.2853 226.963 25.8193 226.909C25.285 226.963 24.7513 227.017 24.2172 227.071Z" fill="black"/>
<path fill-rule="evenodd" clip-rule="evenodd" d="M61.4676 94.5762C61.5032 95.0441 61.5395 95.5123 61.5752 95.9788C61.5392 95.5102 61.5032 95.043 61.4676 94.5762Z" fill="black"/>
<path fill-rule="evenodd" clip-rule="evenodd" d="M28.2383 114.084C28.2019 113.64 28.1656 113.197 28.1293 112.755C28.1656 113.199 28.2023 113.641 28.2383 114.084Z" fill="black"/>
<path fill-rule="evenodd" clip-rule="evenodd" d="M61.6798 101.834C61.7181 102.301 61.7569 102.768 61.7949 103.234C61.7565 102.766 61.7181 102.3 61.6798 101.834Z" fill="black"/>
<path fill-rule="evenodd" clip-rule="evenodd" d="M28.4656 131.99C28.4691 131.538 28.4725 131.087 28.4756 130.637C28.1842 131.087 28.1959 131.537 28.4656 131.99Z" fill="black"/>
<path fill-rule="evenodd" clip-rule="evenodd" d="M78.6768 196.819C78.681 197.272 78.6847 197.725 78.6895 198.175C78.9884 197.719 78.9288 197.268 78.6768 196.819Z" fill="black"/>
<path fill-rule="evenodd" clip-rule="evenodd" d="M44.6373 144.469C44.6894 144.012 44.7418 143.553 44.7939 143.097C44.7415 143.555 44.6894 144.013 44.6373 144.469Z" fill="black"/>
<path fill-rule="evenodd" clip-rule="evenodd" d="M326.488 102.436C326.842 102.903 327.324 102.583 327.745 102.64C327.326 102.572 326.907 102.504 326.488 102.436Z" fill="black"/>
<path fill-rule="evenodd" clip-rule="evenodd" d="M151.402 208.266C151.849 208.267 152.297 208.267 152.744 208.268C152.296 208.267 151.849 208.266 151.402 208.266Z" fill="black"/>
<path fill-rule="evenodd" clip-rule="evenodd" d="M79.9346 104.358C79.8928 104.738 79.8513 105.119 79.8095 105.498C79.8513 105.117 79.8928 104.737 79.9346 104.358Z" fill="black"/>
<path fill-rule="evenodd" clip-rule="evenodd" d="M301.006 66.5698C301.456 66.5787 301.906 66.5876 302.355 66.5966C301.911 66.3347 301.462 66.2589 301.006 66.5698Z" fill="black"/>
<path fill-rule="evenodd" clip-rule="evenodd" d="M61.6903 108.415C61.7194 108.814 61.7486 109.213 61.7773 109.61C61.7482 109.211 61.7194 108.813 61.6903 108.415Z" fill="black"/>
<path fill-rule="evenodd" clip-rule="evenodd" d="M74.0225 59.4386C73.9875 59.0749 73.9529 58.7112 73.9183 58.3496C73.9532 58.714 73.9875 59.0763 74.0225 59.4386Z" fill="black"/>
<path fill-rule="evenodd" clip-rule="evenodd" d="M77.5575 58.2998C77.5928 58.6943 77.6281 59.0892 77.6631 59.4824C77.6278 59.0872 77.5928 58.6933 77.5575 58.2998Z" fill="black"/>
<path fill-rule="evenodd" clip-rule="evenodd" d="M272.902 31.9434C273.36 31.9989 273.817 32.0544 274.274 32.1096C273.817 32.0541 273.36 31.9989 272.902 31.9434Z" fill="black"/>
<path fill-rule="evenodd" clip-rule="evenodd" d="M305.953 66.8838C306.422 66.9318 306.892 66.9798 307.361 67.0278C306.892 66.9798 306.422 66.9318 305.953 66.8838Z" fill="black"/>
<path fill-rule="evenodd" clip-rule="evenodd" d="M48.6211 68.041C48.5923 67.6739 48.5639 67.3065 48.5354 66.9414C48.5639 67.3089 48.5926 67.6749 48.6211 68.041Z" fill="black"/>
<path fill-rule="evenodd" clip-rule="evenodd" d="M321.366 128.628C321.096 128.632 320.826 128.636 320.559 128.64C320.831 128.636 321.099 128.632 321.366 128.628Z" fill="black"/>
<path fill-rule="evenodd" clip-rule="evenodd" d="M77.5438 173.938C77.5708 174.344 77.5979 174.75 77.625 175.156C77.5976 174.749 77.5705 174.343 77.5438 173.938Z" fill="black"/>
<path fill-rule="evenodd" clip-rule="evenodd" d="M49.9554 94.8249C49.9664 94.4331 49.977 94.0416 49.9883 93.6509C49.9766 94.043 49.966 94.4338 49.9554 94.8249Z" fill="black"/>
<path fill-rule="evenodd" clip-rule="evenodd" d="M261.382 31.0161C261.799 31.0161 262.216 31.0165 262.633 31.0165C262.216 30.7299 261.799 30.7371 261.382 31.0161Z" fill="black"/>
<path fill-rule="evenodd" clip-rule="evenodd" d="M150.012 123.231C150.469 123.242 150.926 123.254 151.382 123.266C150.933 122.948 150.476 122.94 150.012 123.231Z" fill="black"/>
<path fill-rule="evenodd" clip-rule="evenodd" d="M110.082 229.258C109.811 229.264 109.54 229.27 109.273 229.276C109.545 229.271 109.814 229.264 110.082 229.258Z" fill="black"/>
<path fill-rule="evenodd" clip-rule="evenodd" d="M99.8818 229.734C99.6114 229.724 99.3409 229.715 99.0743 229.706C99.3457 229.715 99.6138 229.725 99.8818 229.734Z" fill="black"/>
<path fill-rule="evenodd" clip-rule="evenodd" d="M259.51 229.922C259.228 229.93 258.946 229.937 258.667 229.944C258.95 229.936 259.23 229.93 259.51 229.922Z" fill="black"/>
<path fill-rule="evenodd" clip-rule="evenodd" d="M24.5033 187.338C24.5435 186.951 24.5836 186.563 24.624 186.177C24.5836 186.565 24.5435 186.952 24.5033 187.338Z" fill="black"/>
<path fill-rule="evenodd" clip-rule="evenodd" d="M61.3457 122.041C61.3135 122.41 61.2816 122.779 61.2501 123.146C61.282 122.776 61.3138 122.408 61.3457 122.041Z" fill="black"/>
<path fill-rule="evenodd" clip-rule="evenodd" d="M47.1666 115.702C47.2104 115.311 47.2543 114.919 47.2979 114.529C47.254 114.921 47.2104 115.312 47.1666 115.702Z" fill="black"/>
<path fill-rule="evenodd" clip-rule="evenodd" d="M257.222 230.156C256.937 230.151 256.652 230.147 256.371 230.143C256.657 230.148 256.939 230.152 257.222 230.156Z" fill="black"/>
<path fill-rule="evenodd" clip-rule="evenodd" d="M153.612 230.187C153.335 230.174 153.059 230.162 152.786 230.149C153.063 230.162 153.338 230.174 153.612 230.187Z" fill="black"/>
<path fill-rule="evenodd" clip-rule="evenodd" d="M49.4812 87.1183C49.4939 86.7217 49.5062 86.3251 49.5186 85.9292C49.5059 86.3261 49.4935 86.722 49.4812 87.1183Z" fill="black"/>
<path fill-rule="evenodd" clip-rule="evenodd" d="M284.199 230.414C283.922 230.412 283.644 230.41 283.37 230.408C283.649 230.411 283.924 230.413 284.199 230.414Z" fill="black"/>
<path fill-rule="evenodd" clip-rule="evenodd" d="M49.5977 230.411C49.3125 230.414 49.0269 230.417 48.7452 230.42C49.0321 230.417 49.3149 230.414 49.5977 230.411Z" fill="black"/>
<path fill-rule="evenodd" clip-rule="evenodd" d="M43.4355 230.378C43.16 230.397 42.8847 230.417 42.6125 230.436C42.8892 230.417 43.1624 230.397 43.4355 230.378Z" fill="black"/>
<path fill-rule="evenodd" clip-rule="evenodd" d="M40.9473 230.372C40.6669 230.38 40.3861 230.389 40.1092 230.395C40.3906 230.386 40.6689 230.379 40.9473 230.372Z" fill="black"/>
<path fill-rule="evenodd" clip-rule="evenodd" d="M28.1698 117.275C28.1883 116.884 28.2064 116.494 28.2246 116.105C28.2061 116.496 28.1883 116.885 28.1698 117.275Z" fill="black"/>
<path fill-rule="evenodd" clip-rule="evenodd" d="M216.467 225.259C215.614 225.215 214.76 225.171 213.907 225.126C214.76 225.171 215.614 225.215 216.467 225.259Z" fill="black"/>
<path fill-rule="evenodd" clip-rule="evenodd" d="M267.948 83.4209C267.208 83.4853 266.467 83.5498 265.727 83.6135C266.467 83.5494 267.208 83.485 267.948 83.4209Z" fill="black"/>
<path fill-rule="evenodd" clip-rule="evenodd" d="M58.8057 115.625C58.7827 116.331 58.759 117.038 58.7361 117.743C58.7594 117.036 58.7827 116.33 58.8057 115.625Z" fill="black"/>
<path fill-rule="evenodd" clip-rule="evenodd" d="M43.5186 226.468C42.7453 226.515 41.9723 226.562 41.199 226.609C41.9771 226.644 42.7669 226.866 43.5186 226.468Z" fill="black"/>
<path fill-rule="evenodd" clip-rule="evenodd" d="M48.0947 142.863C48.0889 142.189 48.0831 141.514 48.0776 140.842C48.0834 141.516 48.0889 142.19 48.0947 142.863Z" fill="black"/>
<path fill-rule="evenodd" clip-rule="evenodd" d="M50.0742 164.047C49.3959 164.056 48.7168 164.066 48.0388 164.074C48.7175 164.065 49.3959 164.056 50.0742 164.047Z" fill="black"/>
<path fill-rule="evenodd" clip-rule="evenodd" d="M220.872 152.194C220.889 152.708 220.906 153.221 220.922 153.733C220.905 153.218 220.888 152.706 220.872 152.194Z" fill="black"/>
<path fill-rule="evenodd" clip-rule="evenodd" d="M38.7817 130.436C38.8094 130.947 38.8372 131.458 38.8643 131.967C38.8362 131.455 38.8087 130.945 38.7817 130.436Z" fill="black"/>
<path fill-rule="evenodd" clip-rule="evenodd" d="M53.2568 224.193C52.7632 224.159 52.2696 224.126 51.7771 224.094C52.1483 224.391 52.5216 224.416 53.2568 224.193Z" fill="black"/>
<path fill-rule="evenodd" clip-rule="evenodd" d="M56.5596 157.353C56.5256 157.904 56.4917 158.455 56.4581 159.004C56.4921 158.453 56.5256 157.903 56.5596 157.353Z" fill="black"/>
<path fill-rule="evenodd" clip-rule="evenodd" d="M241.114 70.3547C241.109 69.8224 241.104 69.29 241.098 68.7598C241.104 69.2928 241.109 69.8237 241.114 70.3547Z" fill="black"/>
<path fill-rule="evenodd" clip-rule="evenodd" d="M55.9619 164.158L54.1222 164.118C54.7293 164.411 55.3425 164.421 55.9619 164.158Z" fill="black"/>
<path fill-rule="evenodd" clip-rule="evenodd" d="M38.9897 168.087C39.4236 168.091 39.8572 168.094 40.2881 168.099C39.8531 168.095 39.4212 168.091 38.9897 168.087Z" fill="black"/>
<path fill-rule="evenodd" clip-rule="evenodd" d="M197.856 224.403C197.256 224.411 196.655 224.419 196.055 224.427C196.66 224.73 197.261 224.773 197.856 224.403Z" fill="black"/>
<path fill-rule="evenodd" clip-rule="evenodd" d="M310.981 226.174C310.372 226.119 309.762 226.065 309.153 226.01C309.762 226.065 310.372 226.119 310.981 226.174Z" fill="black"/>
<path fill-rule="evenodd" clip-rule="evenodd" d="M58.5947 120.164C58.5649 120.717 58.5351 121.271 58.5053 121.822C58.5351 121.268 58.5649 120.716 58.5947 120.164Z" fill="black"/>
<path fill-rule="evenodd" clip-rule="evenodd" d="M253.132 84.72C252.618 84.4667 252.1 84.4242 251.577 84.6926C252.096 84.7018 252.614 84.7111 253.132 84.72Z" fill="black"/>
<path fill-rule="evenodd" clip-rule="evenodd" d="M75.4014 126.553C75.3589 127.019 75.3164 127.486 75.2739 127.951C75.3167 127.484 75.3589 127.018 75.4014 126.553Z" fill="black"/>
<path fill-rule="evenodd" clip-rule="evenodd" d="M31.9975 115.664C32.2614 115.207 32.2522 114.753 31.9845 114.303C31.9889 114.757 31.993 115.21 31.9975 115.664Z" fill="black"/>
<path fill-rule="evenodd" clip-rule="evenodd" d="M40.0908 163.827C39.5619 163.664 39.033 163.435 38.5065 163.832C39.0347 163.83 39.5626 163.828 40.0908 163.827Z" fill="black"/>
<path fill-rule="evenodd" clip-rule="evenodd" d="M211 225.05C210.468 225 209.936 224.951 209.404 224.901C209.936 224.951 210.468 225 211 225.05Z" fill="black"/>
<path fill-rule="evenodd" clip-rule="evenodd" d="M283.957 225.051C283.47 224.837 282.983 224.725 282.503 225.068C282.988 225.062 283.472 225.057 283.957 225.051Z" fill="black"/>
<path fill-rule="evenodd" clip-rule="evenodd" d="M184.257 224.364C183.735 224.136 183.215 224.011 182.701 224.38C183.22 224.375 183.738 224.369 184.257 224.364Z" fill="black"/>
<path fill-rule="evenodd" clip-rule="evenodd" d="M300.282 156.931C300.243 157.402 300.204 157.872 300.165 158.342C300.204 157.871 300.243 157.401 300.282 156.931Z" fill="black"/>
<path fill-rule="evenodd" clip-rule="evenodd" d="M179.275 129.824C178.763 129.637 178.252 129.54 177.748 129.851C178.257 129.842 178.766 129.833 179.275 129.824Z" fill="black"/>
<path fill-rule="evenodd" clip-rule="evenodd" d="M58.6016 143.833C58.5731 144.293 58.5447 144.754 58.5166 145.212C58.545 144.752 58.5735 144.293 58.6016 143.833Z" fill="black"/>
<path fill-rule="evenodd" clip-rule="evenodd" d="M300.613 102.326C300.656 102.696 300.698 103.067 300.74 103.436C300.698 103.064 300.656 102.695 300.613 102.326Z" fill="black"/>
<path fill-rule="evenodd" clip-rule="evenodd" d="M330.337 209.782C330.363 210.143 330.389 210.503 330.415 210.862C330.388 210.501 330.362 210.141 330.337 209.782Z" fill="black"/>
<path fill-rule="evenodd" clip-rule="evenodd" d="M47.8677 146.268C47.8965 145.895 47.9253 145.522 47.9541 145.151C47.9253 145.525 47.8965 145.896 47.8677 146.268Z" fill="black"/>
<path fill-rule="evenodd" clip-rule="evenodd" d="M85.2119 223.667C84.755 223.671 84.2981 223.674 83.8415 223.677C84.2984 223.674 84.7553 223.671 85.2119 223.667Z" fill="black"/>
<path fill-rule="evenodd" clip-rule="evenodd" d="M221.045 155.367C220.96 155.639 220.875 155.91 220.789 156.182C221.359 156.32 221.445 156.048 221.045 155.367Z" fill="black"/>
<path fill-rule="evenodd" clip-rule="evenodd" d="M186.784 129.21C186.32 129.208 185.856 129.207 185.392 129.205C185.855 129.425 186.319 129.576 186.784 129.21Z" fill="black"/>
<path fill-rule="evenodd" clip-rule="evenodd" d="M300.021 159.159C300.006 159.571 299.99 159.982 299.975 160.392C299.991 159.98 300.006 159.57 300.021 159.159Z" fill="black"/>
<path fill-rule="evenodd" clip-rule="evenodd" d="M295.111 225.502C294.663 225.501 294.216 225.501 293.768 225.5C294.216 225.501 294.663 225.501 295.111 225.502Z" fill="black"/>
<path fill-rule="evenodd" clip-rule="evenodd" d="M74.2744 163.497C74.258 163.876 74.2412 164.255 74.2244 164.631C74.2405 164.252 74.2576 163.874 74.2744 163.497Z" fill="black"/>
<path fill-rule="evenodd" clip-rule="evenodd" d="M304.622 225.963C304.182 225.671 303.74 225.696 303.298 225.959C303.739 225.96 304.181 225.962 304.622 225.963Z" fill="black"/>
<path fill-rule="evenodd" clip-rule="evenodd" d="M293.024 97.0342C293.001 97.4208 292.977 97.8078 292.952 98.1921C292.976 97.8047 293 97.4195 293.024 97.0342Z" fill="black"/>
<path fill-rule="evenodd" clip-rule="evenodd" d="M306.914 226.003C306.456 226.005 305.998 226.007 305.541 226.009C306 226.321 306.457 226.336 306.914 226.003Z" fill="black"/>
<path fill-rule="evenodd" clip-rule="evenodd" d="M53.335 90.9652C53.3312 90.5723 53.3278 90.1799 53.3243 89.7881C53.3281 90.1812 53.3315 90.573 53.335 90.9652Z" fill="black"/>
<path fill-rule="evenodd" clip-rule="evenodd" d="M263.574 84.0957C263.136 84.1529 262.698 84.2102 262.26 84.2671C262.698 84.2098 263.136 84.1529 263.574 84.0957Z" fill="black"/>
<path fill-rule="evenodd" clip-rule="evenodd" d="M302.231 117.996C302.226 118.362 302.22 118.729 302.213 119.095C302.219 118.727 302.225 118.361 302.231 117.996Z" fill="black"/>
<path fill-rule="evenodd" clip-rule="evenodd" d="M50.385 117.943C50.409 117.57 50.433 117.196 50.457 116.824C50.433 117.199 50.4087 117.571 50.385 117.943Z" fill="black"/>
<path fill-rule="evenodd" clip-rule="evenodd" d="M152.557 225.565C152.016 225.614 151.476 225.663 150.935 225.712C151.476 225.663 152.016 225.614 152.557 225.565Z" fill="black"/>
<path fill-rule="evenodd" clip-rule="evenodd" d="M154.362 211.571C154.654 211.576 154.946 211.581 155.235 211.587C154.942 211.583 154.652 211.577 154.362 211.571Z" fill="black"/>
<path fill-rule="evenodd" clip-rule="evenodd" d="M154.337 225.351C153.884 225.395 153.43 225.44 152.977 225.485C153.43 225.44 153.884 225.395 154.337 225.351Z" fill="black"/>
<path fill-rule="evenodd" clip-rule="evenodd" d="M235.926 194.821C235.336 198.154 240.516 201.414 240.926 196.676C241.076 194.943 239.918 193.725 238.62 192.666C236.779 191.163 235.75 192.602 235.926 194.821Z" fill="black"/>
<path fill-rule="evenodd" clip-rule="evenodd" d="M293.022 154.155C291.802 154.654 282.479 157.692 287.321 159.22C288.603 159.625 290.541 159.685 291.652 158.972C292.989 158.115 294.337 155.584 293.022 154.155Z" fill="black"/>
<path fill-rule="evenodd" clip-rule="evenodd" d="M290.728 109.017C287.563 108.649 284.647 113.847 288.549 113.678C291.389 113.555 295.208 109.017 290.728 109.017Z" fill="black"/>
<path fill-rule="evenodd" clip-rule="evenodd" d="M279.407 121.761C276.765 124.066 281.663 129.226 283.607 127.229C284.6 126.209 283.684 124.011 282.865 123.158C282.024 122.282 280.527 122.118 279.407 121.761Z" fill="black"/>
<path fill-rule="evenodd" clip-rule="evenodd" d="M271.54 181.53C273.1 181.778 279.96 184.019 278.53 179.948C277.984 178.395 276.462 178.855 275.071 178.927C272.828 179.041 271.54 178.934 271.54 181.53Z" fill="black"/>
<path fill-rule="evenodd" clip-rule="evenodd" d="M276.059 192.018C273.724 193.267 277.138 200.259 279.073 198.771C281.759 196.707 278.086 192.646 276.059 192.018Z" fill="black"/>
<path fill-rule="evenodd" clip-rule="evenodd" d="M265.875 186.397C264.739 185.933 259.386 191.082 261.424 192.514C262.468 193.249 264.447 191.99 265.077 191.231C266.257 189.808 266.364 188.052 265.875 186.397Z" fill="black"/>
<path fill-rule="evenodd" clip-rule="evenodd" d="M296.759 144.31C295.598 144.501 293.594 144.561 293.519 146.192C293.454 147.625 295.251 148.09 296.516 148.202C297.829 148.319 299.567 147.948 299.592 146.298C299.618 144.517 296.8 144.624 296.759 144.31Z" fill="black"/>
<path fill-rule="evenodd" clip-rule="evenodd" d="M268.139 215.281C266.903 216.032 261.137 218.733 263.609 220.685C264.534 221.416 267.337 219.907 267.968 219.14C268.721 218.225 269.457 216.081 268.139 215.281Z" fill="black"/>
<path fill-rule="evenodd" clip-rule="evenodd" d="M252.111 195.677C252.29 192.695 247.258 191.508 248.302 195.741C248.596 196.935 248.88 198.746 250.356 198.815C252.1 198.897 252.163 196.834 252.111 195.677Z" fill="black"/>
<path fill-rule="evenodd" clip-rule="evenodd" d="M267.653 143.818C267.618 146.08 271.953 148.075 271.986 144.489C272.016 141.285 267.491 140.347 267.653 143.818Z" fill="black"/>
<path fill-rule="evenodd" clip-rule="evenodd" d="M270.515 132.037C269.447 132.381 268.028 132.558 267.934 133.916C267.834 135.352 269.168 135.991 270.369 135.91C271.353 135.844 272.81 135.116 272.989 134.047C273.251 132.48 271.721 132.377 270.515 132.037Z" fill="black"/>
<path fill-rule="evenodd" clip-rule="evenodd" d="M290.376 173.454C290.394 171.588 286.653 169.344 285.964 171.51C285.744 172.203 287.507 175.311 288.093 175.544C289.645 176.16 289.862 174.724 290.376 173.454Z" fill="black"/>
<path fill-rule="evenodd" clip-rule="evenodd" d="M259.721 204.525C260.985 205.657 264.777 208.835 264.494 204.568C264.313 201.843 259.387 201.985 259.721 204.525Z" fill="black"/>
<path fill-rule="evenodd" clip-rule="evenodd" d="M197.938 216.72C197.523 214.925 191.591 218.038 193.57 220.304C194.235 221.065 195.972 220.376 196.64 219.925C197.962 219.033 197.991 218.21 197.938 216.72Z" fill="black"/>
<path fill-rule="evenodd" clip-rule="evenodd" d="M230.993 178.315C230.762 177.516 230.505 176.101 229.742 175.591C228.361 174.668 227.159 176.061 227.159 177.529C227.158 180.267 230.276 181.131 230.993 178.315Z" fill="black"/>
<path fill-rule="evenodd" clip-rule="evenodd" d="M245.698 210.338C244.158 210.691 240.728 214.435 242.717 215.963C244.631 217.433 247.177 211.456 245.698 210.338Z" fill="black"/>
<path fill-rule="evenodd" clip-rule="evenodd" d="M244.231 181.994C242.251 182.152 239.529 185.359 242.607 185.869C245.015 186.268 247.815 182.78 244.231 181.994Z" fill="black"/>
<path fill-rule="evenodd" clip-rule="evenodd" d="M226.301 196.753C225.804 195.08 220.892 196.873 221.168 198.715C221.315 199.694 223.323 199.924 224.379 199.665C225.933 199.284 226.336 198.264 226.301 196.753Z" fill="black"/>
<path fill-rule="evenodd" clip-rule="evenodd" d="M284.2 103.311C284.164 101.148 280.008 100.266 279.704 102.446C279.428 104.415 284.252 106.51 284.2 103.311Z" fill="black"/>
<path fill-rule="evenodd" clip-rule="evenodd" d="M227.674 219.04C227.374 217.952 227.245 216.643 225.887 216.5C224.331 216.335 224.377 217.528 224.56 218.764C225.057 222.127 226.958 222.295 227.674 219.04Z" fill="black"/>
<path fill-rule="evenodd" clip-rule="evenodd" d="M293.306 129.045C295.473 129.534 299.441 125.361 297.016 124.465C295.307 123.834 293.306 127.786 293.306 129.045Z" fill="black"/>
<path fill-rule="evenodd" clip-rule="evenodd" d="M265.671 161.459C266.774 161.978 267.028 162.293 267.875 161.441C268.612 160.699 268.58 158.632 267.947 157.86C265.522 154.904 265.579 160.263 265.671 161.459Z" fill="black"/>
<path fill-rule="evenodd" clip-rule="evenodd" d="M256.675 155.464C255.525 155.61 252.108 158.851 253.887 160.14C256.068 161.718 257.301 156.774 256.675 155.464Z" fill="black"/>
<path fill-rule="evenodd" clip-rule="evenodd" d="M231.794 156.317C232.63 159.536 234.717 157.37 234.599 154.934C234.409 151.032 232.247 154.43 231.794 156.317Z" fill="black"/>
<path fill-rule="evenodd" clip-rule="evenodd" d="M219.107 208.016C217.693 208.601 215.774 214.007 217.794 214.297C220.062 214.623 219.307 209.142 219.107 208.016Z" fill="black"/>
<path fill-rule="evenodd" clip-rule="evenodd" d="M236.769 204.978C235.151 204.432 234.558 207.846 235.498 208.48C237.568 209.875 237.131 205.784 236.769 204.978Z" fill="black"/>
<path fill-rule="evenodd" clip-rule="evenodd" d="M252.111 195.676C252.131 196.129 252.152 196.583 252.173 197.033C252.153 196.579 252.132 196.128 252.111 195.676Z" fill="black"/>
<path fill-rule="evenodd" clip-rule="evenodd" d="M197.938 216.72C197.955 217.185 197.972 217.649 197.989 218.112C197.973 217.646 197.956 217.183 197.938 216.72Z" fill="black"/>
<path fill-rule="evenodd" clip-rule="evenodd" d="M226.3 196.753C226.309 197.148 226.319 197.542 226.329 197.934C226.32 197.538 226.31 197.146 226.3 196.753Z" fill="black"/>
<path fill-rule="evenodd" clip-rule="evenodd" d="M47.3057 189.969C43.9506 189.862 40.2079 188.599 36.9111 189.001C36.0035 189.111 33.9142 189.34 35.3683 190.686C36.0638 191.33 39.3931 190.997 40.4009 191.21C46.5609 192.515 53.5534 193.356 59.8697 193.247C62.8265 193.196 65.8052 192.96 68.7606 192.803C71.7139 192.647 72.0043 191.447 68.6811 191.065C65.2297 190.669 61.6881 190.816 58.2196 190.812C54.5732 190.807 50.9449 190.213 47.3057 189.969Z" fill="black"/>
<path fill-rule="evenodd" clip-rule="evenodd" d="M39.9391 181.886C40.262 182.805 40.5455 184.916 41.7829 185.054C43.5159 185.248 43.8028 182.272 43.7391 181.184C43.6616 179.87 43.1889 177.688 41.5563 178.143C40.1773 178.527 40.0392 180.835 39.9391 181.886Z" fill="black"/>
<path fill-rule="evenodd" clip-rule="evenodd" d="M50.4307 181.213C50.1774 180.228 50.0529 178.008 48.6606 177.933C47.1044 177.849 46.6598 180.162 46.6701 181.27C46.6804 182.322 47.0694 184.309 48.3086 184.552C49.9885 184.881 50.1386 182.338 50.4307 181.213Z" fill="black"/>
<path fill-rule="evenodd" clip-rule="evenodd" d="M67.9042 182.979C68.4085 184.162 68.742 185.792 70.3023 184.985C71.5089 184.361 71.6772 181.845 71.4496 180.693C71.2137 179.499 70.7143 178.13 69.3429 178.667C67.7613 179.286 67.921 181.676 67.9042 182.979Z" fill="black"/>
<path fill-rule="evenodd" clip-rule="evenodd" d="M54.6726 181.886C56.1599 186.394 58.8726 183.344 57.8426 179.978C56.7656 176.459 54.8094 179.877 54.6726 181.886Z" fill="black"/>
<path fill-rule="evenodd" clip-rule="evenodd" d="M61.9194 182.109C62.3324 182.903 62.7719 184.615 63.8852 184.435C65.2501 184.214 65.294 181.587 65.1442 180.609C65.0136 179.752 64.629 178.325 63.4866 178.344C61.8358 178.371 61.9465 181.081 61.9194 182.109Z" fill="black"/>
<path fill-rule="evenodd" clip-rule="evenodd" d="M32.2511 182.974C33.3583 185.458 34.8812 183.319 34.3938 181.554C33.6709 178.938 32.3138 181.256 32.2511 182.974Z" fill="black"/>
<path fill-rule="evenodd" clip-rule="evenodd" d="M59.3666 190.815C60.5755 190.811 61.7852 190.806 62.9941 190.802C61.7842 190.574 60.5742 190.485 59.3666 190.815Z" fill="black"/>
<path fill-rule="evenodd" clip-rule="evenodd" d="M35.3368 188.991C36.3857 188.998 37.4342 189.004 38.4824 189.011C37.4356 188.697 36.387 188.69 35.3368 188.991Z" fill="black"/>
<path fill-rule="evenodd" clip-rule="evenodd" d="M47.3056 189.969C48.145 190.025 48.9841 190.082 49.8232 190.138C48.9838 190.082 48.1447 190.025 47.3056 189.969Z" fill="black"/>
<path fill-rule="evenodd" clip-rule="evenodd" d="M67.9048 182.978C67.9123 182.376 67.9205 181.773 67.9277 181.172C67.6175 181.771 67.6391 182.373 67.9048 182.978Z" fill="black"/>
<path fill-rule="evenodd" clip-rule="evenodd" d="M61.3252 193.234C60.8385 193.239 60.3517 193.243 59.8691 193.247C60.3572 193.243 60.8412 193.239 61.3252 193.234Z" fill="black"/>
<path fill-rule="evenodd" clip-rule="evenodd" d="M65.4564 190.867C66.1419 190.923 66.8275 190.979 67.5127 191.035C66.8271 190.979 66.1419 190.923 65.4564 190.867Z" fill="black"/>
<path fill-rule="evenodd" clip-rule="evenodd" d="M56.1882 190.808C56.8651 190.809 57.5418 190.81 58.2188 190.812C57.5421 190.527 56.8655 190.518 56.1882 190.808Z" fill="black"/>
<path fill-rule="evenodd" clip-rule="evenodd" d="M61.9188 182.109C61.9356 181.481 61.952 180.853 61.9678 180.226C61.951 180.854 61.9349 181.482 61.9188 182.109Z" fill="black"/>
<path fill-rule="evenodd" clip-rule="evenodd" d="M71.4496 180.693C71.4533 181.305 71.4571 181.918 71.4619 182.528C71.4581 181.915 71.454 181.304 71.4496 180.693Z" fill="black"/>
<path fill-rule="evenodd" clip-rule="evenodd" d="M43.4585 189.741C44.057 189.795 44.6551 189.849 45.2529 189.903C44.6544 189.849 44.0563 189.795 43.4585 189.741Z" fill="black"/>
<path fill-rule="evenodd" clip-rule="evenodd" d="M32.2516 182.975C32.2712 182.44 32.2904 181.905 32.3096 181.37C32.29 181.906 32.2712 182.44 32.2516 182.975Z" fill="black"/>
<path fill-rule="evenodd" clip-rule="evenodd" d="M57.71 193.252C57.2935 193.244 56.877 193.236 56.4647 193.229C56.8825 193.237 57.2962 193.245 57.71 193.252Z" fill="black"/>
<path fill-rule="evenodd" clip-rule="evenodd" d="M39.9391 181.886C39.9758 181.502 40.0125 181.117 40.0488 180.733C40.0122 181.119 39.9755 181.502 39.9391 181.886Z" fill="black"/>
<path fill-rule="evenodd" clip-rule="evenodd" d="M54.6734 181.886C54.7001 181.491 54.7272 181.096 54.7539 180.702C54.7268 181.097 54.7001 181.491 54.6734 181.886Z" fill="black"/>
<path fill-rule="evenodd" clip-rule="evenodd" d="M269.467 65.8474C271.105 65.4175 271.412 63.1155 271.149 61.7015C270.85 61.0201 270.552 60.339 270.253 59.6576C270.37 59.4056 270.487 59.1537 270.603 58.9018C270.453 57.4984 270.836 56.8886 269.224 57.457C266.228 58.5134 265.749 65.7391 269.467 65.8474Z" fill="black"/>
<path fill-rule="evenodd" clip-rule="evenodd" d="M245.219 61.3957C243.869 61.2895 241.418 62.8611 242.761 64.3816C243.594 65.3236 246.336 64.878 247.455 65.0747C248.939 65.3356 250.486 65.6924 249.684 63.4699C249.053 61.7244 246.802 61.3501 245.219 61.3957Z" fill="black"/>
<path fill-rule="evenodd" clip-rule="evenodd" d="M246.639 71.8498C248.009 70.7505 247.398 65.7437 245.312 66.6445C243.165 67.5717 245.495 71.1273 246.639 71.8498Z" fill="black"/>
<path fill-rule="evenodd" clip-rule="evenodd" d="M271.149 61.7007C271.149 62.2275 271.149 62.7547 271.15 63.2792C271.436 62.7513 271.427 62.2258 271.149 61.7007Z" fill="black"/>
<path fill-rule="evenodd" clip-rule="evenodd" d="M269.467 65.847C269.187 65.8392 268.908 65.8309 268.632 65.8237C268.913 65.8326 269.189 65.8398 269.467 65.847Z" fill="black"/>
<path fill-rule="evenodd" clip-rule="evenodd" d="M100.211 210.04C100.339 212.317 102.785 210.634 102.611 209.11C102.296 206.345 100.733 209.077 100.211 210.04Z" fill="black"/>
</svg>
