<svg width="220" height="266" viewBox="0 0 220 266" fill="none" xmlns="http://www.w3.org/2000/svg">
<path fill-rule="evenodd" clip-rule="evenodd" d="M126.671 36.7102C128.093 36.5492 128.296 38.5914 128.49 39.5224C129.038 39.1562 129.526 39.5063 129.65 38.6511C131.384 40.5744 132.773 42.782 134.312 44.8715C135.789 46.8762 138.098 48.4706 139.375 50.5781C140.459 52.3671 138.67 55.0836 138.449 56.9915C138.2 59.1416 138.73 61.6023 140.117 63.2415C140.766 64.0081 141.559 64.5406 142.518 64.7465C143.472 64.9513 144.379 64.3591 145.219 64.4851C145.916 64.5897 145.946 65.0773 146.189 65.8018C146.522 66.7957 146.947 67.7341 147.733 68.4323C148.613 69.212 149.557 69.4373 150.228 70.4851C150.813 71.3994 151.145 72.2848 152.052 72.9196C153.264 73.7666 155.207 74.0225 155.075 76.0003C155.284 75.8252 155.492 75.6501 155.7 75.4748C156.183 77.1174 156.847 78.7077 157.556 80.2522C157.889 80.9759 158.06 81.3604 158.043 82.1657C158.031 82.6961 157.756 83.0974 158.053 83.6108C158.528 84.4327 159.799 84.3212 160.379 84.9858C160.974 85.6671 160.357 86.5915 161.044 87.1853C160.754 87.2795 159.952 87.9655 160.254 88.3822C160.688 88.9813 160.72 88.1606 161.024 88.2594C161.723 88.4858 161.575 89.4086 162.12 89.6594C162.232 89.7111 162.224 89.1581 162.218 89.0157L162.217 89.0104L162.638 89.8793C166.178 97.1335 170.328 104.044 173.664 111.403L174.06 112.288C180.342 126.504 187.81 140.346 196.068 153.385C198.016 156.461 200.154 159.516 201.955 162.68C203.765 165.859 206.021 168.678 208.023 171.718C210.082 174.845 211.967 178.101 214.043 181.214C215.698 183.697 217.722 186.34 217.695 189.542C217.683 190.965 217.487 192.536 216.192 193.301C216.161 192.714 215.322 193.363 215.122 193.507C214.257 194.131 214.727 194.062 213.794 193.844C212.28 193.49 210.988 193.969 209.587 193.058C206.617 191.126 203.689 189.139 200.666 187.296C194.13 183.311 187.66 179.231 181.597 174.469C170.998 166.144 159.484 158.684 149.744 149.214C140.011 139.752 126.797 134.47 115.248 127.549C114.473 127.085 112.255 126.389 112.459 125.283C112.638 124.313 114.634 122.954 115.334 122.282C117.763 119.952 120.293 117.747 122.636 115.317C126.961 110.831 131.255 105.88 134.725 100.616C136.412 98.0553 137.274 95.2074 138.259 92.296C139.129 89.7261 139.932 86.5623 138.521 84.0198C137.867 82.842 136.965 82.3643 135.703 82.4537C134.659 82.5276 134.706 82.754 134.292 81.5811C133.846 80.3186 133.483 78.8536 132.288 78.1227C131.049 77.3653 130.206 78.1729 129.203 78.931C128.049 77.167 129.634 75.1415 127.307 74.9727C124.878 74.7965 120.499 76.9466 119.66 78.8573C117.18 84.507 113.953 89.7846 110.482 94.8158C106.721 100.269 105.875 101.711 101.73 106.846C100.852 107.933 99.8559 109.52 98.6194 110.179C97.3511 110.856 96.2986 110.221 95.2265 109.442C92.6999 107.607 90.2428 105.723 87.6125 104.043C84.6989 102.183 81.7036 100.478 78.7321 98.7253C77.4213 97.9521 76.1774 97.0208 74.8265 96.3263C73.568 95.679 72.1972 95.3586 70.9088 94.7922C75.64 93.2989 80.6235 95.2552 85.1016 96.8068C87.4259 97.6121 89.8563 98.4505 92.3378 98.234C94.484 98.047 96.4316 96.8303 98.1291 95.5017C101.198 93.0999 101.439 89.4922 100.438 85.8459C99.2867 81.649 97.5255 77.6127 96.1948 73.4731C95.5897 71.5903 95.1729 69.5905 96.5504 67.9635C97.7832 66.5078 99.3785 66.3285 101.061 66.9016C105.141 68.2915 108.76 69.5965 113.133 69.4645C116.553 69.3615 120.902 68.3342 123.205 65.3924C124.468 63.78 124.516 61.563 124.521 59.5629C124.527 57.1926 124.386 54.8088 124.073 52.4623C123.514 48.2753 122.063 44.0828 123.882 40.0175C124.308 39.0641 125.496 36.8433 126.671 36.7102ZM162.217 88.9968L162.217 89.0104L162.216 89.0071C162.215 88.9768 162.216 88.9765 162.217 88.9968ZM18.7036 71.3967C19.7726 69.831 22.6979 66.1853 24.9314 66.983C25.3214 67.1224 25.6033 67.5341 25.8604 67.8406C26.0425 68.0912 26.2232 68.3428 26.4026 68.5958C26.5139 68.9282 26.7139 69.0262 27.0027 68.8901C27.786 70.0385 28.8913 70.9056 29.3416 72.3162C29.7874 73.7137 30.9845 75.0689 31.6904 76.3508C32.2365 77.3422 33.4678 79.9889 33.3735 81.2287V84.393C33.2623 85.623 31.0906 87.8232 30.327 88.6551C28.4307 90.7216 26.3709 90.986 23.5606 90.7224C21.1799 90.4989 18.0965 89.6587 16.4848 87.6555C14.9381 85.7333 14.9601 82.7544 15.1889 80.3872C15.5086 77.0815 16.8783 74.0701 18.7036 71.3967ZM26.0286 71.9213C25.5928 71.0642 24.6391 70.8524 23.8012 70.9541C22.9637 71.0555 22.0024 71.13 21.2344 71.5256C20.5252 71.8912 20.1662 72.5312 19.2823 72.3162C19.6323 72.955 19.005 73.3241 18.9146 73.8997C18.7985 74.6391 19.0236 75.3019 19.4851 75.8631C20.4403 77.0253 21.8671 77.0027 23.1947 77.116C24.3171 77.2117 25.6977 77.4085 26.3572 78.5219C26.7825 79.2399 26.3967 79.7572 26.596 80.4783C26.7426 81.0096 27.3558 81.3149 27.624 81.771C28.5223 80.3712 28.4908 77.3724 27.943 75.8755C27.6841 75.1685 27.1947 74.2479 26.8069 73.6268C26.6801 73.4235 26.3804 73.181 26.3007 73.0131C26.1628 72.7231 26.1793 72.2172 26.0286 71.9213Z" fill="#F4E2E1"/>
<path fill-rule="evenodd" clip-rule="evenodd" d="M130.747 258.634C132.372 257.962 134.376 258.276 136.08 258.308C138.219 258.349 140.364 258.521 142.497 258.698C146.593 259.037 150.668 258.894 154.768 259.299C156.803 259.5 158.84 259.686 160.877 259.87C162.66 260.031 164.731 260.531 166.511 260.171C167.246 260.022 169.23 259.29 168.862 258.151C168.579 257.271 166.345 256.729 165.618 256.479C163.906 255.89 162.139 255.468 160.409 254.943C159.52 254.673 158.635 254.383 157.699 254.477C156.905 254.556 156.069 255.184 155.264 255.111C154.074 255.005 153.461 253.423 152.588 252.725C151.199 251.614 150.168 252.208 149.103 253.432C148.315 254.338 147.565 255.707 146.272 255.788C144.628 255.892 144.308 254.399 145.034 253.133C145.702 251.968 147.522 250.772 147.619 249.319C147.681 248.4 146.293 245.943 145.495 245.593C144.152 245.005 142.253 246.561 141.039 247.039C138.918 247.873 136.754 248.611 134.606 249.364C133.138 249.879 130.958 249.925 130.681 251.746C130.334 254.027 130.757 256.344 130.747 258.634ZM46.6981 223.568C47.1251 222.567 47.5736 221.997 46.7199 221.067C46.2426 220.548 45.5694 220.292 45.0995 219.753C44.3939 218.942 43.2876 216.727 44.8008 216.17C46.247 215.636 47.4654 217.767 48.6294 218.236C50.1064 218.83 51.0218 217.833 51.233 216.339C51.5045 214.419 51.206 212.413 51.4224 210.469C51.6343 208.563 52.2631 206.981 52.7456 205.156C53.0726 203.919 53.4728 202.673 51.9889 202.399C50.6281 202.148 49.0496 202.746 47.6696 202.826C45.5173 202.951 43.3394 203.066 41.205 203.408C38.8219 203.789 38.8653 206.369 38.2669 208.478C36.8164 213.591 34.8712 218.608 33.9655 223.879C33.5748 226.152 34.6101 227.709 35.8151 229.496C37.3237 231.733 38.8931 233.965 40.6017 236.038C41.7426 237.422 43.028 238.712 44.6895 239.348C46.5716 240.069 47.2908 239.268 46.8566 237.305C46.2833 234.712 45.4183 232.208 45.5202 229.508C45.5574 228.525 45.8276 227.468 45.1579 226.645C44.6935 226.075 43.8977 225.882 43.2917 225.535C42.2925 224.962 40.7445 223.119 42.6912 222.722C44.0133 222.453 45.4183 223.394 46.6981 223.568ZM91.6535 122.018C92.8415 123.422 94.1326 124.765 95.2589 126.224C95.9047 127.061 96.3622 128.067 97.0552 128.859C98.573 130.596 100.085 128.672 101.429 127.547C106.715 123.123 111.689 118.328 116.726 113.593C119.125 111.337 121.678 109.256 124.039 106.957C126.431 104.629 128.423 101.902 130.664 99.4209C131.74 98.2295 133.028 97.0476 133.693 95.5257C134.259 94.2277 134.385 92.8156 135.03 91.5321C136.149 89.3096 138.199 86.7293 137.729 84.0411C136.344 85.578 134.038 91.0854 131.622 88.5026C129.897 86.6591 131.659 83.9341 131.582 81.7847C129.945 82.5201 130.37 85.503 128.625 86.0307C127.68 86.3162 126.873 85.4113 126.433 84.6179C125.671 83.2463 125.951 81.8107 126.296 80.3556C126.532 79.3642 128.036 76.0937 126.549 75.6902C125.26 75.3405 124.18 77.8499 123.752 78.7391C122.969 80.3696 122.364 82.0561 121.504 83.6512C120.022 86.4018 118.314 89.0294 116.687 91.6852C113.334 97.1548 109.511 102.289 105.579 107.302C101.378 112.657 96.8318 117.706 91.6535 122.018ZM128.894 139.414C128.724 144.232 124.814 147.886 121.43 150.565C117.106 153.988 113.118 157.88 107.961 159.828C105.975 160.578 103.496 160.362 102.701 162.728C102.39 163.653 102.672 163.993 103.009 164.924C103.536 166.38 103.853 167.96 104.103 169.493C104.954 174.709 104.127 180.02 101.166 184.363C99.5926 186.671 97.5817 188.634 95.5026 190.423C93.4287 192.208 91.4669 194.29 89.1805 195.767C84.3038 198.916 78.8865 200.724 73.2632 201.594C70.3386 202.047 67.4021 202.45 64.4483 202.61C62.9166 202.693 61.3823 202.708 59.8497 202.637C59.1649 202.605 56.6185 201.993 56.1239 202.408C55.7428 202.728 55.5732 204.664 55.497 205.198C55.3352 206.327 55.2076 207.441 54.9873 208.56C54.5451 210.808 53.9487 213.35 54.6011 215.617C54.7898 216.273 54.9425 216.807 55.5162 217.027C55.8796 217.167 56.5238 216.921 56.8914 216.881C57.7229 216.791 58.5078 216.756 59.3441 216.849C62.0884 217.157 64.7832 217.899 67.5569 217.697C73.4698 217.266 79.3888 216.825 85.2477 215.846C88.0975 215.369 90.832 214.468 93.6347 213.771C96.3058 213.108 98.9756 212.437 101.469 211.191C106.353 208.748 110.868 205.516 114.9 201.731C119.206 197.69 122.055 192.899 124.749 187.553C127.114 182.857 129.109 178.104 129.006 172.69C128.94 169.264 128.476 165.019 130.347 161.998C131.202 160.617 132.926 159.338 134.532 160.068C137.448 161.393 134.694 164.016 133.582 165.453C131.98 167.524 132.195 170.676 132.029 173.208C131.833 176.196 131.199 178.816 130.58 181.706C129.975 184.533 131.196 187.888 131.316 190.773C131.447 193.901 131.361 197.033 131.328 200.162C131.263 206.387 131.536 212.594 131.515 218.818C131.505 222.045 131.583 225.289 131.39 228.512C131.214 231.451 130.646 234.263 130.148 237.149C129.659 239.981 128.947 243.373 129.112 246.252C135.792 243.56 142.294 240.381 149.077 237.976C146.962 236.023 146.868 233.263 146.697 230.509C146.472 226.877 145.908 223.276 145.661 219.644C145.174 212.471 145.311 204.925 145.888 197.76C146.507 190.068 147.604 182.401 147.83 174.676C147.938 170.955 147.666 167.224 147.094 163.552C146.611 160.459 146.193 156.566 144.669 153.825C143.213 151.206 140.536 149.542 138.302 147.758C135.036 145.149 132.011 142.215 128.894 139.414ZM129.298 38.8013C130.135 39.9985 131.079 41.1035 132.08 42.1494C133.111 43.2287 133.551 42.9903 134.785 42.4289C137.24 41.3121 137.193 40.0203 135.823 37.781C132.644 32.5871 131.439 26.4019 128.075 21.3141C124.761 16.3014 119.941 12.2512 114.881 9.3607C109.451 6.25888 103.566 5.27189 97.4449 5.36442C94.317 5.41184 91.1689 5.6404 88.0605 6.01144C85.0367 6.37212 82.3471 7.42264 79.4199 8.21582C77.9465 8.61494 76.4268 8.94616 74.9943 9.49466C73.7374 9.97573 72.6073 10.7187 71.3373 11.1683C68.5574 12.1516 65.7597 13.2506 63.2517 14.8589C60.7992 16.4316 58.5899 18.1089 56.3627 20.0396C54.0561 22.0391 52.053 24.363 49.5586 26.1185C47.2877 27.7173 45.4819 29.8706 43.423 31.744C41.2716 33.7011 39.2876 36.0996 37.6738 38.5728C36.0959 40.9912 35.4952 44.1204 34.542 46.8478C33.4324 50.0221 32.3318 53.4156 31.9138 56.7812C31.1347 63.0527 32.8831 70.3828 35.1061 76.1867C37.3048 81.927 40.8682 86.7164 45.12 90.9192C47.1928 92.9687 49.4546 94.8289 51.9885 96.1994C54.1562 97.3719 56.9828 99.48 59.3423 98.0069C60.2977 97.4105 61.0731 96.717 62.1776 96.4484C63.3847 96.1552 64.5674 96.2751 65.5418 95.3381C66.37 94.5419 66.7661 93.5807 67.8536 93.0998C69.143 92.5297 70.668 92.4259 72.0487 92.4305C75.1494 92.4413 78.2516 93.263 81.2105 94.1741C83.9221 95.0089 86.1915 96.2677 89.0723 95.5049C91.2131 94.938 94.6467 93.4308 95.108 90.8326C95.5206 88.5106 93.929 85.5087 93.1276 83.4305C92.0198 80.5591 91.0162 77.7339 90.3204 74.7149C89.7686 72.3227 88.9025 68.4956 90.4595 66.3092C91.9893 64.1608 95.5263 64.1868 97.7238 64.727C99.1639 65.081 100.488 65.7943 101.929 66.1536C103.397 66.5201 104.915 66.704 106.413 66.8835C111.602 67.505 118.985 66.1002 118.708 59.0801C118.462 52.8235 115.206 46.5518 117.113 40.2876C117.89 37.7342 119.478 34.7813 122.122 34.1074C124.219 33.5727 127.053 34.1332 128.903 35.2944C130.387 36.2264 131.858 38.1783 129.298 38.8013ZM25.0927 66.747C19.862 67.8274 16.4027 73.6644 15.444 78.8406C15.0096 81.186 14.8561 83.9792 15.6964 86.2487C16.6648 88.8651 19.4019 89.9568 21.8172 90.5056C24.5782 91.133 27.0249 90.8879 29.2137 88.8614C30.1759 87.9702 30.991 86.9321 31.6825 85.798C32.3895 84.6382 33.373 83.793 32.6619 82.4967C30.8996 79.2848 29.3957 76.1293 28.235 72.5957C27.717 71.0188 27.2567 69.4782 26.9129 67.8544C26.6401 66.5647 26.508 65.7777 25.0927 66.747ZM70.904 101.785C69.8918 102.817 68.7289 103.639 67.4225 104.194C65.9894 104.802 65.5546 104.51 65.6256 106.265C65.7044 108.203 65.7175 109.754 64.8831 111.557C64.4925 112.401 63.0499 113.54 63.3225 114.49C63.7135 115.853 67.7202 117.231 68.889 117.707C71.6855 118.848 74.9484 118.871 77.5879 117.26C80.654 115.388 80.9253 111.995 79.7702 108.711C79.647 108.361 79.1989 107.768 79.3091 107.386C79.5114 106.685 80.3446 106.786 80.8225 107.054C81.8605 107.635 82.2942 109.403 82.5176 110.507C83.1144 113.454 82.0181 116.646 79.9342 118.677C78.8754 119.709 77.5509 120.398 76.2001 120.895C75.4333 121.177 74.629 121.4 73.819 121.487C73.1647 121.556 72.3387 121.338 71.714 121.535C70.6129 121.883 70.5637 123.321 70.2883 124.372C69.7967 126.25 69.5913 128.283 69.5269 130.227C69.4224 133.37 69.776 137.375 71.4839 140.039C75.4688 146.257 83.1755 148.415 89.1925 151.615C92.3912 153.316 95.3569 155.453 98.2048 157.737C98.4861 157.962 98.907 158.405 99.2447 158.581C100.386 159.175 99.3895 158.959 100.12 158.566C100.683 158.263 101.164 157.607 101.746 157.264C103.085 156.475 104.589 156.049 105.951 155.304C109.117 153.57 111.919 151.419 114.729 149.123C117.609 146.77 120.526 144.621 123.153 141.943C124.26 140.814 125.508 139.883 126.631 138.803C127.763 137.714 126.315 137.262 125.356 136.46C122.094 133.733 118.872 130.919 115.389 128.508C114.226 127.704 113.201 126.619 111.989 125.908C110.723 125.166 109.971 125.831 108.974 126.775C107.884 127.806 106.845 128.818 105.632 129.701C104.03 130.867 102.167 131.428 100.557 132.538C101.591 133.684 104.112 134.067 104.478 135.803C104.849 137.562 102.374 138.935 101.218 139.615C99.1755 140.814 96.9228 141.543 94.6471 142.063C92.7535 142.496 89.9463 141.844 88.4287 143.357C87.9961 142.389 87.5905 141.882 88.3027 140.956C89.0138 140.031 90.2818 139.871 91.2856 139.515C93.9965 138.554 96.6665 137.273 99.2895 136.072C98.9414 135.209 98.0713 134.619 97.4079 134.057C96.461 133.255 95.6652 132.366 94.8944 131.369C93.4235 129.466 92.1047 127.437 90.704 125.479C90.0965 124.63 89.5424 123.781 88.4331 124.252C87.4539 124.667 86.4979 125.744 85.5569 126.301C83.4285 127.562 81.5665 128.773 79.2237 129.576C78.2797 129.899 74.4143 130.82 75.4424 128.319C75.7472 127.577 76.7656 127.272 77.3931 126.947C78.5523 126.348 79.7077 125.737 80.8247 125.052C83.1191 123.646 85.1425 121.83 87.2891 120.195C89.6572 118.391 92.0655 116.64 94.2887 114.635C92.0766 113.084 89.6225 111.948 87.3348 110.529C85.0228 109.094 82.6933 107.798 80.3017 106.524C78.3975 105.51 76.462 104.428 74.7256 103.117C74.0354 102.596 71.6609 100.429 70.904 101.785ZM140.462 51.3297C140.171 51.4073 139.883 51.4952 139.597 51.5935C141.536 54.7324 139.395 58.6184 140.002 62.0151C141.793 60.8941 142.027 56.5342 144.746 57.3402C147.673 58.2085 146.217 62.0236 147.103 64.2059C148.487 62.9254 150.102 64.1221 150.673 65.641C151.291 67.287 150.434 68.8064 150.722 70.4353C151.02 72.1209 151.91 71.0147 152.403 70.0208C153.031 68.7537 153.581 67.0407 153.349 65.5915C153.067 63.8286 151.949 62.1898 151.257 60.5887C150.569 58.9977 149.917 57.3743 148.921 55.9629C147.035 53.2901 143.759 50.8889 140.462 51.3297ZM159.216 88.9721C157.95 85.6266 156.077 82.5632 154.879 79.1911C154.529 78.2051 154.334 76.6332 153.408 76.0258C152.8 75.6267 151.99 75.8663 151.319 75.6515C150.65 75.4377 149.945 74.9276 149.465 74.4017C148.588 73.4393 148.303 72.1183 147.268 71.2803C145.933 70.1985 144.901 69.7837 144.265 67.9764C143.766 66.5569 143.765 66.3486 142.266 66.6653C140.629 67.0112 139.299 66.5877 138.17 65.2338C136.257 62.9418 136.046 59.7124 136.984 56.9455C137.423 55.6517 138.187 54.1464 137.553 52.7915C136.963 51.533 135.532 50.6295 134.625 49.6264C132.333 47.0911 130.539 44.1239 128.389 41.4638C127.875 40.8273 127.349 40.1923 126.952 39.4626C126.701 38.9993 126.552 38.2022 125.968 38.071C124.963 37.8452 123.561 39.6845 123.055 40.3546C119.355 45.2573 122.003 51.9348 122.453 57.462C122.682 60.2766 123.198 63.6512 122.019 66.3014C120.908 68.7988 118.096 70.0454 115.726 70.7407C112.53 71.6787 109.096 71.6373 105.844 71.0678C104.14 70.7698 102.505 70.2604 100.892 69.6152C99.2423 68.9551 97.5259 67.8194 95.8444 69.0174C93.6738 70.5642 94.3445 73.667 94.8211 75.9284C95.5999 79.6227 96.9596 83.0686 98.1626 86.6175C99.1728 89.5982 99.9909 93.3379 97.8669 96.0051C95.7456 98.6689 92.2272 100.336 88.9528 100.198C82.1642 99.9112 75.9671 94.5525 69.0298 96.7444C70.3332 97.3148 71.7112 97.6502 72.9847 98.3032C74.5221 99.0913 75.9454 100.139 77.4379 101.016C80.3028 102.698 83.1779 104.357 85.9782 106.159C88.5082 107.788 90.9002 109.572 93.3148 111.377C96.3238 113.626 97.9085 111.135 99.8389 108.706C104.053 103.403 108.064 97.7873 111.893 92.1676C115.222 87.282 118.311 82.1811 120.718 76.7232C121.58 74.7702 123.03 71.4573 125.55 71.8426C127.788 72.1844 129.092 75.0427 130.249 76.7918C131.056 76.1795 131.748 75.3608 132.838 75.6978C133.742 75.977 134.367 76.9587 134.767 77.796C135.042 78.3715 135.229 80.3114 135.689 80.6032C136.016 80.8109 137.267 80.3646 137.824 80.5008C139.731 80.9676 140.341 83.563 140.322 85.3646C140.295 87.8477 139.315 90.3325 138.512 92.6319C136.712 97.7864 133.627 101.815 130.227 105.888C126.777 110.022 123.165 113.768 119.273 117.436C118.312 118.341 117.361 119.257 116.425 120.19C115.657 120.955 114.441 121.751 113.84 122.65C112.728 124.313 115.703 125.068 116.81 125.676C121.574 128.295 125.964 131.744 130.159 135.261C134.485 138.888 138.836 142.529 142.993 146.372C147.06 150.132 150.901 154.139 155.183 157.635C159.583 161.227 164.193 164.543 168.714 167.96C173.24 171.382 177.643 174.981 182.164 178.406C186.581 181.754 191.323 184.623 195.97 187.595C198.4 189.151 200.844 190.683 203.285 192.218C205.26 193.459 207.403 195.388 209.744 195.545C211.853 195.686 213.854 196.508 215.114 194.08C216.071 192.237 215.675 189.702 214.837 187.911C213.814 185.726 212.214 183.717 210.929 181.695C209.451 179.369 208.079 176.976 206.621 174.639C205.222 172.398 203.667 170.329 202.107 168.217C200.525 166.076 199.324 163.662 197.914 161.395C194.901 156.548 191.802 151.789 188.945 146.834C182.392 135.469 176.524 123.736 170.916 111.828C170.422 110.778 158.893 89.1586 159.216 88.9721ZM149.99 158.844C153.512 171.731 151.481 184.836 150.759 197.946C150.394 204.574 150.338 211.244 150.176 217.882C150.098 221.109 150.103 224.338 150.23 227.563C150.293 229.185 150.405 230.802 150.515 232.422C150.611 233.854 150.248 235.437 150.419 236.819C150.637 238.588 153.956 238.936 152.937 241.207C152.252 242.731 149.857 242.964 148.574 243.606C149.144 244.306 150.037 245.352 150.989 245.418C151.846 245.477 152.508 244.69 153.276 244.393C153.958 244.129 154.897 243.872 155.328 244.715C155.779 245.598 154.834 246.579 154.46 247.263C155.731 247.523 156.609 246.72 157.755 246.794C158.96 246.872 159.015 248.127 159.807 248.854C160.713 249.685 162.295 249.864 163.412 250.213C164.712 250.62 166.018 251.124 167.201 251.83C169.317 253.092 171.134 255.476 171.916 257.916C172.726 260.445 171.461 262.634 169.576 264.186C168.874 264.764 167.867 265.436 166.936 265.124C165.872 264.768 165.706 263.851 164.409 263.919C163.244 263.98 162.138 264.472 160.967 264.535C159.246 264.628 157.526 264.296 155.803 264.366C148.85 264.649 141.896 264.712 134.955 264.004C133.159 263.821 131.398 263.671 129.628 263.611C128.251 263.565 128.136 262.478 127.903 261.113C127.339 257.817 128.585 254.573 127.968 251.37C128.009 251.582 127.034 251.032 126.917 250.927C126.201 250.29 125.962 249.384 125.749 248.442C125.182 245.936 125.188 243.382 125.363 240.826C125.762 235.023 126.782 229.274 126.698 223.441C126.656 220.501 126.74 217.568 126.741 214.629C126.742 211.93 126.972 209.265 126.994 206.585C127.041 200.707 127.625 194.895 127.788 189.023C126.633 190.214 126.02 191.873 125.286 193.358C124.383 195.185 123.376 196.992 122.273 198.691C119.996 202.2 116.941 205.056 113.777 207.645C107.737 212.586 101.176 216.412 93.7766 218.507C85.7665 220.776 77.6659 222.307 69.408 223.167C67.4974 223.367 65.5655 223.474 63.6506 223.277C62.3967 223.148 60.3585 222.076 59.1671 222.62C57.813 223.239 57.5406 224.726 55.765 224.309C55.0877 224.15 54.5969 223.67 54.0038 223.348C53.1312 222.872 53.0965 223.2 52.2635 223.261C51.3347 223.328 50.7779 222.837 49.9684 223.629C49.281 224.301 49.3477 224.772 49.9756 225.402C50.8581 226.286 52.2707 226.434 53.154 227.358C54.0134 228.256 53.8595 229.36 52.532 229.374C51.196 229.387 50.0089 228.38 48.7036 228.249C48.9819 232.337 50.1437 236.905 48.8554 240.916C48.2577 242.776 46.9751 243.975 45.0625 243.962C41.8621 243.941 39.0547 240.824 37.1273 238.396C36.0618 237.054 35.198 235.546 34.1692 234.171C33.1174 232.765 31.9893 231.351 31.3871 229.651C30.7465 227.841 30.9336 226.026 31.2917 224.169C31.735 221.871 32.147 219.549 32.6828 217.272C33.7216 212.858 35.8116 208.828 36.8667 204.426C37.2658 202.761 37.2608 200.807 38.268 199.379C39.3345 197.867 40.9936 197.77 42.6392 197.867C44.6758 197.986 46.7109 198.225 48.7371 198.469C50.0163 198.623 52.8198 199.6 53.861 198.767C54.2194 198.481 54.22 197.73 54.6392 197.47C55.0433 197.22 55.696 197.4 56.1376 197.435C58.3251 197.606 60.5316 197.815 62.7235 197.883C70.8703 198.135 79.4669 196.791 86.7407 192.784C90.1161 190.925 92.6873 187.998 95.4002 185.233C98.0679 182.515 100.393 179.589 101.111 175.642C101.766 172.039 101.518 167.73 100.43 164.243C99.3694 160.845 95.6064 158.788 92.8678 157.113C89.0697 154.79 85.038 152.865 80.9462 151.197C80.2967 150.932 79.5072 150.595 78.7928 150.731C77.9171 150.897 77.3286 151.7 76.5322 152.055C75.5848 152.476 74.423 152.478 73.4236 152.725C72.4545 152.963 71.5102 153.291 70.523 153.449C67.4147 153.945 63.0466 153.549 60.4778 151.447C56.2787 148.012 58.8159 143.149 60.1647 138.968C58.7386 138.917 57.5509 139.27 56.1896 138.624C54.8334 137.98 53.773 136.84 53.1547 135.412C52.0297 132.814 52.6796 129.829 53.0114 127.12C53.1614 125.895 53.3328 124.68 53.7741 123.529C54.1159 122.638 54.6775 121.789 54.8848 120.847C55.1132 119.809 54.817 119.748 53.9992 119.252C52.7386 118.487 51.8315 117.607 51.0599 116.264C49.5486 113.633 49.511 110.762 50.7494 107.995C51.2508 106.875 52.4466 105.335 52.3105 104.027C52.1936 102.902 50.9904 102.026 50.2819 101.289C48.0944 99.0135 45.7682 96.9127 43.3422 94.9277C42.2083 93.9998 40.9594 93.1579 39.9291 92.1039C39.174 91.3319 38.4069 89.6523 37.3745 89.2463C36.3409 88.8398 35.6526 90.062 34.9326 90.7169C33.8102 91.7377 32.7348 92.9125 31.5118 93.7975C29.3182 95.3848 26.5983 95.0879 24.1212 94.5808C21.5335 94.0509 19.1334 93.118 16.9272 91.5789C16.0506 90.9673 15.0268 89.7253 13.9475 89.6258C12.7947 89.5197 11.5423 90.733 10.7184 91.4612C8.56743 93.3629 7.92164 96.3165 6.66882 98.8712C5.2699 101.724 4.67572 104.685 5.05631 107.893C5.3988 110.778 6.44848 112.958 8.01026 115.289C8.33293 115.771 9.08911 116.682 8.53651 117.215C7.86046 117.867 6.47504 116.559 6.02107 116.136C1.51166 111.938 -1.05124 105.611 0.412558 99.2777C1.19835 95.8771 2.73552 92.7309 4.52048 89.8049C5.27948 88.5604 6.01998 87.3158 7.34008 86.6812C8.84264 85.9587 10.5453 86.0448 12.1504 85.8715C11.0402 80.1183 10.6927 73.858 14.1041 68.8439C16.7219 64.9961 22.0828 61.6293 26.3316 64.7495C26.1574 60.5079 25.5863 56.4801 26.6525 52.304C27.1305 50.4325 27.785 48.6114 28.5895 46.8696C29.3777 45.1627 30.4661 43.7153 31.1029 41.9384C33.6151 34.93 38.4352 28.6695 43.5837 23.6395C48.7881 18.555 53.8945 12.352 60.4499 9.17104C67.2893 5.85193 74.2543 2.86933 81.6695 1.36123C89.366 -0.20418 97.2771 -0.525503 105.03 0.956588C111.827 2.25592 118.117 6.62462 123.26 11.3344C129.129 16.7088 132.918 23.1879 135.915 30.693C136.573 32.3415 137.208 34.0043 138.015 35.5798C138.911 37.328 140.062 38.9537 140.721 40.8296C141.308 42.5025 141.407 44.3172 140.361 45.812C139.625 46.863 138.116 47.1003 137.472 48.0615C137.147 48.5462 137.18 49.0073 137.894 49.1518C138.631 49.3007 138.983 48.4304 139.513 48.0813C140.832 47.2119 142.693 47.9526 144.027 48.4463C147.19 49.617 149.666 51.7194 151.559 54.6339C153.37 57.4229 154.573 60.5915 155.769 63.7105C156.523 65.6783 157.242 67.6332 157.657 69.7179C157.813 70.5023 158.031 72.6284 156.86 71.6967C156.386 71.3189 155.707 74.1853 155.835 74.6417C156.28 76.2292 157.868 77.7176 158.802 79.0026C161 82.0241 162.471 85.4088 164.021 88.8258C167.378 96.2256 171.116 103.409 174.707 110.681C182.021 125.49 190.014 139.729 198.398 153.884C202.551 160.896 206.834 167.789 211.274 174.603C213.233 177.61 215.199 180.618 217.115 183.655C218.744 186.236 220.352 189.11 219.933 192.331C219.549 195.281 217.894 197.65 215.217 198.615C213.783 199.132 212.08 199.727 210.545 199.569C208.866 199.395 207.385 198.206 205.986 197.314C199.557 193.212 193.126 189.113 186.692 185.018C179.497 180.439 172.916 175.002 166.051 169.91C162.558 167.319 158.956 164.985 155.317 162.64C154.497 162.112 150.779 158.328 149.99 158.844Z" fill="black"/>
<path fill-rule="evenodd" clip-rule="evenodd" d="M87.6877 171.881C85.9302 174.621 84.0822 177.196 81.6082 179.274C79.0021 181.464 76.2766 183.238 73.3668 184.937C68.235 187.933 61.3563 190.586 55.3958 189.228C53.7007 188.842 50.989 187.272 52.4626 185.03C53.2032 183.904 54.7921 184.197 55.9169 184.259C57.7287 184.36 59.3135 184.469 61.0496 183.823C64.2397 182.637 67.4521 181.518 70.5671 180.122C73.5842 178.769 76.2305 176.913 78.9986 175.091C81.5946 173.381 83.575 171.335 85.8556 169.269C86.4802 168.703 87.5541 167.713 88.1449 168.813C88.5719 169.608 87.9218 171.104 87.6877 171.881Z" fill="black"/>
<path fill-rule="evenodd" clip-rule="evenodd" d="M158.706 40.3004C158.509 41.4871 157.978 43.8479 156.401 43.5255C154.389 43.1142 155.38 38.945 155.35 37.5294C155.216 31.3622 153.317 25.4319 150.504 20.0848C149.106 17.4265 147.383 14.9682 146.112 12.2338C145.865 11.7025 145.116 10.3848 145.66 9.80838C146.314 9.11619 147.567 10.1607 148.028 10.6547C149.809 12.5649 151.227 15.4286 152.602 17.6763C154.438 20.6771 156.059 23.8464 157.223 27.2112C158.629 31.2757 159.419 35.9896 158.706 40.3004Z" fill="black"/>
<path fill-rule="evenodd" clip-rule="evenodd" d="M162.467 20.5782C162.655 21.6477 163.574 24.5577 161.934 24.8157C160.076 25.1083 159.498 20.2596 158.982 18.9751C158.71 18.2979 157.26 15.3154 158.016 14.6662C159.59 13.3146 162.094 19.7176 162.467 20.5782Z" fill="black"/>
<path fill-rule="evenodd" clip-rule="evenodd" d="M74.9874 164.894C73.2232 166.596 71.1749 166.496 68.9479 166.334C67.817 166.252 65.1982 165.543 67.0181 164.058C67.9688 163.283 75.4277 162.749 74.9874 164.894Z" fill="black"/>
<path fill-rule="evenodd" clip-rule="evenodd" d="M212.463 196.052C212.588 195.788 213.647 194.522 213.875 195.034C214.091 195.517 212.742 196.038 212.463 196.052Z" fill="black"/>
<path fill-rule="evenodd" clip-rule="evenodd" d="M72.1377 101.974C71.9206 102.447 71.0145 102.034 70.7021 102.106C71.1263 101.145 71.6306 101.351 72.1377 101.974Z" fill="black"/>
<path fill-rule="evenodd" clip-rule="evenodd" d="M140.325 51.6738C140.231 52.0533 140.137 52.4329 140.043 52.8126C139.898 52.5281 139.753 52.2439 139.607 51.9595C139.847 51.8645 140.086 51.769 140.325 51.6738Z" fill="black"/>
<path fill-rule="evenodd" clip-rule="evenodd" d="M142.06 123.458C144.324 123.7 146.596 123.822 148.869 123.896C150.788 123.958 151.576 123.574 151.821 121.463C152.112 118.96 152.211 116.434 152.501 113.93C152.633 112.793 153.675 110.519 152.42 109.91C151.368 109.4 149.726 110.131 148.624 110.217C147.396 110.313 145.544 109.916 144.459 110.687C143.298 111.511 143.551 114.395 143.353 115.749C142.976 118.33 142.522 120.893 142.06 123.458ZM140.98 111.301C138.928 111.465 136.868 111.594 134.822 111.826C133.911 111.929 132.068 112.406 131.3 111.705C129.498 110.058 136.233 109.48 136.997 109.35C138.285 109.131 140.488 109.422 141.314 108.135C142.13 106.862 141.924 104.724 142.135 103.246C142.453 101.022 142.816 98.8015 143.028 96.5631C143.099 95.8108 142.998 93.3255 143.748 92.9564C145.473 92.1076 144.931 100.854 144.902 101.511C144.854 102.64 144.801 103.774 144.652 104.893C144.568 105.524 144.274 106.377 144.455 107.011C144.975 108.829 147.93 107.78 149.275 107.636C150.783 107.473 153.113 108.091 153.612 106.121C154.239 103.646 154.148 100.834 154.38 98.287C154.445 97.5825 154.613 92.3219 155.839 92.7295C157.208 93.185 156.674 97.5811 156.661 98.7129C156.647 99.9903 156.652 101.268 156.57 102.543C156.497 103.689 156.192 105.093 156.417 106.228C156.813 108.218 159.042 107.16 159.688 108.742C160.303 110.247 156.953 109.067 156.327 109.584C155.393 110.356 155.618 113.58 155.484 114.709C155.191 117.188 154.629 119.764 154.446 122.236C154.302 124.187 155.784 123.928 157.292 123.787C158.585 123.666 160.006 123.341 161.302 123.523C162.344 123.67 163.799 124.686 162.283 125.362C159.912 126.419 155.085 124.259 153.894 127.47C153.669 128.076 152.624 135.1 151.31 131.632C150.761 130.183 152.105 127.909 150.672 126.798C150.175 126.413 149.434 126.481 148.857 126.439C147.437 126.334 146.008 126.298 144.585 126.267C143.166 126.236 141.892 125.933 141.344 127.579C140.917 128.86 140.964 130.295 140.623 131.607C140.368 132.59 139.528 134.311 138.657 132.703C138.084 131.646 138.522 129.8 138.635 128.651C138.692 128.075 139.016 126.885 138.603 126.402C138.161 125.883 136.977 126.164 136.417 126.211C134.801 126.346 131.791 127.17 130.554 125.618C129.519 124.32 131.671 124.295 132.516 124.207C133.388 124.117 134.259 124.033 135.13 123.936C136.089 123.829 137.358 123.972 138.26 123.654C139.775 123.12 139.667 120.939 139.767 119.524C139.961 116.761 140.549 114.032 140.98 111.301Z" fill="black"/>
<path fill-rule="evenodd" clip-rule="evenodd" d="M167.603 117.202C167.48 118.798 167.317 120.587 166.83 122.103C166.462 123.249 165.719 123.597 165.465 122.138C165.305 121.213 166.372 116.001 167.603 117.202Z" fill="black"/>
<path fill-rule="evenodd" clip-rule="evenodd" d="M71.9323 106.697C71.328 106.238 68.466 103.822 70.5346 103.727C71.5909 103.678 73.8666 105.517 73.9318 106.537C73.9484 106.795 73.4279 106.928 73.4563 107.178C73.5102 107.652 74.1737 107.877 74.3875 108.254C74.8589 109.086 74.6633 110.73 74.0546 111.521C72.6663 113.325 71.1248 110.271 72.1995 109.672C71.96 109.806 68.7466 108.076 68.6258 107.686C67.965 105.546 71.77 107.562 71.9323 106.697Z" fill="black"/>
<path fill-rule="evenodd" clip-rule="evenodd" d="M76.9746 115.12C76.2406 115.144 74.7663 115.091 74.2166 114.536C73.1943 113.504 75.188 113.367 75.7712 112.887C76.5888 112.214 76.7492 110.025 78.0326 111.379C79.3054 112.723 78.186 114.286 76.9746 115.12Z" fill="black"/>
<path fill-rule="evenodd" clip-rule="evenodd" d="M66.3926 109.435C67.7198 109.229 70.6725 112.258 69.2396 112.459C68.2913 112.592 66.5995 110.244 66.3926 109.435Z" fill="black"/>
</svg>
