<svg width="65" height="14" viewBox="0 0 65 14" fill="none" xmlns="http://www.w3.org/2000/svg">
<path d="M6.44991 5.7991H3.87394V10.1207C3.87394 10.3887 3.8806 10.6568 3.89391 10.9248C3.90722 11.1794 3.95382 11.4139 4.03369 11.6283C4.12688 11.8293 4.26 11.9968 4.43307 12.1308C4.61944 12.2514 4.88569 12.3117 5.23182 12.3117C5.44482 12.3117 5.66447 12.2916 5.89079 12.2514C6.1171 12.2112 6.32344 12.1375 6.50982 12.0303V13.6786C6.29682 13.7992 6.01726 13.8796 5.67113 13.9198C5.33832 13.9734 5.07872 14.0002 4.89235 14.0002C4.2001 14.0002 3.66094 13.9064 3.27488 13.7188C2.90213 13.5177 2.62257 13.2631 2.43619 12.9549C2.26313 12.6467 2.15663 12.305 2.11669 11.9298C2.09006 11.5412 2.07675 11.1526 2.07675 10.764V5.7991H0V4.23125H2.07675V1.55786H3.87394V4.23125H6.44991V5.7991Z" fill="black"/>
<path d="M8.76863 4.23125H10.5658V5.6986H10.6058C10.7256 5.44399 10.8853 5.21618 11.085 5.01517C11.2847 4.80077 11.5044 4.61986 11.744 4.47246C11.9969 4.32505 12.2698 4.21115 12.5627 4.13074C12.8556 4.03694 13.1484 3.99004 13.4413 3.99004C13.7342 3.99004 14.0004 4.03024 14.2401 4.11064L14.1602 6.06041C14.0138 6.02021 13.8673 5.98671 13.7209 5.9599C13.5744 5.9331 13.428 5.9197 13.2816 5.9197C12.4029 5.9197 11.7307 6.16761 11.2647 6.66343C10.7988 7.15924 10.5658 7.92977 10.5658 8.975V13.759H8.76863V4.23125Z" fill="black"/>
<path d="M16.1994 5.39709C16.7052 4.92807 17.291 4.57966 17.9566 4.35185C18.6222 4.11064 19.2879 3.99004 19.9535 3.99004C20.6457 3.99004 21.2381 4.07714 21.7307 4.25135C22.2366 4.42555 22.6493 4.66006 22.9688 4.95487C23.2883 5.24968 23.5212 5.59139 23.6677 5.98C23.8274 6.35522 23.9073 6.75053 23.9073 7.16594V12.0303C23.9073 12.3653 23.914 12.6735 23.9273 12.9549C23.9406 13.2363 23.9606 13.5043 23.9872 13.759H22.3897C22.3497 13.2765 22.3298 12.7941 22.3298 12.3117H22.2898C21.8905 12.9281 21.4179 13.3636 20.872 13.6183C20.3262 13.8729 19.6939 14.0002 18.975 14.0002C18.5357 14.0002 18.1164 13.9399 17.717 13.8193C17.3176 13.6987 16.9648 13.5177 16.6586 13.2765C16.3658 13.0353 16.1328 12.7405 15.9597 12.3921C15.7867 12.0303 15.7001 11.6149 15.7001 11.1459C15.7001 10.5295 15.8333 10.0135 16.0995 9.59812C16.3791 9.18271 16.7518 8.8477 17.2178 8.59309C17.697 8.32508 18.2495 8.13747 18.8752 8.03027C19.5142 7.90967 20.1931 7.84936 20.912 7.84936H22.2299V7.44735C22.2299 7.20614 22.1833 6.96494 22.0901 6.72373C21.997 6.48252 21.8572 6.26811 21.6708 6.08051C21.4844 5.8795 21.2515 5.7254 20.9719 5.61819C20.6923 5.49759 20.3595 5.43729 19.9735 5.43729C19.6273 5.43729 19.3211 5.47079 19.0549 5.53779C18.802 5.60479 18.569 5.6919 18.356 5.7991C18.143 5.8929 17.9499 6.00681 17.7769 6.14081C17.6038 6.27481 17.4374 6.40212 17.2777 6.52272L16.1994 5.39709ZM21.2714 9.17601C20.8454 9.17601 20.4061 9.20281 19.9535 9.25641C19.5142 9.29661 19.1081 9.38371 18.7354 9.51772C18.3759 9.65172 18.0764 9.83933 17.8368 10.0805C17.6105 10.3217 17.4973 10.63 17.4973 11.0052C17.4973 11.5546 17.677 11.9499 18.0365 12.1911C18.4092 12.4323 18.9084 12.5529 19.5341 12.5529C20.0267 12.5529 20.446 12.4725 20.7922 12.3117C21.1383 12.1375 21.4179 11.9164 21.6309 11.6484C21.8439 11.3804 21.997 11.0856 22.0901 10.764C22.1833 10.4289 22.2299 10.1006 22.2299 9.77903V9.17601H21.2714Z" fill="black"/>
<path d="M26.5143 4.23125H28.1917V5.7187H28.2316C28.2716 5.58469 28.3714 5.41719 28.5312 5.21618C28.7042 5.01517 28.9172 4.82757 29.1702 4.65336C29.4364 4.46576 29.7426 4.31165 30.0887 4.19105C30.4482 4.05704 30.8409 3.99004 31.2669 3.99004C31.9724 3.99004 32.5649 4.13745 33.0441 4.43226C33.5234 4.72706 33.9161 5.16928 34.2223 5.7589C34.5285 5.16928 34.9611 4.72706 35.5202 4.43226C36.0794 4.13745 36.6451 3.99004 37.2176 3.99004C37.9498 3.99004 38.5488 4.11064 39.0148 4.35185C39.4807 4.59306 39.8468 4.91467 40.113 5.31668C40.3793 5.7053 40.559 6.15421 40.6522 6.66343C40.7587 7.15924 40.812 7.67516 40.812 8.21118V13.759H39.0148V8.45238C39.0148 8.09057 38.9881 7.74216 38.9349 7.40715C38.895 7.07214 38.8018 6.77733 38.6553 6.52272C38.5089 6.26811 38.3025 6.06711 38.0363 5.9197C37.77 5.7589 37.4173 5.6785 36.978 5.6785C36.1126 5.6785 35.4936 5.9465 35.1209 6.48252C34.7481 7.01854 34.5617 7.70866 34.5617 8.55289V13.759H32.7645V8.77399C32.7645 8.31838 32.7379 7.90297 32.6847 7.52776C32.6447 7.15254 32.5515 6.83093 32.4051 6.56292C32.272 6.28151 32.0723 6.06711 31.806 5.9197C31.5531 5.7589 31.207 5.6785 30.7677 5.6785C30.4482 5.6785 30.1353 5.7455 29.8291 5.8795C29.5363 6.00011 29.2767 6.18771 29.0504 6.44232C28.824 6.69693 28.6443 7.02524 28.5112 7.42725C28.3781 7.81586 28.3115 8.27818 28.3115 8.8142V13.759H26.5143V4.23125Z" fill="black"/>
<path d="M43.5589 5.39709C44.0648 4.92807 44.6505 4.57966 45.3162 4.35185C45.9818 4.11064 46.6474 3.99004 47.313 3.99004C48.0053 3.99004 48.5977 4.07714 49.0903 4.25135C49.5961 4.42555 50.0088 4.66006 50.3283 4.95487C50.6478 5.24968 50.8808 5.59139 51.0272 5.98C51.187 6.35522 51.2669 6.75053 51.2669 7.16594V12.0303C51.2669 12.3653 51.2735 12.6735 51.2868 12.9549C51.3001 13.2363 51.3201 13.5043 51.3467 13.759H49.7492C49.7093 13.2765 49.6893 12.7941 49.6893 12.3117H49.6494C49.25 12.9281 48.7774 13.3636 48.2316 13.6183C47.6858 13.8729 47.0534 14.0002 46.3346 14.0002C45.8953 14.0002 45.4759 13.9399 45.0765 13.8193C44.6772 13.6987 44.3244 13.5177 44.0182 13.2765C43.7253 13.0353 43.4923 12.7405 43.3193 12.3921C43.1462 12.0303 43.0597 11.6149 43.0597 11.1459C43.0597 10.5295 43.1928 10.0135 43.4591 9.59812C43.7386 9.18271 44.1114 8.8477 44.5773 8.59309C45.0566 8.32508 45.609 8.13747 46.2347 8.03027C46.8737 7.90967 47.5527 7.84936 48.2715 7.84936H49.5895V7.44735C49.5895 7.20614 49.5429 6.96494 49.4497 6.72373C49.3565 6.48252 49.2167 6.26811 49.0304 6.08051C48.844 5.8795 48.611 5.7254 48.3314 5.61819C48.0519 5.49759 47.7191 5.43729 47.333 5.43729C46.9869 5.43729 46.6807 5.47079 46.4144 5.53779C46.1615 5.60479 45.9285 5.6919 45.7155 5.7991C45.5025 5.8929 45.3095 6.00681 45.1364 6.14081C44.9634 6.27481 44.797 6.40212 44.6372 6.52272L43.5589 5.39709ZM48.631 9.17601C48.205 9.17601 47.7657 9.20281 47.313 9.25641C46.8737 9.29661 46.4677 9.38371 46.0949 9.51772C45.7355 9.65172 45.436 9.83933 45.1963 10.0805C44.97 10.3217 44.8569 10.63 44.8569 11.0052C44.8569 11.5546 45.0366 11.9499 45.396 12.1911C45.7688 12.4323 46.268 12.5529 46.8937 12.5529C47.3863 12.5529 47.8056 12.4725 48.1517 12.3117C48.4978 12.1375 48.7774 11.9164 48.9904 11.6484C49.2034 11.3804 49.3565 11.0856 49.4497 10.764C49.5429 10.4289 49.5895 10.1006 49.5895 9.77903V9.17601H48.631Z" fill="black"/>
<path d="M53.1816 2.42213V1.39699H54.1701V0H55.3682V1.39699H56.6862V2.42213H55.3682V4.5327C55.3682 4.7739 55.4115 4.96486 55.498 5.10556C55.5912 5.24627 55.7709 5.31662 56.0372 5.31662C56.1437 5.31662 56.2602 5.30657 56.3866 5.28647C56.5131 5.25967 56.6129 5.21947 56.6862 5.16587V6.18095C56.5597 6.24125 56.4033 6.28145 56.2169 6.30155C56.0372 6.32835 55.8774 6.34175 55.7376 6.34175C55.4181 6.34175 55.1552 6.3049 54.9489 6.2312C54.7492 6.1642 54.5894 6.06035 54.4696 5.91964C54.3565 5.77224 54.2766 5.59133 54.23 5.37692C54.1901 5.16252 54.1701 4.91461 54.1701 4.6332V2.42213H53.1816Z" fill="#DA716C"/>
<path d="M57.5715 1.39699H58.7097V2.15077H58.7297C58.8362 1.92296 59.0059 1.72196 59.2389 1.54775C59.4785 1.36684 59.798 1.27639 60.1974 1.27639C60.9495 1.27639 61.4488 1.57455 61.695 2.17087C61.8681 1.86266 62.0844 1.6382 62.344 1.4975C62.6036 1.35009 62.9131 1.27639 63.2726 1.27639C63.5921 1.27639 63.8617 1.32999 64.0813 1.4372C64.301 1.5444 64.4774 1.6918 64.6105 1.87941C64.7503 2.06702 64.8501 2.28812 64.91 2.54273C64.9699 2.79064 64.9999 3.05865 64.9999 3.34676V6.22115H63.8018V3.48746C63.8018 3.34006 63.7884 3.19935 63.7618 3.06535C63.7352 2.92464 63.6886 2.80404 63.622 2.70354C63.5555 2.59633 63.4656 2.51258 63.3525 2.45228C63.2393 2.39198 63.0929 2.36183 62.9131 2.36183C62.7268 2.36183 62.567 2.39868 62.4339 2.47238C62.3074 2.53938 62.2009 2.63318 62.1144 2.75379C62.0345 2.86769 61.9746 3.0017 61.9347 3.1558C61.9014 3.30321 61.8847 3.45396 61.8847 3.60807V6.22115H60.6866V3.34676C60.6866 3.04525 60.6234 2.80739 60.4969 2.63318C60.3705 2.45228 60.1608 2.36183 59.8679 2.36183C59.6682 2.36183 59.4985 2.39533 59.3587 2.46233C59.2256 2.52933 59.1124 2.61978 59.0192 2.73369C58.9327 2.84759 58.8695 2.97825 58.8295 3.12565C58.7896 3.27305 58.7696 3.42716 58.7696 3.58797V6.22115H57.5715V1.39699Z" fill="#DA716C"/>
</svg>
