<svg width="65" height="14" viewBox="0 0 65 14" fill="none" xmlns="http://www.w3.org/2000/svg">
<path d="M6.44978 5.76081H3.87386V10.054C3.87386 10.3203 3.88052 10.5865 3.89383 10.8527C3.90714 11.1057 3.95374 11.3386 4.03361 11.5516C4.1268 11.7513 4.25992 11.9177 4.43298 12.0508C4.61935 12.1707 4.88559 12.2306 5.23171 12.2306C5.44471 12.2306 5.66436 12.2106 5.89067 12.1707C6.11698 12.1307 6.32332 12.0575 6.50969 11.951V13.5884C6.29669 13.7082 6.01714 13.7881 5.67102 13.828C5.33821 13.8813 5.07862 13.9079 4.89225 13.9079C4.20001 13.9079 3.66087 13.8147 3.27481 13.6284C2.90207 13.4287 2.62251 13.1757 2.43614 12.8696C2.26308 12.5634 2.15658 12.2239 2.11665 11.8512C2.09002 11.4651 2.07671 11.0791 2.07671 10.693V5.76081H0V4.20328H2.07671V1.54749H3.87386V4.20328H6.44978V5.76081Z" fill="white"/>
<path d="M8.76845 4.20328H10.5656V5.66097H10.6055C10.7254 5.40804 10.8851 5.18173 11.0848 4.98204C11.2845 4.76905 11.5041 4.58933 11.7437 4.4429C11.9967 4.29647 12.2696 4.18331 12.5624 4.10344C12.8553 4.01025 13.1482 3.96366 13.4411 3.96366C13.7339 3.96366 14.0002 4.0036 14.2398 4.08347L14.1599 6.0204C14.0135 5.98046 13.867 5.94718 13.7206 5.92056C13.5742 5.89393 13.4277 5.88062 13.2813 5.88062C12.4027 5.88062 11.7304 6.1269 11.2645 6.61945C10.7986 7.112 10.5656 7.87746 10.5656 8.91581V13.6683H8.76845V4.20328Z" fill="white"/>
<path d="M16.199 5.36144C16.7049 4.89552 17.2906 4.5494 17.9562 4.32309C18.6219 4.08347 19.2875 3.96366 19.9531 3.96366C20.6453 3.96366 21.2377 4.05019 21.7303 4.22325C22.2361 4.39631 22.6488 4.62927 22.9683 4.92214C23.2878 5.21501 23.5208 5.55447 23.6672 5.94053C23.8269 6.31327 23.9068 6.70598 23.9068 7.11866V11.951C23.9068 12.2838 23.9135 12.59 23.9268 12.8696C23.9401 13.1491 23.9601 13.4154 23.9867 13.6683H22.3892C22.3493 13.189 22.3293 12.7098 22.3293 12.2306H22.2894C21.89 12.8429 21.4174 13.2756 20.8716 13.5285C20.3258 13.7814 19.6935 13.9079 18.9746 13.9079C18.5353 13.9079 18.116 13.848 17.7166 13.7282C17.3173 13.6084 16.9645 13.4287 16.6583 13.189C16.3654 12.9494 16.1325 12.6566 15.9594 12.3104C15.7863 11.951 15.6998 11.5383 15.6998 11.0724C15.6998 10.46 15.8329 9.94751 16.0992 9.53483C16.3787 9.12215 16.7515 8.78935 17.2174 8.53642C17.6967 8.27017 18.2491 8.0838 18.8748 7.9773C19.5138 7.85749 20.1927 7.79759 20.9116 7.79759H22.2295V7.39822C22.2295 7.1586 22.1829 6.91898 22.0897 6.67936C21.9965 6.43974 21.8567 6.22674 21.6704 6.04037C21.484 5.84069 21.251 5.68759 20.9715 5.5811C20.6919 5.46129 20.3591 5.40138 19.9731 5.40138C19.6269 5.40138 19.3207 5.43466 19.0545 5.50122C18.8016 5.56778 18.5686 5.65431 18.3556 5.76081C18.1426 5.854 17.9496 5.96715 17.7765 6.10027C17.6035 6.2334 17.4371 6.35986 17.2773 6.47967L16.199 5.36144ZM21.271 9.1155C20.845 9.1155 20.4057 9.14212 19.9531 9.19537C19.5138 9.23531 19.1078 9.32184 18.735 9.45496C18.3756 9.58808 18.0761 9.77445 17.8364 10.0141C17.6101 10.2537 17.497 10.5599 17.497 10.9326C17.497 11.4784 17.6767 11.8711 18.0361 12.1108C18.4089 12.3504 18.9081 12.4702 19.5337 12.4702C20.0263 12.4702 20.4456 12.3903 20.7918 12.2306C21.1379 12.0575 21.4174 11.8379 21.6304 11.5716C21.8434 11.3054 21.9965 11.0125 22.0897 10.693C22.1829 10.3602 22.2295 10.034 22.2295 9.71455V9.1155H21.271Z" fill="white"/>
<path d="M26.5138 4.20328H28.1911V5.68094H28.2311C28.271 5.54782 28.3708 5.38141 28.5306 5.18173C28.7036 4.98205 28.9166 4.79567 29.1696 4.62262C29.4358 4.43624 29.742 4.28315 30.0881 4.16334C30.4476 4.03022 30.8403 3.96366 31.2663 3.96366C31.9718 3.96366 32.5642 4.11009 33.0434 4.40296C33.5227 4.69583 33.9154 5.13514 34.2216 5.72088C34.5278 5.13514 34.9604 4.69583 35.5195 4.40296C36.0786 4.11009 36.6444 3.96366 37.2168 3.96366C37.949 3.96366 38.5481 4.08347 39.014 4.32309C39.4799 4.56271 39.846 4.8822 40.1122 5.28157C40.3785 5.66763 40.5582 6.11359 40.6514 6.61945C40.7579 7.112 40.8111 7.62453 40.8111 8.15702V13.6683H39.014V8.39664C39.014 8.03721 38.9874 7.69109 38.9341 7.35828C38.8942 7.02548 38.801 6.73261 38.6546 6.47967C38.5081 6.22674 38.3018 6.02706 38.0355 5.88062C37.7693 5.72088 37.4165 5.641 36.9772 5.641C36.1119 5.641 35.4929 5.90725 35.1202 6.43974C34.7474 6.97223 34.561 7.65781 34.561 8.49648V13.6683H32.7639V8.71613C32.7639 8.26351 32.7373 7.85084 32.684 7.47809C32.6441 7.10535 32.5509 6.78585 32.4045 6.51961C32.2713 6.24005 32.0716 6.02706 31.8054 5.88062C31.5525 5.72088 31.2064 5.641 30.767 5.641C30.4476 5.641 30.1347 5.70756 29.8285 5.84069C29.5357 5.9605 29.2761 6.14687 29.0498 6.3998C28.8235 6.65273 28.6437 6.97888 28.5106 7.37825C28.3775 7.7643 28.3109 8.22358 28.3109 8.75607V13.6683H26.5138V4.20328Z" fill="white"/>
<path d="M43.558 5.36144C44.0639 4.89552 44.6496 4.5494 45.3153 4.32309C45.9809 4.08347 46.6465 3.96366 47.3121 3.96366C48.0043 3.96366 48.5967 4.05019 49.0893 4.22325C49.5951 4.39631 50.0078 4.62927 50.3273 4.92214C50.6468 5.21501 50.8798 5.55447 51.0262 5.94053C51.186 6.31327 51.2658 6.70598 51.2658 7.11866V11.951C51.2658 12.2838 51.2725 12.59 51.2858 12.8696C51.2991 13.1491 51.3191 13.4154 51.3457 13.6683H49.7482C49.7083 13.189 49.6883 12.7098 49.6883 12.2306H49.6484C49.249 12.8429 48.7764 13.2756 48.2306 13.5285C47.6848 13.7814 47.0525 13.9079 46.3336 13.9079C45.8943 13.9079 45.475 13.848 45.0756 13.7282C44.6763 13.6084 44.3235 13.4287 44.0173 13.189C43.7244 12.9494 43.4915 12.6566 43.3184 12.3104C43.1454 11.951 43.0588 11.5383 43.0588 11.0724C43.0588 10.46 43.1919 9.94751 43.4582 9.53483C43.7378 9.12215 44.1105 8.78935 44.5764 8.53642C45.0557 8.27017 45.6081 8.0838 46.2338 7.9773C46.8728 7.85749 47.5517 7.79759 48.2706 7.79759H49.5885V7.39822C49.5885 7.1586 49.5419 6.91898 49.4487 6.67936C49.3555 6.43974 49.2157 6.22674 49.0294 6.04037C48.843 5.84069 48.61 5.68759 48.3305 5.5811C48.0509 5.46129 47.7181 5.40138 47.3321 5.40138C46.9859 5.40138 46.6798 5.43466 46.4135 5.50122C46.1606 5.56778 45.9276 5.65431 45.7146 5.76081C45.5016 5.854 45.3086 5.96715 45.1355 6.10027C44.9625 6.2334 44.7961 6.35986 44.6363 6.47967L43.558 5.36144ZM48.63 9.1155C48.204 9.1155 47.7647 9.14212 47.3121 9.19537C46.8728 9.23531 46.4668 9.32184 46.094 9.45496C45.7346 9.58808 45.4351 9.77445 45.1954 10.0141C44.9691 10.2537 44.856 10.5599 44.856 10.9326C44.856 11.4784 45.0357 11.8711 45.3951 12.1108C45.7679 12.3504 46.2671 12.4702 46.8928 12.4702C47.3853 12.4702 47.8046 12.3903 48.1508 12.2306C48.4969 12.0575 48.7764 11.8379 48.9894 11.5716C49.2024 11.3054 49.3555 11.0125 49.4487 10.693C49.5419 10.3602 49.5885 10.034 49.5885 9.71455V9.1155H48.63Z" fill="white"/>
<path d="M53.1816 2.40619V1.3878H54.1701V0H55.3682V1.3878H56.6861V2.40619H55.3682V4.50287C55.3682 4.74249 55.4114 4.93219 55.498 5.07197C55.5912 5.21174 55.7709 5.28163 56.0371 5.28163C56.1436 5.28163 56.2601 5.27165 56.3866 5.25168C56.513 5.22506 56.6129 5.18512 56.6861 5.13187V6.14027C56.5596 6.20018 56.4032 6.24012 56.2168 6.26008C56.0371 6.28671 55.8774 6.30002 55.7376 6.30002C55.4181 6.30002 55.1552 6.26341 54.9488 6.1902C54.7492 6.12363 54.5894 6.02046 54.4696 5.88069C54.3564 5.73425 54.2766 5.55454 54.23 5.34154C54.19 5.12854 54.1701 4.88227 54.1701 4.60271V2.40619H53.1816Z" fill="#DA716C"/>
<path d="M57.5714 1.3878H58.7096V2.13662H58.7296C58.8361 1.91031 59.0058 1.71062 59.2388 1.53756C59.4784 1.35785 59.7979 1.26799 60.1972 1.26799C60.9494 1.26799 61.4486 1.56419 61.6949 2.15658C61.8679 1.8504 62.0843 1.62742 62.3438 1.48764C62.6034 1.34121 62.9129 1.26799 63.2724 1.26799C63.5919 1.26799 63.8614 1.32124 64.0811 1.42774C64.3007 1.53424 64.4771 1.68067 64.6103 1.86704C64.75 2.05341 64.8499 2.27307 64.9098 2.526C64.9697 2.77227 64.9996 3.03852 64.9996 3.32473V6.18021H63.8015V3.46451C63.8015 3.31808 63.7882 3.1783 63.7616 3.04518C63.735 2.9054 63.6884 2.78559 63.6218 2.68575C63.5553 2.57925 63.4654 2.49605 63.3523 2.43614C63.2391 2.37624 63.0927 2.34628 62.9129 2.34628C62.7266 2.34628 62.5668 2.38289 62.4337 2.45611C62.3072 2.52267 62.2007 2.61586 62.1142 2.73567C62.0343 2.84882 61.9744 2.98194 61.9345 3.13503C61.9012 3.28147 61.8846 3.43123 61.8846 3.58432V6.18021H60.6865V3.32473C60.6865 3.02521 60.6232 2.78892 60.4968 2.61586C60.3703 2.43614 60.1606 2.34628 59.8678 2.34628C59.6681 2.34628 59.4984 2.37956 59.3586 2.44612C59.2255 2.51269 59.1123 2.60254 59.0191 2.7157C58.9326 2.82885 58.8694 2.95865 58.8294 3.10508C58.7895 3.25152 58.7695 3.40461 58.7695 3.56435V6.18021H57.5714V1.3878Z" fill="#DA716C"/>
</svg>
