<svg width="164" height="189" viewBox="0 0 164 189" fill="none" xmlns="http://www.w3.org/2000/svg">
<path fill-rule="evenodd" clip-rule="evenodd" d="M159.765 178.077C158.593 178.747 157.221 179.265 155.92 179.612C155.155 179.816 153.892 180.446 153.221 179.869C152.898 179.591 152.824 178.962 152.634 178.597C152.333 178.019 151.905 177.52 151.504 177.009C150.533 175.772 149.522 174.578 148.464 173.413C147.963 172.862 147.047 171.574 146.164 171.658C145.063 171.764 145.089 173.288 145.365 174.067C146.244 176.545 148.903 178.706 150.64 180.573C150.198 181.253 147.773 181.172 147.099 181.013C146.071 180.77 145.967 180.038 145.497 179.2C144.4 177.243 142.173 176.148 140.342 174.997C139.675 174.577 138.256 173.414 137.387 173.707C136.562 173.984 136.598 175.037 136.861 175.725C137.257 176.764 138.385 177.485 139.219 178.142C140.332 179.017 141.349 179.97 142.276 181.041C140.94 181.15 139.609 181.339 138.276 181.449C136.664 181.581 135.32 180.697 133.837 180.196C132.458 179.73 131.084 179.336 129.728 178.799C128.206 178.196 126.611 177.986 125.076 177.457C119.049 175.382 113.145 172.771 107.338 170.14C104.57 168.886 101.86 167.632 98.977 166.65C96.8758 165.935 93.5738 164.51 93.0714 162.007C92.8063 160.684 93.7725 159.262 93.9147 157.941C94.0818 156.386 93.9504 154.676 93.4768 153.185C93.0594 151.871 92.3678 150.654 91.8227 149.393C91.1877 147.922 91.7562 147.946 92.9899 147.779C94.4664 147.579 96.1895 146.748 97.5774 146.206C99.1763 145.582 100.761 144.711 102.225 143.815C103.55 143.004 104.702 141.959 105.757 140.824C106.829 139.67 107.524 138.302 108.561 137.119C112.388 141.826 116.025 146.605 120.092 151.108C122.011 153.233 124.099 154.991 126.464 156.607C127.451 157.283 128.431 158.053 129.507 158.587C130.853 159.255 132.357 159.669 133.74 160.278C139.043 162.615 144.104 165.169 149.051 168.184C151.444 169.642 153.453 171.314 155.56 173.144C156.216 173.713 161.59 177.033 159.765 178.077ZM97.5589 139.518C96.7019 139.906 95.8851 140.41 94.9707 140.659C95.2299 139.082 96.7016 136.703 98.5884 136.965C99.3094 137.065 99.8531 137.625 99.5363 138.397C99.2484 139.098 98.1693 139.241 97.5589 139.518ZM37.9101 96.7432C36.9385 97.2796 36.0333 97.592 35.4637 96.4407C35.8856 96.356 37.8024 96.1006 37.9101 96.7432ZM36.2925 93.4885C35.5418 93.2608 36.1422 93.0214 36.4005 92.7466C36.6018 92.5329 37.2681 91.7828 37.5013 91.659C38.5311 91.1134 39.3271 93.1432 39.8195 93.802C38.6537 93.6985 37.4275 93.8326 36.2925 93.4885ZM44.3198 100.517C42.8968 100.758 43.0548 98.9773 43.0973 98.0754C43.3975 98.4417 45.4294 100.329 44.3198 100.517ZM49.0356 97.4414C47.3008 97.7341 46.1544 94.7368 46.4654 93.4257C46.7391 92.2707 48.0837 91.6259 49.1539 91.4555C50.1914 91.2903 51.6357 91.5157 51.9439 92.7121C52.2162 93.7695 50.192 97.2462 49.0356 97.4414ZM90.1024 142.69C88.8556 143.073 87.634 143.121 86.3809 143.497C84.9591 143.924 83.6434 143.886 82.2188 144.176C81.6392 144.294 80.0757 145.139 79.5103 144.95C78.9504 144.763 78.1398 143.025 77.818 142.573C80.3385 141.526 82.4888 140.173 84.15 137.965C85.4712 136.21 86.8879 133.58 86.0568 131.314C85.1194 128.759 81.8883 128.205 79.7341 129.272C78.7149 129.776 77.7048 130.404 76.8646 131.173C75.9038 132.052 75.526 133.012 74.9036 134.096C74.2741 135.193 73.8325 134.583 73.2036 133.651C72.6662 132.855 72.7363 132.051 72.0646 131.266C71.7219 130.865 71.1914 130.479 71.0126 129.961C70.8991 129.633 71.138 129.051 70.9231 128.793C70.6206 128.43 70.2528 128.856 69.9994 128.532C69.8155 128.297 69.8756 127.76 69.6855 127.466C69.5207 127.298 69.3373 127.155 69.1346 127.037C68.8886 126.915 68.8438 126.763 68.9998 126.58C68.8042 126.218 68.9927 126.096 68.5739 125.656C67.921 124.969 67.3257 124.311 66.861 123.501C66.6486 123.13 66.6697 122.58 66.4057 122.259C66.0436 121.818 65.4403 121.884 65.129 121.339C64.8516 120.852 65.0372 120.002 64.5799 119.561C64.3387 119.492 64.0975 119.424 63.856 119.358C63.6744 119.181 63.5686 118.967 63.5384 118.715C63.2844 118.324 63.2339 117.865 62.9132 117.452C62.2994 116.662 61.4737 115.931 60.9314 115.098C60.3615 114.223 60.6637 114.075 61.6539 113.762C62.5468 113.479 63.3622 113.216 64.1899 112.735C68.0165 110.508 71.6444 104.601 65.5706 102.796C63.3166 102.126 61.4649 100.325 58.9657 101.033C57.8823 101.34 56.8545 101.993 56.0462 102.769C55.4877 103.305 54.9706 104.738 54.2849 105.013C53.0521 105.507 53.5733 104.273 53.2235 103.707C53.0564 103.436 52.3838 103.125 52.1347 102.878C51.8421 102.59 51.5593 102.225 51.3563 101.868C50.9794 101.206 50.7488 100.837 50.2051 100.297C50.0001 100.093 48.9769 99.0412 49.8998 99.1787C49.526 98.0397 50.0714 97.8685 50.8252 97.0362C51.7104 96.059 52.6245 94.7011 52.6296 93.3318C52.6399 90.7028 49.5246 89.525 47.5682 91.0855C47.1702 91.403 44.8156 94.4683 45.2974 92.5135C45.5571 91.4592 47.9622 88.707 49.0772 89.4192C47.8276 87.5979 44.9573 92.0199 44.2873 92.9247C43.7168 91.8744 43.6763 91.0526 42.7323 90.2395C41.964 91.4721 42.3697 90.125 42.2003 89.8511C41.8343 89.2599 42.0353 89.9362 41.8368 89.7262C41.5896 89.4645 41.2005 89.2582 40.9376 88.9118C40.4872 89.523 40.6671 88.8653 40.5291 88.6371C40.2063 88.1032 40.3312 87.7939 39.7781 87.3297C39.3756 86.9922 38.5827 86.468 38.041 86.4201C37.4163 86.3647 37.2433 86.6041 36.6069 86.4269C35.7973 86.2018 34.7783 85.856 35.1703 87.2102C35.4548 88.1943 36.6118 88.7535 36.8652 89.759C37.1204 90.771 36.1197 91.7911 35.6342 92.6208C35.0107 93.6853 34.5009 93.5983 33.3713 93.8383C32.6495 93.9918 31.6861 94.3199 32.3051 95.1956C32.7472 95.8213 33.7833 95.6895 34.3669 96.0601C35.1851 96.5797 35.1737 97.8608 36.2183 98.0836C37.3687 98.329 38.0279 97.0482 38.9978 96.7389C39.6875 96.5189 41.824 96.5435 42.3668 97.0613C43.1067 97.7669 42.4675 99.1151 42.6536 99.9916C42.9305 101.292 43.81 101.371 44.9222 101.413C46.2915 101.464 46.7728 102.778 47.5092 103.821C49.234 106.264 50.7331 108.868 52.4999 111.278C53.2819 112.345 54.426 113.294 55.0664 114.453C55.8572 115.883 54.7593 116.708 53.8119 117.734C52.574 119.076 51.6497 120.602 50.576 122.069C49.6218 123.372 48.4361 123.047 46.9113 123.047C47.2512 122.347 47.66 121.91 48.4959 121.995C47.6218 120.928 46.9227 122.149 46.3557 122.825C45.5354 123.803 44.466 124.039 43.4123 124.682C43.0394 124.909 41.0089 126.384 41.6259 126.888C41.696 126.945 45.057 124.734 45.4399 124.531C45.4399 125.347 45.2615 126.195 45.3758 127.007C45.4596 127.602 45.8781 128.223 45.7889 128.842C45.6198 130.01 44.1102 130.93 43.4622 131.841C42.9744 132.526 43.0921 133.066 42.8438 133.801C42.6174 134.472 42.7363 134.269 42.1721 134.476C41.0231 134.898 39.0896 134.671 38.0493 134.071C37.4035 133.698 36.9083 133.11 36.3837 132.591C35.9886 132.2 34.9947 131.532 34.8849 130.985C34.6965 130.042 36.567 128.292 36.9374 127.32C37.9828 124.577 36.1898 122.445 33.3998 122.289C34.2597 121.626 35.3257 122.126 36.232 122.379C34.6825 120.232 32.0362 121.999 30.7219 123.458C29.8238 121.188 29.3908 118.793 28.8422 116.425C28.4685 114.813 27.0461 111.936 27.6804 110.276C27.9872 109.474 28.8531 109.027 29.4521 108.47C30.1326 107.838 30.7153 107.082 31.2128 106.3C32.3852 104.456 33.062 102.129 31.448 100.312C31.9384 100.232 32.4291 100.151 32.9195 100.07C32.1217 99.3208 30.8633 99.686 29.8281 99.4638C29.1712 99.3228 27.2813 99.4141 26.8428 99.0423C26.3154 98.5955 26.6535 96.5389 26.6723 95.9303C26.7157 94.5079 26.8345 93.1404 26.9916 91.7266C27.1405 90.391 27.1105 88.9481 27.3865 87.6359C27.6106 86.571 28.3265 86.2466 29.1527 85.6192C31.1273 84.1187 32.7364 82.2937 32.0622 79.7081C32.3011 79.6701 32.54 79.6322 32.7789 79.5942C32.0063 79.0356 31.0064 79.2387 30.1471 78.9434C30.9363 76.7221 32.6817 72.8175 35.5156 72.6072C35.6131 73.6001 35.5464 74.7811 36.2164 75.6031C36.979 76.5387 38.3178 76.6331 39.351 76.1381C40.2884 75.6884 41.1686 74.7357 41.6008 73.7944C41.893 73.1573 41.8403 72.0799 42.3534 71.5749C43.0417 70.8975 47.7863 71.3061 47.6409 72.4494C47.5554 73.1216 46.2867 74.2515 45.932 74.8473C45.2831 75.9375 44.7637 77.1168 44.5253 78.369C44.1635 80.2705 44.3731 82.7808 46.3041 83.7805C48.5002 84.9178 51.1767 83.4718 52.9777 82.2227C53.9667 81.5367 54.9247 80.7798 55.8281 79.9848C56.3094 79.562 56.7929 79.126 57.2172 78.645C57.5302 78.2897 57.7805 77.7171 58.166 77.4511C59.0766 76.8229 59.9692 77.8888 60.7399 78.4273C61.9952 79.3043 63.2442 80.1372 64.5916 80.8671C67.3257 82.3482 69.8257 84.3101 72.2431 86.258C74.6747 88.2176 77.1819 90.2335 79.1516 92.6747C77.9585 93.4086 78.1715 93.5992 77.6406 94.9083C77.264 95.8373 76.7451 96.6279 76.6852 97.6602C76.5817 99.4415 77.7253 100.96 79.461 101.354C80.4317 101.575 81.3566 101.398 82.2558 101.001C82.9546 100.693 83.6514 99.9334 84.3815 99.7448C85.7389 99.3947 86.8251 101.959 87.5861 102.862C90.9654 106.874 94.5374 110.727 97.7194 114.902C98.0718 115.365 99.1187 116.268 99.2036 116.881C99.3259 117.76 97.9426 118.598 97.369 119.102C97.0677 119.366 93.8728 122.372 94.9457 122.849C95.2513 122.985 96.1465 121.142 96.3703 120.984C97.2082 120.394 96.5744 121.551 96.5245 122.136C96.3997 123.59 97.3984 124.382 98.8022 124.198C100.3 124.001 101.634 122.819 102.561 121.702C103.723 123.047 105.539 125.081 105.875 126.879C106.09 128.027 105.096 130.838 106.951 131.072C107.234 131.108 108.259 130.347 108.45 130.779C108.609 131.139 107.501 131.755 107.342 131.874C106.659 132.384 106.247 132.93 105.696 133.547C105.049 134.271 104.165 134.882 103.437 135.576C102.67 136.307 101.153 138.293 100.141 137.334C99.6327 136.851 99.7664 136.221 98.9519 135.938C98.2101 135.68 97.2704 136.007 96.581 136.293C95.8049 136.614 93.249 137.788 92.9653 138.755C92.5742 140.088 94.6868 138.486 95.0623 138.251C94.634 139.339 94.3971 140.913 93.3063 141.547C92.4 142.074 91.0965 142.384 90.1024 142.69ZM75.6141 134.466C76.3394 132.134 80.6171 127.977 83.3207 129.277C80.1697 129.938 77.6694 132.094 75.6141 134.466ZM77.2138 141.142C76.1595 140.554 76.2163 138.848 75.8482 137.849C75.6369 137.276 75.2144 136.858 75.3387 136.222C75.4841 135.477 76.4346 134.648 76.9407 134.111C78.5333 132.419 81.3358 130.107 83.8991 130.494C87.1618 130.988 84.95 135.369 83.839 136.877C82.8922 138.163 79.2435 142.273 77.2138 141.142ZM69.6025 138.291C66.0741 138.055 62.5577 137.74 59.0774 137.092C57.8435 136.862 56.8097 136.896 57.5157 135.478C57.7489 135.009 59.1544 132.075 59.4717 132.159C59.6599 132.209 59.6168 134.226 59.6722 134.457C59.9213 135.495 60.621 136.463 61.8004 136.397C63.7303 136.289 64.9742 133.794 65.9903 132.455C66.8042 133.549 67.3935 134.765 68.2118 135.841C68.6029 136.356 69.9646 137.553 69.6025 138.291ZM48.9164 124.44C48.3246 125.799 47.134 127.091 46.3061 128.321C45.8379 127.33 45.5086 125.056 46.6191 124.323C47.0393 124.046 49.2908 123.582 48.9164 124.44ZM61.1538 128.485C61.3166 127.962 61.4971 127.444 61.6984 126.934C62.0436 128.021 62.2201 128.053 61.1538 128.485ZM64.1742 129.598C64.6024 130.324 65.3163 131.038 65.2042 131.95C65.1193 132.64 64.4949 133.348 64.049 133.83C63.3112 134.626 61.6764 136.154 60.6073 135.097C59.7141 134.214 60.0251 131.785 60.4405 130.791C61.0338 129.371 63.1532 127.869 64.1742 129.598ZM62.0787 128.111C62.3242 128.013 61.8084 126.429 62.2871 126.271C62.7045 127.223 63.0979 127.48 62.0787 128.111ZM55.3366 106.788C55.1775 106.203 54.8129 106.227 54.9443 105.505C55.0304 105.031 55.4065 104.525 55.6919 104.149C56.2604 103.401 57.0105 102.784 57.8216 102.317C59.5339 101.332 61.8854 100.922 63.4184 102.465C61.9852 102.691 57.5915 104.106 57.5635 106.066C59.1573 105.759 60.4106 104.159 62.0091 103.654C63.3212 103.24 64.7441 103.269 66.0493 103.706C69.6222 104.903 68.1365 107.991 66.12 109.997C64.9229 111.188 63.4874 112.077 61.9182 112.69C61.192 112.974 60.7464 113.006 60.0325 112.863C59.8988 112.836 59.7426 112.588 59.5823 112.535C59.1841 112.403 59.2995 112.85 58.9714 112.649C58.6851 112.474 58.0744 111.344 57.8797 111.021C57.5698 110.506 57.4253 110.005 57.0449 109.535C56.6641 109.065 56.4787 108.435 56.1264 108.01C55.9573 107.805 55.4937 107.813 55.3691 107.613C55.1824 107.313 55.4202 107.095 55.3366 106.788ZM49.8496 129.818C50.6615 128.407 52.0508 127.209 53.1257 125.976C53.1918 128.003 51.7384 129.391 49.8496 129.818ZM50.9469 130.47C52.6239 129.88 53.5479 128.468 53.719 126.756C53.9359 124.588 55.2973 123.45 56.1169 121.502C56.4311 120.756 56.7975 118.299 58.0157 119.002C58.4337 119.243 58.6814 120.15 58.8992 120.56C59.4261 121.551 60.0251 122.512 60.5839 123.486C61.0389 124.278 61.7209 125.075 61.5202 126.029C61.3451 126.861 60.7818 127.747 60.4519 128.531C59.673 130.384 58.6498 132.09 57.7948 133.902C57.4498 134.633 57.0415 136.364 55.9884 136.355C55.1547 136.348 55.248 135.436 54.6991 135.124C54.0063 134.73 53.2186 135.48 52.6496 135.791C53.3047 134.684 54.4505 134.058 55.7383 134.266C54.1962 132.731 53.1545 134.803 51.831 135.264C50.5772 135.701 48.3525 133.639 47.2968 133.055C47.7008 132.371 48.0657 131.534 48.7602 131.084C49.4191 130.657 50.2276 130.723 50.9469 130.47ZM37.3129 144.503C37.4965 143.619 38.0153 143.096 38.3443 142.293C38.7258 143.267 37.8326 143.841 37.3129 144.503ZM63.9566 149.929C63.8666 152.906 63.6234 155.876 63.5355 158.855C63.4951 160.228 63.2519 161.538 63.0905 162.896C62.9539 164.044 63.0235 165.172 62.3008 166.153C61.1612 167.699 58.946 168.144 57.226 168.717C55.963 169.137 54.6855 169.519 53.4381 169.986C52.316 170.407 51.4114 171.044 50.3442 171.544C49.3897 171.991 48.3591 172.256 47.4088 172.733C46.4261 173.226 45.6492 173.827 44.6397 174.265C43.4311 174.791 42.4353 175.725 41.3604 176.467C40.4142 177.12 39.4132 177.625 38.5992 178.446C37.836 179.217 36.8698 179.555 36.0048 180.239C35.0902 180.963 34.1328 181.433 33.1224 182.001C31.0526 183.164 28.2601 185.151 25.7691 184.021C26.4816 183.111 27.9396 182.236 28.0505 180.983C28.1948 179.349 26.7733 179.951 25.9502 180.472C24.7034 181.262 24.0138 182.215 23.0647 183.268C21.9551 184.499 20.5535 183.671 19.1958 183.325C20.1241 182.489 21.045 181.646 21.9716 180.809C22.7539 180.102 23.9508 179.338 24.4272 178.361C24.7676 177.662 24.751 176.705 23.9294 176.342C23.0102 175.937 21.9707 176.792 21.2899 177.301C19.4827 178.653 18.2924 180.368 17.1058 182.25C16.4746 183.25 16.1838 183.174 15.0225 182.974C13.7921 182.762 12.5613 182.536 11.3205 182.387C12.9641 180.699 14.801 178.87 16.0991 176.895C16.5196 176.255 17.0681 174.569 15.7869 174.414C15.2589 174.35 14.2077 175.429 13.8003 175.72C12.0204 176.993 10.3093 178.597 9.12951 180.455C8.74007 181.068 8.61776 181.75 7.86367 181.801C6.87779 181.867 5.04573 180.926 4.09464 180.636C5.91244 178.344 7.71741 176.036 9.84113 174.015C11.7924 172.159 13.7387 170.81 16.0207 169.386C18.4666 167.859 20.7448 166.101 22.9903 164.298C25.1396 162.571 27.3851 160.943 29.3637 159.015C33.3157 155.165 36.8359 150.737 39.751 146.054C40.433 144.958 41.075 143.834 41.6301 142.668C42.1513 141.574 42.3916 140.264 43.0953 139.268C43.3385 138.924 43.6809 138.669 43.8975 138.31C44.102 137.972 44.0327 137.563 44.3443 137.264C45.065 136.572 46.3773 136.989 47.051 137.474C48.1344 138.254 49.0108 139.201 50.2014 139.853C51.3991 140.51 52.6946 140.987 54.0206 141.31C57.1199 142.064 60.1925 142.682 63.3499 143.14C63.0249 144.345 63.8229 144.534 64.0872 145.619C64.4082 146.934 63.9968 148.589 63.9566 149.929ZM34.1137 129.836C33.411 128.792 32.784 127.7 32.0932 126.649C31.6727 126.009 31.1513 125.322 31.5108 124.539C32.1163 123.22 34.2526 122.985 35.4118 123.56C38.0473 124.868 35.5991 128.608 34.1137 129.836ZM27.1379 105.958C26.8953 103.917 27.6756 102.47 29.5216 101.4C30.8374 100.637 31.8968 101.679 31.7172 103.069C31.4438 105.187 29.1806 107.543 27.4535 108.648C27.3406 107.752 27.2448 106.855 27.1379 105.958ZM26.8565 100.119C27.401 99.6872 28.8593 100.239 29.4903 100.276C28.6227 101.035 27.7549 101.793 26.887 102.551C26.8303 102.031 26.3542 100.518 26.8565 100.119ZM29.7845 80.4123C34.1753 79.8413 29.1208 84.5535 27.8484 85.2919C28.0553 84.2893 28.564 80.5712 29.7845 80.4123ZM41.4736 72.1626C40.884 74.5776 36.3005 77.2123 36.2526 73.2563C36.2349 71.7823 37.0628 71.9016 38.2714 71.76C38.9607 71.6796 41.8106 70.7819 41.4736 72.1626ZM25.6417 75.9027C25.1271 77.2531 24.7145 78.6387 24.2102 79.9908C23.9867 80.5895 23.7238 81.0009 23.3076 81.4754C22.9592 81.872 22.5446 81.9721 22.5583 82.599C22.9948 82.5148 23.3364 82.2546 23.689 82.0038C23.6035 83.2467 23.1642 84.5843 22.9515 85.8232C22.6966 87.3089 22.4845 88.7951 22.4058 90.3017C22.235 93.5775 22.2336 96.8416 22.3054 100.119C22.3422 101.79 22.3588 103.461 22.4488 105.129C22.4939 105.959 22.5446 106.793 22.6473 107.618C22.6889 107.951 22.9307 108.66 22.7813 108.972C22.1948 110.197 19.597 106.831 18.4688 107.325C18.6311 106.393 18.2567 106.597 17.6315 106.138C17.3287 105.916 17.1317 105.538 16.8158 105.34C16.7203 105.237 16.6151 105.145 16.5005 105.065C16.3699 104.887 16.2322 104.906 16.0874 105.122C14.8164 104.362 14.488 102.743 13.8057 101.653C13.4548 101.093 13.1158 101.006 13.0559 100.232C13.004 99.5568 13.1055 98.8692 13.0782 98.1915C13.0471 97.4271 13.0023 96.5843 12.7879 95.8441C12.539 94.9847 12.1966 95.0549 11.5298 94.597C11.7353 94.5071 11.8708 94.3562 11.9363 94.1442C11.7234 94.1821 11.0762 94.446 10.9154 94.2563C10.5992 93.8837 11.3453 93.834 11.5415 93.6853C10.7047 93.3139 10.8849 93.0086 11.1868 92.3278C11.2723 92.1352 11.3539 91.8473 11.4266 91.6849C11.5854 91.33 11.6766 91.5548 11.7291 91.114C11.779 90.6937 11.4063 89.8671 11.2966 89.4194C11.1124 88.6682 11.0106 88.0191 11.176 87.2364C11.31 86.6027 11.6703 86.0289 11.6954 85.3772C11.7025 85.1943 11.4237 85.1336 11.42 84.9569C11.4146 84.6987 11.6555 84.5852 11.7182 84.3466C11.8782 83.736 11.806 83.0903 12.0797 82.5108C12.3261 81.9904 12.8236 81.317 13.1757 80.8628C13.4197 80.5481 14.0184 80.1934 14.084 79.778C14.1273 79.5026 13.6988 79.5343 13.7179 79.3269C13.7439 79.0461 13.9794 78.9551 14.0441 78.7465C14.2223 78.1739 14.267 77.6235 14.7275 77.1847C15.3074 76.6323 15.5594 76.8637 15.5833 75.9526C15.595 75.5081 15.2395 75.4396 15.43 74.9272C15.5334 74.649 15.8388 74.4846 16.0341 74.2875C16.614 73.7025 17.0048 73.183 17.4177 72.4602C17.7829 71.8217 18.3653 71.4502 18.7394 70.8986C19.2266 70.1799 18.4982 69.8235 19.4869 69.6207C19.3464 69.1744 19.197 68.8138 19.5668 68.436C19.8 68.1977 20.3918 68.3435 20.5983 68.0679C20.8349 67.7515 20.4851 67.0017 20.8417 66.7962C21.1317 66.6296 21.5659 67.1437 22.0215 66.8892C22.3687 66.6952 22.893 65.6238 22.7813 65.2301C23.6791 65.7351 23.4552 65.3873 23.8849 64.7393C23.9813 64.5941 24.2732 64.5618 24.3562 64.4152C24.5221 64.1221 24.4842 63.8234 24.7231 63.5852C25.1214 63.1886 25.7728 63.2904 26.211 63.0071C26.5731 62.7731 26.554 62.5209 26.8428 62.3C27.0897 62.1115 27.4951 62.0752 27.7352 61.8798C28.2053 61.4969 28.2099 61.0925 28.798 60.7627C29.4945 60.3724 30.1115 60.0403 30.745 59.5227C31.1581 59.1854 31.5501 58.5874 32.0334 58.3648C32.7016 58.057 33.2222 58.0353 33.876 57.5962C34.3484 57.2786 34.7951 56.7547 35.259 56.4871C35.6088 56.2857 35.8543 56.329 36.2953 56.2041C37.089 55.9789 37.2823 55.2311 37.9298 54.9267C38.3743 54.7175 39.0215 54.909 39.5096 54.7991C41.0286 54.4581 42.5291 53.7226 44.0532 53.3151C45.9138 52.8181 47.7874 52.3827 49.6623 51.9433C47.9394 54.2784 45.745 56.3852 43.5195 58.2399C42.7891 58.8487 38.786 61.6241 40.9436 62.8094C41.8097 63.285 43.6914 61.7485 44.3908 61.373C45.7989 60.6166 47.2574 60.0112 48.7323 59.3994C51.1171 58.4102 54.223 56.6509 56.8733 56.7924C55.2599 58.7717 53.246 60.3607 51.4008 62.1092C49.705 63.7161 47.15 65.2232 47.9497 67.8533C45.5677 67.2473 43.4283 66.5312 40.9519 66.6898C39.8426 66.7608 38.7327 66.6273 37.6285 66.7828C36.4276 66.9526 35.2969 67.3543 34.1431 67.707C33.2302 67.9857 32.2215 68.0077 31.3816 68.4714C30.9756 68.6956 30.4739 69.0158 30.1092 69.294C29.6231 69.6649 29.5125 69.9106 29.1307 70.3993C27.7688 72.1432 26.4511 73.7781 25.6417 75.9027ZM18.192 108.91C18.1176 108.608 18.05 108.333 17.9648 107.988C18.7229 108.455 18.7229 108.455 18.192 108.91ZM12.4629 99.2966C12.3694 99.4258 11.9768 99.4672 11.8628 99.3556C11.7208 99.217 12.094 98.6771 12.1539 98.5624C12.3018 98.676 12.6422 99.0478 12.4629 99.2966ZM10.8398 95.7979C10.9402 95.4293 11.0408 95.0609 11.1412 94.6923C11.2643 95.0338 11.82 95.4116 11.8323 95.7371C11.84 95.9528 10.9496 95.8456 10.8398 95.7979ZM11.162 96.3035C12.0318 96.8761 12.1228 97.5518 12.1487 98.5402C11.1078 98.1955 11.2572 97.1877 11.162 96.3035ZM26.2889 57.2997C26.2011 57.5374 25.8284 58.2778 25.5553 57.7599C25.4681 57.5942 26.1073 57.3679 26.2889 57.2997ZM26.0391 56.4925C26.2541 56.2988 26.6874 56.5399 26.9306 56.3832C27.1011 56.2734 27.0447 56.1621 27.1248 56.0971C27.1407 56.0839 27.3725 55.6149 27.4675 55.5084C27.6351 55.3213 28.0009 55.2046 28.2047 55.0356C28.7744 54.5634 29.096 53.9426 29.4543 53.3111C29.882 52.557 30.0183 52.4697 30.7079 52.1245C31.1835 51.8865 31.5521 51.5952 31.939 51.1906C32.3849 50.7247 32.3521 50.3911 32.7182 49.8818C32.8989 49.6304 33.1592 49.5993 33.3699 49.3967C33.6225 49.1542 33.7508 48.815 33.9843 48.5702C34.0852 48.4643 34.4091 48.4646 34.4701 48.3739C34.5479 48.2592 34.6087 47.8003 34.6817 47.7159C34.8211 47.9042 34.9608 48.0925 35.0999 48.2808C35.6496 47.3141 36.0507 46.5155 36.9699 45.8721C37.9352 45.1965 38.7686 44.2081 39.7664 43.6032C39.9905 43.4674 40.4475 43.41 40.6189 43.2097C40.9085 42.8708 40.6577 42.5692 40.8689 42.2813C41.1087 41.9549 41.5731 42.2191 41.8779 42.0784C42.2636 41.9004 42.374 41.3802 42.8706 41.4376C41.2375 43.3695 41.2581 46.3754 41.1714 48.7884C41.1338 49.8282 41.7886 50.3523 40.8219 51.1153C39.9996 51.7644 38.8401 51.5718 37.8679 51.9989C36.6471 52.5353 35.3414 52.8207 34.0958 53.2883C32.8074 53.7716 31.7714 54.6182 30.5314 55.1783C29.4381 55.6719 28.6914 56.3738 27.6913 56.9833C27.3195 57.2098 26.7436 57.5388 26.3003 57.268C26.0226 57.0983 25.6768 56.8195 26.0391 56.4925ZM44.4826 40.2937C44.5536 40.0192 45.9474 39.2979 46.2904 39.0625C46.805 38.7087 47.5668 37.8447 48.1413 38.188C48.3403 37.3908 49.1169 36.5037 49.8031 36.3348C50.5643 36.1471 51.8704 35.4942 52.6193 34.9244C52.838 34.7581 52.9101 34.5147 53.1676 34.3586C53.6158 34.0867 54.0605 34.2351 54.4922 33.8644C54.5583 33.808 55.1556 32.8216 55.1793 32.831C55.2098 32.9369 55.2377 33.0439 55.2619 33.1514C55.7152 32.9 56.1189 32.7 56.4015 32.3793C56.4656 32.3066 56.0502 32.1174 56.1814 31.9733C56.3419 31.797 56.7003 31.9941 56.8625 31.8266C56.3579 34.3318 56.7336 37.5563 59.275 38.8263C56.2527 39.153 53.3007 38.2442 50.241 38.8023C48.7765 39.0697 47.2877 39.5082 45.9554 40.1819C45.1391 40.5947 44.0954 42.0733 43.2829 41.3554C43.6053 40.9254 44.0971 40.6583 44.4826 40.2937ZM59.1476 33.0867C60.2777 31.7042 61.992 31.1573 63.7186 31.6523C65.74 32.2321 64.8875 33.6445 64.5822 35.2126C63.9988 34.3575 62.7353 33.5092 61.6593 33.4835C60.134 33.4473 60.7105 34.7181 61.6265 35.1735C62.4593 35.5872 63.8874 35.7025 64.4835 36.4549C65.0637 37.1871 64.8413 38.3843 64.9348 39.2477C64.4838 39.1806 64.0328 39.1136 63.5815 39.0465C63.9601 37.0316 62.2939 36.934 60.7404 36.3659C59.1704 35.7921 57.8615 34.6599 59.1476 33.0867ZM64.2101 28.1248V29.9949C63.5817 29.6365 62.9531 29.2784 62.3244 28.92C62.9531 28.655 63.5817 28.3899 64.2101 28.1248ZM69.2621 43.0671C71.3607 43.6357 73.4448 44.2375 75.4622 45.0221C76.1949 45.3072 76.9974 45.4079 77.7153 45.7297C78.399 46.0359 78.5016 46.0039 78.2584 46.6031C77.5773 48.2817 75.9637 47.9918 74.5498 47.735C72.3369 47.333 70.1698 46.7757 67.9845 46.2513C65.8486 45.7392 63.6675 45.4033 61.5638 44.7613C59.405 44.1028 57.3013 43.4791 55.0806 43.0442C54.4326 42.9173 49.3062 42.4471 49.345 41.9112C52.5737 41.4918 55.8977 41.9049 59.1407 41.9486C62.5112 41.994 65.9931 42.1809 69.2621 43.0671ZM66.4134 36.5739C66.4536 35.4198 66.4695 34.2619 66.6129 33.1146C67.5734 34.3001 68.4404 34.6551 69.6512 33.5437C70.8105 32.48 71.0691 31.9254 72.5387 32.9254C73.8129 33.7928 75.0183 33.7529 76.3713 32.9936C77.1967 32.5305 78.523 30.6383 79.3906 31.0277C79.804 31.2135 80.107 31.9619 80.5244 32.2372C81.0481 32.5822 81.8535 32.8216 82.4639 32.9554C83.9057 33.2713 84.7647 32.3439 85.6696 31.3522C86.9819 29.9138 86.9435 30.7493 88.1603 31.7465C89.5173 32.859 90.652 32.3154 91.8808 31.3661C92.6295 33.5594 92.9095 35.9548 93.121 38.2542C93.1923 39.0306 93.4589 40.1331 92.7615 40.682C92.27 41.0692 91.2268 41.0843 90.6347 41.2983C88.5192 42.0633 86.4864 43.1484 84.7171 44.5376C84.0277 45.0789 83.4267 45.7417 82.4848 45.6185C81.587 45.5009 80.7146 44.7494 79.9924 44.2532C79.209 43.715 78.4161 43.1039 77.5004 42.804C76.9641 42.6282 76.1051 42.6919 75.6358 42.3697C74.7634 41.7708 75.79 40.1998 75.5728 39.1453C75.4083 38.3446 74.9476 36.6752 73.8448 37.1446C72.2038 37.8428 73.1588 40.5685 74.0612 41.4193C72.2152 41.0915 70.1713 40.6127 68.3908 40.0044C67.0155 39.5344 66.364 37.9817 66.4134 36.5739ZM97.3744 42.1954C101.164 41.1314 104.71 40.4138 108.654 40.2201C110.4 40.1342 112.09 40.1884 113.816 40.2041C114.81 40.2132 115.567 39.4118 114.773 38.4899C113.674 37.2133 110.323 37.6992 108.837 37.6419C104.857 37.4881 101.207 37.9406 97.4372 39.2528C97.8357 38.5184 98.7934 38.4231 99.45 38.0433C100.255 37.5771 100.802 36.8093 101.147 35.957C102.042 33.7406 101.141 31.652 100.204 29.6274C102.044 30.1221 103.946 31.2055 105.795 31.4805C106.183 31.5382 106.431 31.5011 106.774 31.6423C106.985 31.7288 107.051 32.0281 107.312 32.0934C107.438 32.1251 107.741 31.8403 107.883 31.8806C108.446 32.0398 108.001 32.082 108.357 32.3126C108.64 32.4955 108.617 32.7308 109.135 32.6444C109.365 32.6064 109.614 32.2509 109.735 32.2412C109.889 32.2287 109.854 32.0409 110.09 32.0957C110.519 32.1956 110.481 32.7488 110.624 33.021C110.777 33.3109 110.56 33.6964 111.024 33.855C111.37 33.9737 111.457 33.6079 111.751 33.6342C111.93 33.6502 112.301 33.9078 112.459 34.0647C112.968 34.5703 113.665 35.1287 114.349 35.4577C114.282 35.3901 114.672 35.2272 114.579 35.1889C114.516 35.1635 114.925 35.2623 114.919 35.2608C115.314 35.3507 115.523 35.9573 115.722 36.1784C116.09 36.5839 116.66 37.0119 117.175 37.1908C118.064 37.5004 118.037 37.1303 118.362 38.1877C118.995 37.1931 119.237 38.8588 120.022 39.0423C120.428 39.1373 120.381 38.9632 120.75 39.1758C121.004 39.3216 121.173 39.7681 121.364 39.9836C121.446 39.6728 121.528 39.3618 121.609 39.0514C122.174 40.1219 123.394 41.8196 124.732 41.5126C124.732 41.8048 124.612 42.154 124.838 42.4034C124.996 42.5777 125.251 42.3797 125.375 42.481C125.483 42.5695 125.741 42.9216 125.823 42.9795C125.986 43.0936 126.282 43.1769 126.423 43.2908C126.548 43.3909 126.61 43.8694 126.748 44.0423C127.008 44.3673 127.457 44.4318 127.669 44.8215C127.717 44.4372 127.766 44.0526 127.814 43.6683C128.235 43.9938 128.272 44.2466 128.375 44.7228C128.523 45.401 128.327 45.2421 128.795 45.5283C129.254 45.8099 129.494 45.7782 129.916 46.2667C130.329 46.7455 130.332 47.0405 130.928 46.5418C131.039 46.9107 131.075 47.3881 131.371 47.6708C131.594 47.8845 132.52 47.8937 132.609 48.3984C130.869 46.931 132.014 49.1596 132.609 48.4021C132.735 49.213 133.329 49.4749 134.006 50.0524C134.639 50.5905 134.742 50.5515 134.958 51.4557C134.953 51.4357 135.275 51.6357 135.299 51.6756C134.683 51.7635 135.638 52.4517 135.799 52.5776C135.917 52.6694 136.07 52.45 136.266 52.5987C136.49 52.7687 136.672 53.1553 136.854 53.3885C137.348 54.0205 137.713 54.5634 138.232 55.0773C138.793 55.632 139.065 56.333 139.604 56.9813C140.201 57.7012 140.524 58.5289 141.023 59.3104C141.497 60.0537 142.128 60.6503 142.677 61.3308C143.554 62.4139 143.852 64.7992 145.485 64.862C145.389 64.961 145.522 65.7003 145.538 65.8367C145.615 66.508 145.564 67.154 145.961 67.762C146.052 67.0684 146.415 67.3358 146.73 67.7001C147.255 68.3064 146.794 68.1538 146.822 68.7681C146.855 69.5128 146.94 68.9367 147.224 69.587C147.446 70.0963 147.568 70.4267 147.687 70.9919C146.764 71.065 146.342 70.3111 146.001 69.5807C145.858 69.2751 145.809 68.7729 145.556 68.5341C145.288 68.2799 144.919 68.2599 144.643 67.9763C144.113 67.4314 143.884 66.5816 143.259 66.0512C142.554 65.452 142.398 65.169 141.815 64.4525C141.17 63.6602 140.279 63.1038 139.603 62.3374C138.925 61.5696 138.98 61.9888 138.129 61.7109C137.224 61.415 135.76 58.5688 134.619 59.6651C134.664 58.948 133.59 58.2735 133.048 58.0136C132.813 57.9015 132.54 58.003 132.305 57.8347C132.05 57.6521 132.032 57.3 131.775 57.0809C131.776 57.0812 131.382 57.1764 131.302 57.1362C131.139 57.0538 131.138 56.7622 130.994 56.6663C130.597 56.4006 130.123 56.1222 129.701 55.8959C128.676 55.3461 127.77 54.669 126.781 54.007C125.933 53.4398 124.907 52.4155 123.928 52.1165C123.072 51.8554 122.534 51.9884 121.834 51.4654C121.452 51.1806 121.564 51.085 120.951 50.9078C120.367 50.7392 120.039 50.8259 119.73 50.2068C119.189 49.1234 119.53 47.0089 119.426 45.7939C119.315 44.5045 119.183 43.1832 118.846 41.9295C118.449 40.4478 117.924 39.6731 116.334 40.0221C113.185 40.7143 110.074 41.3728 106.91 41.9806C100.607 43.1915 94.4111 45.1676 88.2458 46.9221C87.7762 47.0559 85.1564 47.6557 85.6916 46.301C85.9382 45.6761 87.5963 45.4433 88.1514 45.247C91.1986 44.1684 94.2597 43.0696 97.3744 42.1954ZM96.3153 39.438C95.8548 39.6135 95.3947 39.789 94.9342 39.9647V38.6845C95.3947 38.9356 95.8548 39.1866 96.3153 39.438ZM94.402 32.6686C94.802 32.9956 95.6154 32.2087 95.9555 32.0492C96.5365 31.777 97.2763 31.5433 97.9255 31.5992C99.1227 31.7028 99.9982 32.8815 99.779 34.0764C99.4078 36.0983 96.5271 37.0544 94.9388 37.8447C94.8878 37.1283 94.656 36.2669 95.1583 35.6472C95.5945 35.109 96.4404 35.1481 96.843 34.5758C97.856 33.1372 95.1107 33.0068 94.4972 34.1506C94.2551 33.4196 94.0131 32.6886 93.771 31.9576C94.3552 31.8609 94.0986 32.421 94.402 32.6686ZM97.2353 28.7112C96.6637 29.0807 96.092 29.4502 95.5207 29.8197C95.2373 28.5406 96.2029 28.3722 97.2353 28.7112ZM149.316 73.2312C148.567 73.5884 148.38 72.7353 147.842 72.6985C148.478 72.3076 148.478 72.3076 149.316 73.2312ZM152.36 91.8584C152.453 93.0844 152.38 94.3248 152.544 95.546C152.668 96.475 153.044 97.3395 153.085 98.2791C153.172 100.337 152.478 102.432 151.074 103.941C149.747 105.368 147.848 106.596 146.056 107.196C145.248 107.466 144.405 108.065 143.621 108.286C142.754 108.531 141.929 107.998 141.214 108.954C140.737 104.852 141.085 100.565 141.048 96.4368C141.01 92.2995 141.054 88.1609 140.354 84.0682C139.731 80.4231 138.502 76.3232 136.238 73.3413C135.318 72.1304 134.185 71.1386 132.99 70.2101C132.371 69.7285 131.75 69.2135 131.06 68.8332C129.998 68.2477 129.093 68.3287 127.937 68.1618C126.283 67.923 124.746 67.7212 123.086 68.1869C121.541 68.6206 119.839 69.1145 118.455 69.8678C117.076 70.6184 115.475 70.9277 114.044 71.6C113.07 72.0573 111.048 73.5853 109.968 73.3102C108.922 73.0437 107.374 71.269 106.706 70.4741C105.853 69.458 105.147 68.2805 104.39 67.1874C104.124 66.8036 103.582 66.2104 103.513 65.7177C103.393 64.8623 103.736 65.1419 104.553 65.2375C106.654 65.484 108.63 65.8738 110.644 66.5351C111.646 66.8641 113.606 68.1955 114.608 67.3977C116.138 66.1796 113.813 64.0862 112.961 63.3829C111.511 62.1845 109.824 61.2946 108.277 60.2297C106.634 59.0981 104.461 57.8935 103.404 56.151C106.492 57.0626 109.576 58.1066 112.574 59.2819C113.946 59.8194 115.302 60.3875 116.59 61.1025C117.313 61.504 118.775 62.5899 119.646 62.0698C121.541 60.939 117.19 57.6552 116.563 56.9841C115.587 55.9413 114.632 54.9084 113.56 53.9622C112.836 53.324 111.7 52.8752 111.364 51.9336C112.564 52.3681 113.535 53.2193 114.659 53.7976C115.247 54.1006 115.784 54.275 116.434 54.3677C117.127 54.467 117.21 54.5774 117.756 54.8528C118.181 55.0676 118.618 55.3546 119.095 55.5007C119.435 55.6049 120.029 55.6229 120.326 55.8157C120.478 56.0326 120.635 56.2457 120.797 56.4551C120.979 56.5085 121.157 56.5698 121.333 56.6398C121.597 56.8749 121.753 57.199 122.01 57.4415C123.871 59.202 126.361 60.462 128.449 61.9368C130.423 63.3321 132.519 64.5944 134.415 66.1171C136.598 67.8699 138.863 69.7536 140.719 71.8553C141.768 73.0431 142.631 74.3899 143.512 75.7032C144.15 76.6542 145.078 77.4432 145.629 78.4238C146.832 80.5618 147.83 82.8729 149.124 84.9763C150.444 87.1197 152.162 89.2494 152.36 91.8584ZM134.619 104.263C134.979 102.78 137.008 101.047 138.305 100.393C137.651 102.009 135.91 103.112 134.619 104.263ZM137.965 109.439C136.859 111.734 131.996 111.996 132.656 108.6C132.979 106.937 134.351 105.916 135.529 104.827C136.074 104.324 137.407 102.524 138.25 102.814C138.211 104.108 138.134 105.408 138.137 106.702C138.139 107.566 138.357 108.627 137.965 109.439ZM136.56 82.9922C137.008 84 137.455 84.8391 136.623 85.7407C136.247 86.1476 135.023 87.0378 134.469 86.8401C132.692 86.2061 136.081 83.4456 136.56 82.9922ZM125.808 74.0255C126.236 74.0021 126.652 74.0658 127.075 74.0398C127.496 74.0135 127.541 73.9388 127.932 73.9921C127.973 74.0521 128.014 74.112 128.055 74.1719C128.109 74.5739 128.32 74.6176 128.688 74.3031C129.201 74.4173 129.535 74.4935 130.025 74.7705C128.702 75.7249 127.091 76.8346 125.468 77.155C122.903 77.6612 123.612 74.1465 125.808 74.0255ZM86.4884 95.4883C86.2224 96.0233 85.4575 94.6866 85.2682 94.4375C85.6211 94.4363 86.7573 94.9485 86.4884 95.4883ZM107.097 81.4049C109.089 80.2422 111.456 79.221 113.596 78.3553C113.973 80.1686 112.137 82.5094 111.007 83.75C110.093 84.7535 108.991 85.7941 107.751 86.3716C106.411 86.9959 104.947 86.7217 105.012 84.9698C105.036 84.3295 105.181 83.2995 105.442 82.7143C105.778 81.9599 106.413 81.8032 107.097 81.4049ZM80.1595 48.4224C80.456 48.405 83.6779 47.9884 83.6608 48.3893C83.6101 49.5942 80.4828 48.6481 80.1595 48.4224ZM57.376 71.6878C59.0777 69.5881 61.8249 67.3218 61.8651 64.3872C61.9244 60.0691 57.1322 62.2236 54.7228 62.4031C55.9969 61.1513 62.3989 55.8999 58.6121 54.0347C57.5236 53.4986 55.9767 54.0224 54.8845 54.3032C52.9466 54.8017 51.1448 55.6648 49.2412 56.2654C50.6014 54.8174 52.9518 53.1716 52.8748 50.9786C52.7807 48.3091 50.5894 48.9545 48.6946 49.3462C47.9665 49.4969 44.7138 50.7908 44.1028 49.9123C43.879 49.5905 44.2411 49.1816 44.3178 48.8951C44.4532 48.3881 44.4113 48.2112 44.4158 47.6933C44.4253 46.6485 45.1195 45.3069 44.5533 44.3351C44.4238 44.5559 44.3129 44.7856 44.2208 45.0244C44.0341 44.4589 44.1595 43.8591 43.9728 43.2936C48.7032 44.5034 53.5154 45.1656 58.2754 46.1982C60.6851 46.721 62.9531 47.6212 65.3958 48.0263C67.8594 48.4346 70.2802 49.0598 72.7483 49.4492C75.0003 49.8045 77.1577 50.396 79.3877 50.8496C81.5616 51.2919 83.7911 50.3226 85.9128 49.8319C90.6652 48.7328 95.4158 47.6069 100.174 46.5403C105.666 45.3092 111.378 44.2566 116.634 42.2034C116.736 44.94 116.955 47.6714 117.289 50.3891C114.968 49.2917 111.523 47.8608 109.176 49.8245C108.237 50.61 107.948 51.9664 108.319 53.12C108.723 54.3757 109.961 54.9589 110.777 55.9042C108.292 55.267 101.881 50.7752 100.74 55.3156C99.9338 58.5223 103.865 60.5938 105.788 62.3988C103.879 62.025 101.322 60.4988 100.201 62.9517C99.2324 65.0723 100.399 67.3797 101.594 69.1288C102.242 70.0763 102.971 70.9683 103.659 71.8864C104.023 72.3721 104.379 72.8645 104.761 73.3359C105.145 73.8087 105.869 74.3037 106.138 74.8125C106.679 75.8385 105.587 75.9013 104.737 76.2719C103.676 76.7347 102.765 77.5119 101.795 78.1314C99.5737 79.5497 97.6322 80.8671 95.007 81.3205C92.3042 81.787 89.7018 82.2743 87.0347 82.9251C84.3758 83.574 82.2054 84.1974 79.4875 83.3588C78.2485 82.9765 77.2392 82.6367 75.9249 82.7086C74.5444 82.7842 73.7373 82.7126 72.6023 81.8574C67.7183 78.179 62.4168 75.1605 57.376 71.6878ZM48.5709 67.9949C50.4586 67.0479 52.3587 66.096 54.3086 65.2823C55.9225 64.6083 58.3732 63.8234 60.14 64.1187C59.6419 65.3981 58.733 66.4478 57.7583 67.39C56.8961 68.2231 55.819 69.4806 54.7758 70.0621C53.8284 70.5899 52.7262 69.7539 51.792 69.4035C50.7653 69.0189 49.3526 68.8394 48.5709 67.9949ZM49.0453 72.7729C49.9859 72.382 52.0075 73.6937 52.8631 74.0347C54.5443 74.7052 56.235 75.4054 57.7166 76.4631C55.9074 78.5539 53.8584 80.4656 51.4236 81.8087C49.8216 82.6923 47.1217 83.7058 45.6107 82.1014C43.7122 80.0853 45.9945 75.9771 47.3384 74.2495C47.3829 74.5451 47.4277 74.8404 47.4724 75.136C47.9012 74.4495 48.2285 73.1125 49.0453 72.7729ZM83.5781 90.6686C82.4046 90.9157 82.0058 90.6926 81.2312 89.7926C80.7075 89.1843 80.1928 88.5526 79.6024 88.0056C78.9997 87.4475 77.5115 86.1017 79.4077 86.8766C81.136 87.5828 82.6165 87.936 84.5181 87.6593C86.6923 87.3431 88.7194 86.4238 90.863 85.9584C89.6878 86.9867 88.5212 88.0253 87.3437 89.0508C86.0998 90.1342 85.1587 90.3356 83.5781 90.6686ZM83.8464 98.9391C81.2748 100.874 76.0974 100.665 77.8399 96.4068C78.1048 95.7599 78.4751 95.1514 78.9036 94.6004C79.0464 94.4164 79.3008 94.0352 79.5043 93.9116C80.0731 93.5667 79.9154 93.525 80.4623 94.1002C80.9341 94.5964 84.6213 98.6506 83.8464 98.9391ZM83.084 91.54C83.3195 91.4635 84.3123 90.888 84.5383 91.2064C84.7673 91.5289 82.8212 92.6442 83.084 91.54ZM101.806 121.056C101.228 122.44 96.6001 124.443 97.4622 121.654C97.844 120.418 98.2041 119.483 99.6447 119.389C100.476 119.335 102.315 119.838 101.806 121.056ZM110.107 102.306C110.869 101.197 113.385 99.6972 114.459 101.351C114.977 102.148 113.721 102.557 112.961 102.352C112.553 102.241 112.22 101.998 111.777 101.979C111.207 101.956 110.65 102.403 110.107 102.306ZM112.127 103.408C111.609 103.932 108.485 106.561 107.978 106.156C108.999 104.697 110.17 103.068 112.127 103.408ZM107.024 130.012C105.939 130.073 106.481 128.438 106.586 127.784C106.849 128.24 108.23 129.943 107.024 130.012ZM109.781 127.081C109.43 126.457 108.484 125.527 108.698 124.724C108.862 124.109 110.338 123.283 110.956 123.636C111.777 124.104 110.587 127.185 109.781 127.081ZM135.524 120.533C135.06 122.132 134.579 121.719 133.124 122.029C131.664 122.34 130.655 123.579 129.369 124.244C129.816 123.3 130.093 122.15 130.84 121.384C131.013 121.207 132.072 120.858 131.469 120.448C130.941 120.09 130.182 121.252 129.956 121.569C128.843 123.128 128.064 125.031 127.421 126.825C127.105 127.706 126.852 128.603 126.702 129.528C126.569 130.352 126.713 131.215 126.577 132.018C126.358 133.311 124.602 133.317 123.545 133.651C122.589 133.953 121.637 134.28 120.645 134.442C119.784 134.583 118.891 134.327 118.057 134.496C117.154 134.68 116.749 135.215 115.722 135.094C114.886 134.996 114.103 134.611 113.255 134.572C112.461 134.537 111.669 134.811 110.88 134.588C110.084 134.362 110.122 134.275 110.303 133.492C110.417 133.703 110.53 133.915 110.644 134.125C110.961 133.877 111.18 133.118 111.375 132.762C111.676 132.21 111.922 132.019 111.811 131.332C111.646 130.316 110.731 129.594 110.523 128.629C110.306 127.621 111.051 126.797 111.491 125.956C112.093 124.805 112.085 123.951 111.581 122.761C111.961 122.861 112.342 122.962 112.722 123.062C112.201 121.93 110.433 122.389 109.546 122.724C109.1 122.893 108.394 123.555 107.915 123.538C107.256 123.515 106.912 122.649 106.629 122.172C105.81 120.792 104.874 119.429 103.905 118.147C103.638 117.795 103.289 117.568 103.381 117.167C103.46 116.826 104.224 116.343 104.472 116.133C105.401 115.346 106.585 114.911 107.458 114.083C108.778 112.833 110.299 111.937 111.649 110.711C113.054 109.435 114.503 108.262 115.968 107.055C117.451 105.833 118.736 104.393 120.209 103.158C120.591 103.85 121.33 106.326 122.176 106.518C123.162 106.741 123.132 105.575 123.083 104.873C123.014 103.873 122.458 102.901 122.396 101.946C122.33 100.925 123.312 100.468 124.054 99.8778C125.199 98.9653 127.734 96.887 126.371 95.1765C125.198 93.703 121.381 96.5281 120.329 97.3775C119.435 98.0993 118.744 98.7522 117.737 99.3217C117.029 99.7217 115.842 101.261 115.003 101.119C114.005 100.95 113.615 99.8598 112.394 99.8958C111.201 99.9306 110.187 100.79 109.447 101.653C107.775 103.603 107.2 106.213 105.676 108.246C104.924 109.248 103.949 110.075 103.134 111.024C102.239 112.065 102.049 113.264 101.166 114.282C98.6403 110.917 95.8882 107.731 93.2245 104.476C91.8942 102.851 90.5916 101.207 89.2898 99.5585C88.802 98.9408 88.2518 98.3613 87.805 97.7124C87.1932 96.8239 87.3033 96.1103 87.0629 95.1194C86.9566 94.6803 86.4579 94.1541 86.5913 93.7344C86.771 93.1703 88.032 92.7275 88.4867 92.497C90.3436 91.5542 92.0279 90.3761 93.7594 89.2246C96.9659 87.0923 100.209 85.0928 103.62 83.2715C103.561 84.0562 103.05 84.8693 103.393 85.6566C103.553 85.2038 103.806 83.1862 104.41 83.0995C104.295 83.116 104.39 85.6868 104.483 86.0537C104.763 87.1491 105.572 87.8981 106.731 87.8907C108.937 87.8764 110.915 85.4762 112.14 83.8861C112.969 82.8096 113.765 81.5576 114.057 80.2103C114.32 79.0005 114.031 78.159 115.289 77.5447C117.869 76.2845 120.47 75.2576 123.23 74.5893C123.106 75.7786 122.761 77.2426 123.842 78.098C125.035 79.0421 126.597 78.2007 127.72 77.5761C128.833 76.9575 130.548 75.2581 131.855 75.7517C133.141 76.2374 134.036 77.8495 134.755 78.92C135.389 79.8636 136.079 80.5441 135.345 81.5958C134.522 82.7745 133.986 83.9249 133.327 85.2052C133.073 85.6974 132.832 86.0183 133.011 86.5225C133.069 86.6863 133.73 87.6607 133.909 87.8002C135.054 88.6913 136.6 86.9964 137.417 86.353C137.706 89.1236 137.77 91.8818 137.886 94.6609C137.972 96.6964 138.76 98.7002 137.089 100.188C135.419 101.676 134.026 103.203 133.008 105.217C132.464 106.293 131.977 107.397 131.388 108.451C130.995 109.155 130.167 110.187 130.674 111.015C131.209 110.508 131.368 109.736 131.814 109.163C132.081 110.351 132.35 111.67 133.607 112.173C135.054 112.753 136.491 111.75 137.772 111.192C137.313 114.369 136.417 117.456 135.524 120.533ZM134.046 124.184C133.053 126.306 132.156 128.864 130.324 130.426C129.921 130.769 128.211 132.108 127.56 131.884C127.008 131.693 127.312 130.577 127.408 130.099C127.896 127.671 128.741 126.143 130.71 124.594C131.525 123.953 132.571 123.134 133.621 122.976C134.752 122.805 134.427 123.369 134.046 124.184ZM162.044 174.54C159.47 171.041 155.833 168.321 152.395 165.692C150.838 164.501 149.122 163.608 147.549 162.417C145.771 161.07 143.964 159.771 141.972 158.756C138.195 156.831 134.075 155.49 130.511 153.214C128.773 152.104 126.871 151.032 125.237 149.786C124.519 149.238 123.885 148.538 123.236 147.911C122.633 147.329 121.339 146.483 121.1 145.63C122.103 145.466 122.673 144.493 123.568 144.394C123.863 144.361 125.711 144.85 125.458 143.954C126.129 143.937 126.207 143.927 126.768 143.78C127.001 143.719 127.277 143.814 127.512 143.731C127.872 143.604 128.117 143.237 128.48 143.096C128.738 142.997 129.698 143.108 129.843 142.984C130.24 142.644 129.818 142.674 129.581 142.251C130.353 142.231 130.883 142.621 131.657 142.206C131.892 142.08 132.092 141.789 132.32 141.638C132.725 141.371 132.871 141.786 133.149 141.23C133.408 141.996 133.401 141.784 134.026 141.559C134.649 141.335 135.099 141.172 135.809 141.116C137.504 140.982 139.205 141.188 140.892 141.067C141.509 141.023 142.037 140.883 142.65 140.964C143.19 141.035 143.027 141.41 143.476 140.905C143.581 140.787 143.243 140.465 143.405 140.296C143.476 140.221 143.709 140.274 143.797 140.236C144.586 139.891 144.589 140.372 144.729 140.999C145.192 140.891 145.664 140.793 146.066 140.521C145.863 140.34 145.523 140.14 145.719 139.809C146.386 140.062 146.822 139.945 146.489 140.678C147.16 140.899 147.286 140.61 147.889 140.547C148.245 140.51 148.743 140.731 149.04 140.446C149.365 140.135 148.853 139.797 149.449 139.53C149.571 139.592 149.661 139.686 149.721 139.811C150.042 139.909 149.985 140.035 149.547 140.192C150.719 140.799 150.444 140.12 150.936 139.401C151.049 139.236 151.559 138.722 151.79 138.97C152.142 139.347 151.424 139.466 151.578 139.841C151.845 140.491 152.776 139.658 153.062 139.329C153.278 139.081 153.366 138.604 153.599 138.418C153.923 138.161 154.389 138.559 154.794 138.488C156.646 138.163 158.395 135.673 157 134.007C156.625 133.559 156.308 133.648 155.861 133.365C155.419 133.086 155.171 132.602 154.817 132.203C154.008 131.292 153.017 130.61 151.886 130.173C149.262 129.161 146.435 128.423 143.679 127.879C142.403 127.628 141.044 127.243 139.738 127.246C138.968 127.247 137.809 127.846 137.089 127.559C135.69 127.001 137.744 124.148 138.083 123.226C139.079 120.518 139.83 117.63 140.323 114.787C140.419 114.231 140.382 113.51 140.582 112.98C140.812 112.37 140.862 112.457 141.354 112.407C142.244 112.317 143.216 112.784 144.143 112.622C145.169 112.444 146.279 112.527 147.315 112.209C147.792 112.063 148.233 111.905 148.547 111.503C148.646 111.377 148.536 111.267 148.598 111.179C148.618 111.151 148.972 110.769 148.983 110.747C148.98 110.549 148.997 110.353 149.035 110.158C149.394 110.457 149.217 111.082 149.822 111.097C149.93 110.43 149.932 110.295 150.369 109.92C150.336 109.949 150.699 109.641 150.652 109.673C150.674 109.555 150.718 109.444 150.783 109.341C150.988 109.242 151.204 109.19 151.431 109.184C151.904 108.697 151.708 108.438 151.708 107.783C152.09 107.981 152.471 108.18 152.853 108.378C152.945 106.438 154.127 105.376 154.911 103.804C155.246 103.134 155.587 102.61 155.666 101.802C155.713 101.336 155.592 100.925 155.785 100.485C155.96 100.087 156.352 99.8718 156.516 99.4375C156.838 98.583 156.598 97.4922 156.615 96.6048C156.64 95.3742 156.763 94.1476 156.803 92.9175C156.882 90.5028 156.639 88.0213 156.278 85.6346C156.105 84.493 155.816 83.3854 155.589 82.2558C155.402 81.3273 154.955 80.4565 154.796 79.5928C154.729 79.2339 154.832 78.9117 154.724 78.5148C154.581 77.993 154.343 77.48 154.165 76.9675C153.751 75.7706 153.342 74.5754 152.876 73.397C151.974 71.1132 150.918 68.8979 149.914 66.6581C148.949 64.5042 148.149 62.2835 146.899 60.2722C145.667 58.2912 144.341 56.3436 142.984 54.4473C141.57 52.4726 139.783 50.7757 138.412 48.7827C135.837 45.0407 132.246 41.9572 128.489 39.4109C120.737 34.1563 112.36 28.91 103.064 27.1085C101.663 26.8372 100.244 26.6488 98.8165 26.6137C97.9307 26.5918 96.4627 27.02 95.6239 26.7202C94.6845 26.3843 94.7703 25.3292 94.5354 24.5015C94.2329 23.4375 93.5507 22.7404 92.776 21.9883C91.9606 21.1965 91.2205 20.2718 90.2036 19.7334C89.1729 19.1881 87.9573 18.9841 86.8154 18.8192C85.7959 18.6717 84.2726 18.8095 83.3412 18.3652C82.493 17.9604 82.9118 17.5389 83.7061 17.8856C83.7643 17.5352 83.8113 17.309 84.036 17.0382C84.1486 16.9021 84.6812 16.7112 84.694 16.5842C84.7091 16.4356 84.2624 16.0122 84.1985 15.8204C84.0611 15.4076 84.1392 14.8358 84.3023 14.4483C85.1031 15.1602 85.3352 15.4755 86.2293 14.795C86.607 14.5076 86.7228 14.381 87.1601 14.236C87.2787 14.1966 87.5447 14.3182 87.6482 14.25C88.0434 13.9898 87.6799 14.0511 87.8677 13.7435C87.8204 13.8211 88.1523 13.0037 88.1366 13.1746C88.1768 12.7392 88.3057 12.873 88.0428 12.338C87.5279 11.2914 86.2167 11.2486 86.885 10.0543C87.1479 9.58434 87.3794 9.63113 87.4535 8.94977C87.4931 8.58342 87.4438 8.16342 87.4421 7.79078C87.439 7.02867 87.5824 6.49511 86.8682 6.10707C86.182 5.73386 85.5487 6.14331 85.2702 5.21771C84.9782 4.24646 85.2722 3.0013 84.2202 2.3362C83.4513 1.85029 82.3411 2.26572 81.4915 2.02805C80.6402 1.79009 79.8573 0.918985 78.9931 1.58779C78.3793 2.06314 78.0535 3.23184 76.8968 2.59984C76.3748 2.3148 76.0874 1.35782 75.7581 0.821119C75.2335 -0.0342889 74.813 -0.343297 74.0059 0.489855C73.5084 1.00373 72.4592 2.2546 72.3951 2.96591C72.3246 3.75113 73.0097 4.07926 72.1496 4.54377C71.294 5.006 70.8139 4.66703 70.1194 5.60518C69.4306 6.53592 69.9637 7.05007 69.1657 7.94058C68.1682 9.05363 67.6373 9.53412 67.6513 11.0338C67.661 12.0624 66.7521 12.9509 67.2823 13.9267C67.8765 15.0204 69.6105 15.4752 70.6619 15.9203C70.311 16.5688 69.8294 16.9846 70.2391 17.6522C70.6103 18.2568 71.6595 18.3824 72.3098 18.2725C72.7472 18.1989 72.7628 18.2651 73.1072 17.9575C73.3328 17.7561 73.0234 17.5047 73.4878 17.3931C73.9822 17.2739 74.7717 18.2428 75.0927 18.4851C74.3754 19.4161 72.405 19.5902 71.3627 20.0621C70.7275 20.35 70.1436 20.7757 69.4967 21.0331C68.91 21.2664 68.1958 21.2122 67.6638 21.5735C66.7449 22.1972 66.3626 23.7425 65.7995 24.651C65.1621 25.6793 64.544 26.1569 63.3209 26.3704C61.795 26.6366 60.5662 26.7436 59.1433 27.4081C57.4056 28.2196 55.6927 29.0764 53.9861 29.9512C51.2332 31.3621 48.6761 32.8105 46.1199 34.517C43.4456 36.3026 40.8444 38.1663 38.2642 40.0321C35.712 41.8773 33.5692 44.1473 31.3523 46.3788C29.5601 48.1827 27.9875 50.1297 26.2022 51.933C24.0947 54.0624 22.5446 56.7499 20.5906 59.0088C19.5214 60.2446 18.4985 61.4598 17.8276 62.9155C17.284 64.0956 16.3386 65.2535 15.7074 66.4915C14.9008 68.0745 14.1376 69.6321 13.2321 71.1626C12.8606 71.7906 12.419 72.3295 12.027 72.929C11.5246 73.6968 11.5543 74.4384 11.4192 75.3235C11.278 75.1075 11.1372 74.8915 10.9961 74.6758C10.7403 75.2345 10.431 75.784 10.2095 76.3561C10.0681 76.721 10.0903 77.2392 9.94832 77.5584C9.77014 77.9593 9.55317 77.906 9.33108 78.2398C9.09359 78.5967 9.01719 79.0764 8.76687 79.4593C7.68491 81.1142 7.26866 83.2142 6.71272 85.1025C5.96689 87.6359 6.08464 90.5476 6.12512 93.1598C6.16818 95.9189 6.31899 98.678 6.73381 101.408C7.10958 103.88 7.91299 106.252 9.17085 108.42C10.2668 110.308 11.7781 111.409 13.7139 112.377C14.6029 112.821 15.428 112.684 16.3611 112.755C17.3832 112.832 18.0802 113.11 19.1616 112.866C19.6805 112.749 19.926 112.371 20.3382 112.245C20.5934 112.167 20.7308 112.294 20.9757 112.265C21.3261 112.222 22.0548 112.05 22.4349 112.092C23.6172 112.221 23.4188 114.008 23.5351 114.921C23.7141 116.327 23.8453 117.748 24.0867 119.145C24.5945 122.083 25.6907 124.828 26.3385 127.715C23.3358 128.082 20.7602 128.642 17.946 129.779C15.1226 130.918 12.2682 131.305 9.29687 131.872C6.51714 132.402 3.84346 133.393 1.61854 135.187C0.575641 136.028 -0.507741 137.012 0.258039 138.397C0.747842 139.283 1.63051 139.508 2.39259 140.023C2.54654 139.828 2.10121 139.415 2.01968 139.3C2.6603 139.432 2.64062 139.731 3.10848 139.991C3.51731 140.219 3.85202 140.211 4.29963 140.371C5.39242 140.764 5.92926 141.743 7.00951 142.018C7.34935 142.105 7.79382 142.312 8.14136 142.371C8.55874 142.441 8.87121 142.258 9.2943 142.336C9.52267 142.486 9.76957 142.594 10.035 142.658C10.2089 142.577 10.3808 142.492 10.5502 142.402C11.158 142.465 11.5335 142.848 12.0273 143.162C12.0603 142.766 12.0127 142.355 12.3874 142.097C12.5336 142.482 12.2973 142.725 12.6964 142.99C13.2022 143.326 13.8665 142.907 14.3192 142.694C14.4472 143.974 17.4088 143.898 18.3477 143.88C19.6477 143.855 20.9464 143.339 22.2578 143.627C22.927 143.773 23.6411 143.927 24.3071 144.117C25.1091 144.346 26.0787 144.551 26.8682 144.84C27.1821 144.955 27.5667 145.324 27.9008 145.299C28.1668 145.279 28.2381 144.887 28.5477 144.898C28.8981 144.911 29.0159 145.301 29.3192 145.418C29.7731 145.594 30.1905 145.26 30.6218 145.429C30.7769 145.489 30.987 145.749 31.1855 145.834C31.4868 145.962 32.083 145.964 32.4182 146.026C32.8935 146.114 33.3192 146.055 33.7263 146.084C34.0547 146.107 34.0476 146.328 34.2047 146.343C34.3849 146.359 34.6988 145.739 34.9408 145.648C35.2935 145.516 35.9335 145.831 36.293 145.887C33.6878 149.418 30.5466 152.539 27.1416 155.272C23.4687 158.22 19.7076 161.165 15.7689 163.751C12.1929 166.099 8.73123 168.129 5.95863 171.444C3.6208 174.238 -0.100617 177.229 0.473005 181.279C1.04634 185.327 5.44117 186.974 8.96273 187.747C13.3918 188.718 17.9511 188.327 22.3921 188.874C24.286 189.107 26.3904 188.982 28.2968 188.784C30.5486 188.549 32.4784 187.08 34.4142 186.017C37.8962 184.106 40.8732 181.548 44.3029 179.577C48.5971 177.109 52.8463 174.494 57.5541 172.841C59.7443 172.072 61.9991 171.195 63.7659 169.613C64.0288 169.378 64.2246 169.023 64.5217 168.829C65.0266 168.499 65.162 168.833 65.4551 168.733C65.6806 168.656 65.899 168.413 66.094 168.34C66.5881 168.155 66.8085 168.231 67.3616 168.231C66.8869 167.957 66.4524 167.252 66.9451 166.677C67.7887 165.692 67.9341 167.266 68.2511 167.63C68.5197 167.285 68.4168 166.978 68.3481 166.586C68.575 166.735 68.8022 166.885 69.0294 167.035C68.8729 166.276 69.0217 165.577 69.424 164.915C69.7949 164.305 69.8865 164.391 69.9888 163.546C71.1409 164.598 71.3661 162.045 71.4699 161.114C71.5703 160.212 71.471 159.564 72.0646 158.775C72.7018 157.927 73.6709 157.392 74.4797 156.733C75.7575 155.693 77.1634 154.379 78.9304 155.377C80.3254 156.165 81.0844 158.095 82.3932 159.088C83.187 159.69 84.0249 159.75 84.5309 160.684C84.94 161.438 85.0729 162.341 85.4592 163.116C86.3949 164.993 87.742 167.142 89.2787 168.583C90.7091 169.923 92.5454 169.916 94.2192 170.748C95.8762 171.571 97.5979 172.463 99.3522 173.06C101.268 173.712 103.334 173.989 105.199 174.778C106.158 175.184 107.016 175.796 107.984 176.185C109.028 176.604 110.127 176.9 111.185 177.284C115.376 178.806 119.477 180.672 123.879 181.516C125.832 181.89 127.64 182.907 129.607 183.121C130.45 183.213 131.139 183.329 131.964 183.54C133.259 183.871 132.985 184.047 133.462 185.127C134.247 186.905 136.164 185.852 137.642 185.896C140.007 185.968 142.337 185.585 144.698 185.567C148.828 185.536 152.805 185.07 156.8 183.714C160.81 182.353 165.377 179.073 162.044 174.54Z" fill="black"/>
<path fill-rule="evenodd" clip-rule="evenodd" d="M43.1378 42.5153C42.9442 45.6814 42.7503 48.8472 42.5566 52.0133C43.8027 51.6544 51.7299 49.322 51.2403 51.6869C50.889 53.3831 48.6602 55.218 47.5248 56.3989C46.4797 57.4862 45.4036 58.545 44.3 59.573C46.3283 58.7966 48.3734 58.0614 50.4333 57.3735C51.9919 56.8531 53.562 56.345 55.1591 55.9549C55.7519 55.81 57.3527 55.2188 57.9127 55.622C59.3844 56.6811 51.3994 64.4821 50.3056 65.5816C51.8522 64.8624 53.4359 64.209 55.0467 63.6484C56.2096 63.2435 59.8024 61.6965 60.8315 63.0175C61.9331 64.431 59.2042 67.6767 58.4474 68.7058C57.363 70.1803 56.1879 71.5949 54.9549 72.9475C60.0796 77.5505 66.1016 81.6473 72.5106 84.1937C77.2099 86.0608 81.8259 86.5361 86.7846 85.5115C91.8788 84.4587 96.7642 82.4399 101.408 80.1317C104.136 78.7759 106.827 77.3091 109.391 75.6611C108.334 74.3752 107.308 73.0628 106.311 71.7301C104.888 69.8274 103.139 67.7483 102.327 65.4832C101.533 63.2663 104.513 63.6992 105.942 63.8196C108.011 63.9939 110.075 64.3639 112.104 64.8064C110.67 63.809 109.261 62.7716 107.882 61.7005C106.083 60.3048 103.685 58.7265 102.507 56.7184C101.472 54.9526 103.744 55.3986 104.795 55.63C107.299 56.1818 109.736 57.1219 112.125 58.0389C113.874 58.7105 115.613 59.4138 117.334 60.1544C116.266 59.2255 115.233 58.252 114.24 57.2425C112.906 55.8859 111.106 54.2291 110.508 52.3609C109.29 48.5562 117.485 51.4262 118.884 52.0133C118.625 48.0721 118.367 44.1308 118.109 40.1895C107.258 43.0768 96.4067 45.9645 85.5553 48.8521C84.3828 49.1642 82.9151 49.8438 81.6921 49.8801C80.5843 49.9132 79.2464 49.4144 78.1663 49.2082L58.5298 45.4563C53.3991 44.476 48.2685 43.4956 43.1378 42.5153Z" fill="#EACDCC"/>
<path fill-rule="evenodd" clip-rule="evenodd" d="M114.305 35.6309C114.361 35.6874 114.494 35.7217 114.305 35.6309V35.6309Z" fill="black"/>
<path fill-rule="evenodd" clip-rule="evenodd" d="M41.5575 111.353C42.4546 110.444 46.271 110.628 46.5595 112.254C46.8811 114.069 43.4709 116.81 42.223 117.579C40.6169 118.568 38.6565 118.753 38.9413 116.27C39.1567 114.394 40.2804 112.647 41.5575 111.353ZM44.7093 109.482C44.8257 109.984 43.968 109.813 43.7318 109.694C43.6205 109.466 44.5929 108.977 44.7093 109.482ZM38.128 112.81C38.8893 112.878 39.7614 111.657 40.3357 111.241C40.5896 111.634 38.9157 113.79 38.7316 114.282C38.2717 115.512 38.0158 117.065 38.6427 118.292C40.4752 121.875 45.1648 116.758 46.3376 114.97C47.1583 113.72 47.7264 112.17 46.5673 110.944C46.1546 110.508 45.4729 110.387 45.0894 109.972C44.5848 109.427 44.982 108.722 43.9674 108.841C43.2674 108.924 42.4268 109.555 41.7462 109.784C40.9258 110.059 40.1884 110.344 39.4724 110.855C39.311 110.97 37.1876 112.726 38.128 112.81Z" fill="black"/>
<path fill-rule="evenodd" clip-rule="evenodd" d="M91.9264 114.013C91.448 116.475 89.0081 119.001 86.4409 119.099C83.8842 119.197 83.0564 116.518 83.5077 114.383C83.8927 112.562 85.4664 109.399 87.7117 109.747C89.4768 110.021 92.3364 111.902 91.9264 114.013ZM90.2983 109.898C88.6773 108.643 86.4377 108.063 84.5589 109.058C83.9428 109.385 81.4839 110.824 82.2321 111.798C83.2411 111.016 84.1121 109.931 85.4231 109.671C85.2025 110.688 83.9434 111.602 83.4998 112.592C82.9812 113.748 82.6974 115.071 82.7823 116.342C82.9336 118.603 84.4483 120.36 86.7933 120.049C88.9403 119.765 90.8172 118.119 91.8415 116.269C93.2089 113.799 92.4384 111.554 90.2983 109.898Z" fill="black"/>
<path fill-rule="evenodd" clip-rule="evenodd" d="M75.2476 119.611C74.0933 121.32 72.3334 122.928 70.2986 123.456C67.6644 124.139 68.4045 121.962 69.1917 120.4C69.8878 119.018 71.0818 116.642 72.9001 116.655C73.5173 116.659 74.6668 116.958 75.2075 117.288C76.2736 117.938 75.8552 118.712 75.2476 119.611ZM72.789 115.855C73.2032 115.394 75.0372 113.416 75.2831 114.958C75.8098 114.347 75.3942 113.841 74.7201 113.776C73.9066 113.698 73.0174 114.604 72.4304 115.054C71.2222 115.98 70.2924 116.928 69.4917 118.226C68.6092 119.657 66.3584 122.891 68.3281 124.311C70.4571 125.846 73.5559 123.012 74.8889 121.55C75.7415 120.615 76.8707 119.242 76.5465 117.87C76.1484 116.186 74.1894 116.009 72.789 115.855Z" fill="black"/>
<path fill-rule="evenodd" clip-rule="evenodd" d="M63.7041 88.3131C62.5127 89.6724 60.0927 91.653 58.0986 91.4196C56.2798 91.2068 56.9899 89.1654 57.6336 88.1775C58.6005 86.6928 59.8958 85.2988 61.7676 85.2176C62.5755 85.1827 63.6226 85.199 64.2486 85.8109C65.1031 86.6466 64.3335 87.5953 63.7041 88.3131ZM63.5774 84.5367C62.1819 84.0545 61.6337 83.8707 60.2773 84.6373C59.1881 85.2529 58.2221 86.1229 57.4747 87.1108C56.3561 88.5896 55.2281 91.9159 58.1003 92.3319C61.2507 92.7885 68.745 86.3233 63.5774 84.5367Z" fill="black"/>
<path fill-rule="evenodd" clip-rule="evenodd" d="M67.8713 93.0235C66.9651 93.9493 65.8336 94.7046 64.5421 94.9623C65.0885 93.7434 66.3085 91.0801 67.7548 90.709C68.421 90.5379 69.1808 90.762 69.126 91.5213C69.0864 92.0701 68.2288 92.658 67.8713 93.0235ZM69.0381 89.8011C68.2876 89.425 68.5242 89.1681 67.6511 89.4632C66.9631 89.6954 66.0953 90.0987 65.5224 90.5635C65.2098 90.817 64.2366 91.7159 64.3556 92.1734C64.5715 93.0047 65.2974 91.7308 65.4882 91.4859C65.8152 91.7524 64.143 94.1453 64.0435 94.5391C63.6727 96.0057 64.8237 96.1608 65.952 95.6809C67.4733 95.0341 71.9786 91.2744 69.0381 89.8011Z" fill="black"/>
<path fill-rule="evenodd" clip-rule="evenodd" d="M91.3436 129.264C91.456 128.292 91.6155 127.264 92.5079 126.718C93.3119 126.225 94.1444 126.297 94.2635 127.306C94.3742 128.243 93.4559 129.908 92.713 130.42C91.6786 131.132 91.4793 130.244 91.3436 129.264ZM92.6726 131.476C94.7962 130.233 96.1349 124.534 92.2202 126.132C89.9956 127.039 90.8137 132.564 92.6726 131.476Z" fill="black"/>
<path fill-rule="evenodd" clip-rule="evenodd" d="M74.5357 107.844C74.8706 107.157 75.2536 106.93 75.9328 106.629C75.48 107.057 75.0173 107.451 74.5357 107.844ZM75.0255 106.152C74.5447 106.635 73.4423 107.37 73.5967 108.2C73.7378 108.956 74.3155 108.913 74.8397 108.677C75.939 108.183 76.5507 106.019 77.7004 105.817C76.4252 105.009 76.1274 105.046 75.0255 106.152Z" fill="black"/>
<path fill-rule="evenodd" clip-rule="evenodd" d="M75.1948 63.1879C75.2559 65.4918 75.3098 67.7953 75.3606 70.0992C75.3786 70.9089 75.1852 72.0631 75.4282 72.8387C75.5354 73.1802 76.5057 74.6612 76.85 74.757C78.0546 75.0923 77.6242 72.0725 77.6326 71.3289C77.6621 68.8204 77.6251 66.309 77.615 63.8001C77.6093 62.5073 77.9744 51.6671 76.297 51.7199C76.008 51.7292 75.2961 52.9687 75.1889 53.217C74.8519 53.9974 74.9759 55.1542 74.9838 55.9859C75.0065 58.3855 75.1311 60.7886 75.1948 63.1879Z" fill="black"/>
<path fill-rule="evenodd" clip-rule="evenodd" d="M85.3502 69.9044C85.4446 70.5413 85.395 71.6035 86.1121 71.9337C86.7359 72.2209 86.975 71.8793 87.2085 71.3456C87.745 70.1177 87.5513 68.2405 87.5415 66.9711C87.5217 64.4551 87.2384 61.9496 87.0426 59.4431C86.9565 58.3433 87.1352 57.2386 86.9978 56.0878C86.9374 55.5828 86.8773 53.5512 85.9411 53.6458C85.0946 53.7312 85.1708 55.8605 85.1248 56.4091C84.741 60.976 84.6744 65.3456 85.3502 69.9044Z" fill="black"/>
<path fill-rule="evenodd" clip-rule="evenodd" d="M125.305 122.347C124.946 124.182 119.092 130.569 117.619 126.996C116.744 124.877 118.64 122.57 120.118 121.343C121.032 120.584 122.175 119.839 123.422 120.069C124.48 120.264 125.532 121.182 125.305 122.347ZM122.282 119.057C121.869 119.155 118.413 121.582 118.381 121.55C118.081 121.249 120.261 118 120.485 117.716C122.333 115.374 123.559 117.147 124.715 118.987C124.469 117.888 123.792 116.293 122.66 115.828C121.232 115.241 120.118 116.689 119.43 117.731C118.459 119.203 117.923 120.801 117.384 122.462C117.126 123.254 116.833 123.972 116.397 124.686C115.967 125.391 115.214 126.168 115.326 127.06C115.937 126.72 116.262 126.054 116.647 125.506C117.077 125.68 116.929 127.051 117.017 127.4C117.236 128.276 117.835 128.962 118.762 129.113C120.488 129.394 122.352 127.796 123.507 126.712C124.723 125.568 126.033 124.001 126.022 122.241C126.011 120.403 124.203 118.603 122.282 119.057Z" fill="black"/>
<path fill-rule="evenodd" clip-rule="evenodd" d="M126.963 89.5861C125.984 91.0855 124.265 92.8829 122.446 93.2312C121.111 93.4868 120.23 92.4973 120.766 91.1615C121.219 90.0325 122.763 89.3196 123.775 88.823C124.577 88.4288 128.319 87.5113 126.963 89.5861ZM126.243 87.1337C124.236 87.058 122.617 88.5088 121.121 89.6667C121.459 88.3367 122.223 86.8895 123.3 86.0237C124.765 84.8454 126.153 85.577 127.695 86.1663C127.315 84.9656 125.607 84.5338 124.519 84.7034C123.143 84.918 122.154 86.0923 121.459 87.2284C120.629 88.5837 120.345 90.1809 119.368 91.4521C118.921 92.034 116.152 94.2112 116.779 95.1012C117.814 94.0032 118.848 92.9056 119.882 91.8076C120.15 93.1052 120.446 94.5828 122.103 94.4565C123.426 94.3556 124.935 93.2309 125.902 92.3714C127.152 91.261 129.611 87.2611 126.243 87.1337Z" fill="black"/>
<path fill-rule="evenodd" clip-rule="evenodd" d="M98.1313 99.9358C97.2812 100.327 95.41 100.858 94.9346 99.6836C94.2743 98.0525 96.3989 95.1914 97.4102 94.1047C98.0323 93.4359 98.4543 93.09 99.3216 93.5227C100.014 93.8684 101.031 94.8503 101.297 95.6054C101.867 97.2259 99.461 99.3243 98.1313 99.9358ZM100.082 92.102C100.774 92.258 100.859 93.1372 99.9932 92.7996C99.3445 92.5467 99.1938 91.9019 100.082 92.102ZM100.951 93.3402C100.692 92.5516 101.218 91.3148 99.9451 91.2579C99.2237 91.2257 97.9022 91.9591 97.2725 92.2572C96.3995 92.6703 95.5779 93.3009 95.1221 94.1892C94.6999 95.012 95.0013 95.229 95.645 94.546C95.7236 94.5995 94.1891 98.557 94.1758 98.9536C94.1159 100.766 95.3987 101.959 97.2003 101.638C98.8561 101.343 100.348 99.9885 101.26 98.6219C101.721 97.93 102.099 97.1383 102.134 96.291C102.187 94.9913 101.32 94.4688 100.951 93.3402Z" fill="black"/>
<path fill-rule="evenodd" clip-rule="evenodd" d="M108.894 92.6754C108.196 91.3299 109.814 89.0658 111.264 89.7281C114.282 91.1071 109.811 94.4394 108.894 92.6754ZM111.605 90.9191C111.281 90.9321 109.234 91.7231 109.535 92.259C109.949 92.9946 111.443 91.2149 111.605 90.9191Z" fill="black"/>
<path fill-rule="evenodd" clip-rule="evenodd" d="M12.6157 88.432C12.5348 87.8589 11.2503 88.6909 11.2578 89.06C11.4702 88.635 12.7843 89.6262 12.6157 88.432Z" fill="black"/>
<path fill-rule="evenodd" clip-rule="evenodd" d="M82.8639 45.1297C84.4991 45.0095 82.4157 36.7594 81.2239 37.489C79.932 38.2798 81.3633 45.2398 82.8639 45.1297Z" fill="black"/>
<path fill-rule="evenodd" clip-rule="evenodd" d="M85.9166 41.2775C87.4486 41.4969 87.2052 37.9789 86.3811 37.3493C84.8601 36.1871 84.0566 41.011 85.9166 41.2775Z" fill="black"/>
</svg>
