<svg width="170" height="173" viewBox="0 0 170 173" fill="none" xmlns="http://www.w3.org/2000/svg">
<path fill-rule="evenodd" clip-rule="evenodd" d="M84.2331 10.332C83.4486 12.4083 82.6645 14.4849 81.88 16.5612C81.3771 17.8918 80.8747 19.2221 80.372 20.5526C80.1936 21.0243 80.0944 21.5082 79.7497 21.8357C78.937 22.6069 77.4785 23.0976 76.5018 23.6401C75.8475 24.0036 75.193 24.3671 74.5388 24.7306C74.2014 24.9181 73.4534 25.1536 73.2169 25.4649C72.9568 25.8079 73.0797 26.4378 73.0797 26.9121V31.0069V38.7225C76.4594 38.2999 79.8394 37.8776 83.2192 37.4551C78.7162 42.6508 74.2136 47.8462 69.7106 53.042C68.6009 54.3223 67.2536 55.5548 66.4267 57.0445C64.667 60.2156 62.9468 63.4095 61.2074 66.5918C59.5882 69.5538 57.9689 72.516 56.3496 75.478L70.9172 74.858C74.6888 74.6975 78.5634 74.9389 82.1974 73.8699C85.1931 72.9888 88.1885 72.1079 91.1842 71.2268C91.5827 71.1094 92.8238 70.9769 93.1062 70.6562C93.3705 70.3558 93.365 69.221 93.4397 68.8367C94.8537 61.5692 96.6537 53.5606 100.78 47.3048C103.739 42.8204 107.732 38.8941 111.388 34.9836C112.815 33.4573 114.267 31.9493 115.643 30.3767C115.996 29.9739 116.505 29.5169 116.738 29.0277C116.889 28.7116 117.099 28.1093 117.006 27.8287C116.965 27.707 116.025 27.2705 115.89 27.1838C114.936 26.5711 113.991 25.9455 113.044 25.323C110.383 23.5734 107.725 21.8195 105.048 20.0933C102.962 18.7473 100.881 17.3201 98.6806 16.1635C96.3994 14.9645 93.8871 14.1206 91.4955 13.1734C89.0788 12.2159 86.6575 11.2694 84.2331 10.332Z" fill="#F4E2E1"/>
<path fill-rule="evenodd" clip-rule="evenodd" d="M166.257 121.253C165.097 122.347 162.984 123.814 161.313 123.147C160.474 122.812 159.757 122.076 158.993 121.602C158.095 121.044 157.251 120.486 156.49 119.743C154.971 118.259 153.822 116.092 152.028 114.931C151.425 114.541 150.248 114.457 149.83 113.834C149.643 113.554 149.625 113.13 149.66 112.807C149.735 112.111 150.111 112.152 149.483 111.641H150.458C150.477 111.264 150.101 111.233 149.821 111.281C149.951 110.684 150.084 108.346 148.995 109.406C148.051 110.324 148.523 111.848 147.855 112.842C147.343 113.604 145.985 112.987 145.801 112.149C145.719 111.773 146.134 111.185 146.183 110.816C146.292 109.997 145.926 109.29 145.395 108.67C144.231 109.446 144.891 111.052 144.227 112.071C143.627 112.994 142.289 112.563 141.375 112.401C140.279 112.206 139.04 112.403 137.991 112.144C136.407 111.754 136.999 109.894 136.842 108.694C136.674 107.409 135.375 105.625 135.765 104.328C136.185 102.936 138.635 102.635 139.807 102.297C142.485 101.525 146.304 101.376 148.295 99.2138C149.878 100.98 151.151 103.001 152.812 104.701C154.606 106.537 156.521 108.232 158.243 110.142C160.036 112.13 161.885 114.08 163.612 116.125C164.366 117.017 165.028 117.979 165.807 118.85C166.5 119.624 167.231 120.336 166.257 121.253ZM86.672 86.9127C87.4949 86.4751 87.5995 86.7494 87.5993 87.6506C87.3625 87.2178 87.1275 87.102 86.672 86.9127ZM79.6961 104.43V102.842C80.4893 102.821 80.0015 104.18 79.6961 104.43ZM79.5022 106.796C79.5022 106.092 79.4832 105.422 79.6859 104.738C79.7924 105.484 79.9957 106.129 79.5022 106.796ZM82.9126 155.116C83.6411 155.184 84.7638 154.682 85.3765 155.254C86.0059 155.841 85.9554 157.55 86.1045 158.344C86.3509 159.655 86.5691 160.971 86.7767 162.288C86.9128 163.152 87.0812 164.03 86.1045 164.36C84.6611 164.848 82.5988 164.151 81.0943 164.088C78.1224 163.963 75.1518 163.789 72.1774 163.729C69.2945 163.671 66.405 163.717 63.5353 164.017C62.239 164.152 60.9713 164.391 59.6882 164.608C59.0118 164.722 57.1997 165.2 56.5888 164.63C55.4395 163.557 57.3502 161.051 58.172 160.343C59.6973 159.03 61.8664 158.083 63.7789 157.512C64.801 157.207 66.5049 156.351 67.31 157.309C67.9277 158.043 67.9031 159.023 68.7883 159.58C70.8393 160.869 69.6393 157.171 68.3576 156.716C69.2182 154.702 70.8585 157.545 71.5389 158.229C71.781 158.472 72.5683 159.273 72.9103 158.87C73.1663 158.568 72.655 157.488 72.5602 157.194C72.4162 156.747 72.0519 156.068 72.1566 155.583C72.3462 154.707 73.5757 154.468 74.312 154.395C75.454 154.282 76.5742 154.644 77.7032 154.765C79.4345 154.95 81.1792 154.953 82.9126 155.116ZM71.4469 72.5524C69.1926 72.7319 66.9242 72.3871 64.6752 72.6693C62.5475 72.9364 60.5424 73.7177 58.5366 74.4353C61.5186 67.4413 65.3766 61.0745 70.0791 55.1102C72.4208 52.1396 74.9394 49.1896 77.4697 46.3782C78.6472 45.0702 79.8649 43.8055 81.0806 42.5343C82.165 41.4002 82.942 39.4742 84.2434 38.6273C85.3542 37.9044 87.2954 38.4199 88.5263 38.4648C89.9177 38.5155 91.611 38.642 92.9679 38.1789C93.9511 37.8433 94.2216 36.9477 92.9907 36.918C91.539 36.8828 90.1111 37.0341 88.6404 36.898C84.8297 36.5459 81.1564 35.9672 77.3148 36.2955C76.4347 36.3705 75.2763 36.7454 74.4127 36.6329C73.7916 36.5515 74.2 36.8638 73.7683 36.3654C73.603 36.1748 73.4038 35.7267 73.3549 35.4734C73.0798 34.0511 73.8608 32.0187 74.0476 30.5867C74.2205 29.2615 74.0674 27.8049 74.3909 26.5144C74.6854 25.34 75.5833 25.1834 76.689 25.0579C79.7138 24.7144 82.8008 24.5317 85.8393 24.2729C92.7737 23.6822 99.9284 22.7912 106.816 24.2508C109.303 24.7778 112.335 25.5928 114.557 26.8977C115.251 27.3056 115.952 27.7859 115.7 28.6311C115.437 29.5084 114.152 30.4351 113.516 31.0131C108.811 35.2838 104.268 39.64 100.963 45.1198C96.7484 52.1077 94.3298 59.6548 92.9108 67.6621C92.6056 69.3848 92.3222 70.2865 90.5499 70.7823C88.6472 71.3149 86.8107 71.6609 84.8378 71.8229C80.378 72.1891 75.9044 72.1968 71.4469 72.5524ZM72.9574 26.2759C72.6157 28.8197 72.1531 31.3578 72.1075 33.9216C72.0902 34.8899 71.9985 35.3751 70.9688 35.591C69.7549 35.8455 68.5206 36.0351 67.3011 36.2993C61.4154 37.5748 55.641 39.1414 49.8828 40.9046C44.2866 42.6187 38.7824 44.547 33.0604 45.8167C30.5991 46.3629 27.719 46.731 25.4771 47.9404C23.0655 49.2418 23.3828 51.3754 23.1663 53.7189C22.8771 56.8499 21.9486 59.8816 21.6221 63.0114C21.466 64.507 21.3237 66.0114 21.3473 67.5164C21.3673 68.7993 21.5511 70.2178 20.6888 71.2974C18.9587 68.9846 18.1387 66.0756 17.7978 63.2408C17.632 61.8629 17.6976 60.4738 17.6502 59.0895C17.6119 57.9749 17.6368 56.202 16.9108 55.2712C15.3326 53.2484 13.2801 61.3549 13.0849 62.2205C12.7567 63.6776 12.4859 65.1468 12.159 66.6041C12.014 67.25 11.8279 69.598 10.9625 69.832C9.16908 70.3171 9.56274 65.2776 9.53435 64.5103C9.47757 62.9615 9.43904 61.4109 9.47529 59.8608C9.50165 58.7419 9.71813 57.5278 9.58961 56.4084C9.27402 53.6598 7.72852 56.5556 7.29404 57.5787C6.19619 60.1615 5.69961 62.926 4.71507 65.5501C4.55132 65.9866 4.16653 67.456 3.55689 67.4834C2.87856 67.5136 2.88388 65.996 2.8451 65.5526C2.62 62.9825 1.8598 60.4304 2.08921 57.8337C2.32089 55.2116 3.24003 52.5161 4.54067 50.2355C7.29049 45.4136 12.2563 42.6451 17.0127 40.1231C22.4561 37.2374 28.2029 34.9576 34.0723 33.1003C41.1314 30.8666 48.3796 29.0592 55.6714 27.773C59.3812 27.1188 63.1482 26.6508 66.896 26.2757C68.2132 26.1439 69.5308 26.0668 70.8309 25.8161C71.3217 25.7213 73.0923 25.2708 72.9574 26.2759ZM76.7493 18.0439C74.8895 18.0586 72.9896 17.157 71.1777 16.7844C69.0205 16.3403 66.9138 15.6977 64.7604 15.2341C60.5437 14.3263 56.3246 13.4411 52.1117 12.5134C50.2828 12.1106 48.445 11.76 46.6232 11.3273C44.6742 10.8645 42.5684 10.3484 40.5735 10.847C37.5497 11.6029 36.2723 14.9111 35.1621 17.4929C34.3778 19.3165 33.7633 21.3492 32.5403 22.936C32.1048 23.5018 31.4858 24.1765 30.6962 23.9933C29.2292 23.6531 29.4622 21.7119 29.649 20.6389C29.9197 19.0817 30.3033 17.5428 30.6102 15.9927C30.7339 15.3671 31.6926 11.2726 29.9811 11.9065C28.7114 12.3768 28.0396 15.4738 27.559 16.5801C27.2018 17.4021 26.8234 18.2189 26.4226 19.0206C25.8878 20.0901 24.3618 23.6635 22.6723 23.2026C20.2545 22.5431 22.5737 16.1869 22.9856 14.8472C23.2117 14.1119 25.6693 8.53491 23.595 8.99068C22.7116 9.1851 21.851 10.8259 21.4006 11.506C20.6018 12.7124 19.8056 13.9273 19.0538 15.1633C18.2804 16.4346 17.8855 17.8815 17.1184 19.1342C16.7149 19.7935 15.8913 20.6721 15.0872 20.0617C13.8337 19.1109 14.5767 15.8034 14.7962 14.5527C15.2046 12.2274 16.219 9.84366 17.6109 7.94277C19.7025 5.08648 23.649 4.16354 26.9676 3.60866C31.2513 2.8923 35.5945 3.08825 39.8962 3.51208C44.734 3.98889 49.498 4.49941 54.2666 5.47432C59.0724 6.45683 63.8808 7.43149 68.6126 8.73086C70.8418 9.34303 73.1029 9.88574 75.3004 10.6044C77.6365 11.3681 79.9164 12.3187 82.3176 12.869C81.473 14.9768 80.6282 17.0845 79.7835 19.1925C78.9752 18.3927 77.8717 18.0348 76.7493 18.0439ZM118.149 23.8521C118.89 23.447 119.708 23.2559 119.979 22.3606C120.218 21.5694 119.809 20.6731 119.614 19.9137C119.068 17.7874 118.924 15.5849 119.408 13.4335C119.869 14.1385 121.598 16.85 122.65 15.2084C123.284 14.2183 121.584 12.794 121.088 12.0979C122.177 11.4262 123.731 9.62338 124.986 10.7106C125.796 11.4135 126.14 12.0903 127.232 12.432C128.558 12.847 129.806 12.7519 131.16 12.6373C132.108 12.5572 132.337 12.4307 132.707 13.1608C132.998 13.7347 133.148 14.4449 133.318 15.0612C133.653 16.2761 134.428 18.6701 133.51 19.8082C132.706 20.8052 129.587 19.9504 129.154 21.2374C128.917 21.9393 130.045 21.9644 130.476 22.3116C131.009 22.7416 131.451 23.4257 131.741 24.0369C131.955 24.4888 132.282 25.2356 131.916 25.6977C131.411 26.337 130.475 25.8521 130.068 25.3874C129.528 24.7702 129.353 23.9264 128.902 23.2541C128.074 22.0206 128.025 23.0019 127.799 23.8876C127.565 24.8077 127.012 24.7444 126.164 24.8625C124.676 25.0701 123.173 25.3629 121.724 25.7616C120.982 25.9659 120.263 26.2262 119.556 26.5304C119.1 26.7261 118.311 27.319 117.816 27.3246C116.901 27.335 116.266 25.8032 115.793 25.1641C116.578 24.7258 117.361 24.2835 118.149 23.8521ZM167.333 117.648C165.046 114.902 163.065 111.919 160.808 109.149C158.582 106.417 156.007 104.029 153.509 101.555C152.33 100.387 151.2 99.1056 149.899 98.0709C148.928 97.2988 148.181 97.2868 147.013 97.6288C143.695 98.6007 140.316 99.7705 137.176 101.221C134.252 102.571 131.589 104.305 128.418 105.058C125.181 105.827 121.815 106.074 118.498 105.884C115.095 105.688 111.886 104.98 108.65 103.94C105.585 102.954 102.39 102.093 99.7687 100.14C97.0209 98.0924 94.8979 95.1472 92.9309 92.3771C91.9349 90.9748 90.9463 89.502 90.2753 87.9127C89.6931 86.5334 89.3126 84.9055 88.2677 83.7813C88.0115 84.1446 87.6926 84.4561 87.5623 84.8827C87.503 85.0766 87.8523 85.0706 87.8165 85.2247C87.7488 85.5149 87.3625 85.811 87.1379 85.9689C86.3311 86.5367 86.3263 86.0848 86.5379 87.1466C86.6611 87.7656 86.4279 89.1621 85.4185 88.7058C85.7901 89.1507 85.1998 89.7122 85.0069 90.0787C84.8743 89.9264 84.7093 89.8734 84.5121 89.9193C84.8811 90.6544 84.6632 90.6739 84.3055 91.2577C84.2401 91.3644 84.0086 91.9228 84.0419 91.8757C83.6763 92.3963 83.254 92.5274 83.0408 93.1758C82.8657 93.7084 82.9105 94.2939 82.7154 94.8257C82.4794 94.4995 82.2434 94.1733 82.0074 93.8473C82.0555 94.1038 82.1519 94.4835 82.2639 94.7162C82.3344 94.8617 82.6365 95.2014 82.6325 95.2807C82.616 95.5773 82.2459 95.5061 82.1405 95.7619C81.9425 96.2417 82.2287 96.3124 82.1207 96.7806C81.997 97.318 81.6649 97.1031 81.507 97.5611C81.4771 97.6481 81.7103 97.9903 81.6733 98.1778C81.6213 98.443 81.381 98.5913 81.2961 98.827C81.0801 99.4268 81.1587 99.8658 80.8588 100.441C80.7427 100.664 80.5737 100.813 80.4918 101.066C80.42 101.289 80.5744 101.764 80.436 101.964C79.7673 102.927 79.8614 101.268 79.9121 100.856C80.3377 97.4022 81.7032 93.8371 82.9529 90.6085C83.5739 89.0044 84.1785 87.3502 84.9569 85.8138C85.2703 85.195 85.632 84.5565 86.1498 84.0832C86.8049 83.4845 87.7341 83.245 88.3273 82.5763C88.2338 82.6817 88.9704 81.9846 88.8525 82.2138C88.958 82.009 88.7739 81.7316 88.8393 81.5334C88.9207 81.2873 89.0746 81.2356 89.2459 81.0201C89.5539 80.6333 89.9197 80.4406 89.436 79.9479C90.1539 79.7892 90.4971 79.5562 90.6406 78.7874C90.7453 78.2249 90.5339 78.2617 90.903 77.8868C91.2733 77.5101 91.4609 77.8041 91.6944 77.1519C91.9734 76.3714 92.1587 75.3101 92.326 74.4933C92.472 73.7803 92.1177 72.7316 92.7187 72.2282C93.4799 71.5907 94.161 71.8606 94.0247 70.5785C93.8916 69.3286 94.2799 68.5714 94.6703 67.3886C95.4492 65.0274 95.7504 62.5344 96.4333 60.145C97.8911 55.0459 100.466 50.4484 103.235 45.9599C105.794 41.8124 109.371 38.2788 112.825 34.8757C113.771 33.9436 114.707 32.9981 115.556 31.9763C116.287 31.0965 116.621 29.8985 117.325 29.0633C117.752 28.556 118.547 28.339 119.143 28.0701C120.138 27.6214 121.323 27.0361 122.446 27.1269C122 28.6308 121.854 30.3882 123.171 31.516C124.768 32.8841 126.216 31.4628 127.68 30.6828C130.349 29.261 134.165 30.5662 136.492 28.4351C137.047 27.9276 137.201 27.1167 137.777 26.6427C138.2 26.2952 138.802 26.207 139.278 25.9479C140.724 25.1608 141.426 23.72 140.863 22.1284C140.348 20.6734 139.549 20.1687 141.329 19.4313C142.773 18.833 143.323 17.9317 142.669 16.3268C142.045 14.7968 140.903 14.6206 139.822 13.6193C138.775 12.6495 139.978 11.5207 140.762 10.7927C141.773 9.85355 141.967 9.00716 140.794 8.03047C139.566 7.00791 137.813 7.04365 136.382 7.54936C134.763 8.12097 133.697 9.07129 133.012 10.6112C132.314 12.179 130.585 11.7415 129.185 11.3045C127.846 10.8868 127.497 9.98536 126.618 9.01476C125.64 7.93516 123.647 8.85836 122.493 9.35164C119.652 10.5658 116.829 12.4822 116.716 15.8766C116.649 17.9007 117.505 19.6211 117.95 21.521C118.357 23.2584 115.566 23.1215 115.083 24.8021C109.927 22.0726 104.184 21.2374 98.4206 21.0516C92.2946 20.8538 86.0804 20.6954 80.0066 21.6617C81.4165 19.2054 82.161 16.5119 83.3876 13.9884C83.7407 13.2619 83.8928 13.324 84.672 13.5435C86.1689 13.9651 87.6545 14.4368 89.1483 14.8711C94.6054 16.4574 99.9552 18.3687 105.232 20.462C105.745 20.6655 106.89 21.2305 107.339 20.6161C107.858 19.9076 106.658 19.0341 106.172 18.6777C104.048 17.119 101.415 16.173 99.0351 15.0794C93.8328 12.6893 88.072 11.5547 82.6439 9.77953C70.9255 5.94656 58.8022 3.03552 46.6242 1.11283C43.6524 0.643627 40.6488 0.574932 37.664 0.226642C35.0201 -0.081851 32.3714 -0.0747533 29.7278 0.243879C24.8452 0.832728 19.1846 2.1032 16.4269 6.57267C13.9374 10.6082 12.2756 15.1453 12.9108 19.9322C13.1017 21.3699 13.7105 23.0726 15.4847 22.702C16.7154 22.445 17.3689 21.3993 17.9402 20.3788C18.8036 18.8371 19.6563 17.2954 20.5919 15.795C20.939 18.0447 19.6779 20.2569 19.8761 22.5487C20.0109 24.1038 20.8703 26.5608 22.8893 26.1205C25.6566 25.5172 26.7955 21.194 28.1261 19.12C28.1935 20.7175 27.6335 22.2919 27.8049 23.8929C27.974 25.4744 29.2097 26.9674 30.9453 26.7507C32.5823 26.5464 33.6462 24.7925 34.3415 23.4721C35.3091 21.6346 36.0042 19.6645 36.9492 17.8148C37.8348 16.0809 38.884 14.0168 40.9986 13.6911C42.8858 13.4001 45.0485 14.0736 46.9127 14.3514C52.0836 15.122 57.1502 16.4341 62.2646 17.4941C67.7483 18.6305 73.3615 19.3208 78.6761 21.1545C76.8074 23.698 71.9171 23.1484 69.1333 23.4214C64.9264 23.8341 60.6656 24.1446 56.4826 24.7535C52.3512 25.3547 48.3064 26.4222 44.2072 27.1971C40.1297 27.9679 36.0592 28.7401 32.1137 30.0546C24.7881 32.4955 17.3405 35.5844 10.8862 39.8433C7.88314 41.825 5.21545 44.0899 3.36044 47.2179C1.49351 50.3655 0.596423 53.9247 0.254217 57.5452C0.0412881 59.7997 0.403013 61.7508 0.83977 63.945C1.15612 65.5336 1.25853 68.1934 2.5323 69.3567C4.96349 71.577 6.982 62.5711 7.43092 61.4834C7.75412 63.2659 7.2256 73.308 11.1265 72.4913C12.8674 72.127 13.2624 69.7374 13.5511 68.2981C14.0778 65.6743 14.5496 62.9977 15.4505 60.4707C16.0287 63.8756 16.2697 67.4228 17.5154 70.6748C18.3428 72.8345 20.7035 76.6667 22.3494 72.9694C23.5838 70.1965 23.1603 67.014 23.3083 64.07C23.4723 60.8076 24.4089 57.6608 24.7405 54.4304C24.869 53.1789 24.7527 51.7685 26.0102 51.0856C27.0898 50.4996 28.6685 50.3087 29.8472 49.9815C33.3385 49.0121 36.8526 48.1211 40.3274 47.0927C43.8037 46.0636 47.2318 44.8613 50.6618 43.6879C53.9421 42.5657 57.2914 41.9277 60.6116 40.9667C62.4993 40.4202 64.3642 39.8486 66.2783 39.3923C67.169 39.1801 68.0707 39.0149 68.9594 38.7951C69.6182 38.6324 70.4862 38.0182 71.1635 38.0291C71.8606 38.0405 72.1227 38.6306 72.9219 38.677C73.7825 38.7267 74.6575 38.5368 75.5133 38.4711C77.5982 38.3112 79.8145 38.0526 81.8946 38.3416C80.6444 39.8245 78.9559 40.8496 77.4761 42.078C75.7693 43.4947 74.1176 45.0245 72.6598 46.6975C69.7265 50.0638 66.9541 53.622 64.3784 57.2689C61.8377 60.8667 59.7921 64.8036 58.0136 68.8259C57.1274 70.8302 56.2671 72.8784 55.6549 74.9851C55.4035 75.8505 55.1981 76.7192 54.7442 77.5063C54.3277 78.2282 53.7409 78.8505 54.2331 79.7223C54.572 79.5101 54.8765 79.2465 55.1829 78.9917C54.8288 81.4863 54.0646 83.8995 53.6716 86.3864C53.2843 88.8366 53.3 91.3565 53.3251 93.8311C53.3779 99.0133 53.7632 104.078 54.8144 109.161C55.8775 114.301 57.2433 119.402 58.9655 124.361C60.6233 129.135 62.2869 134.141 64.601 138.641C67.0725 143.447 70.0126 148.5 73.5901 152.568C71.2532 153.526 68.2793 153.347 65.8048 153.732C63.2182 154.135 60.9807 154.896 58.7764 156.327C56.5462 157.776 55.3355 159.64 55.0273 162.281C54.8083 164.161 54.1576 166.763 56.6235 167.257C58.3971 167.612 60.3799 167.029 62.1571 166.884C65.2659 166.632 68.3792 166.475 71.4948 166.339C74.6023 166.203 77.7105 166.084 80.819 165.988C82.2811 165.942 83.744 165.92 85.2056 165.867C85.8606 165.844 86.2578 165.834 86.8452 166.023C87.3096 166.173 87.2756 166.484 87.7927 166.099C88.6267 165.479 88.4551 163.523 88.4317 162.664C88.3962 161.337 88.2705 159.994 88.0117 158.692C87.8581 157.919 85.9934 152.932 87.4434 152.722C85.759 150.871 85.0862 148.228 84.3296 145.908C83.3815 143.002 82.5493 140.103 81.8961 137.114C80.5006 130.728 79.8839 124.273 79.8839 117.739C86.3524 121.726 93.1963 123.886 100.815 124.127C108.39 124.367 116.711 123.744 123.904 121.225C127.235 120.058 130.218 118.525 133.074 116.46C134.098 115.72 135.194 114.044 136.538 114.073C138.141 114.107 139.937 114.714 141.529 114.974C144.574 115.47 148.548 115.75 151.126 117.634C152.526 118.657 153.53 120.089 154.779 121.267C155.73 122.164 156.987 122.651 157.93 123.548C158.948 124.516 158.544 125.78 160.232 125.858C161.675 125.925 163.257 125.344 164.501 124.663C166.984 123.303 169.628 120.402 167.333 117.648Z" fill="black"/>
<path fill-rule="evenodd" clip-rule="evenodd" d="M143.471 52.9864C147.104 55.5671 151.271 57.3301 155.068 59.6543C156.018 60.2361 158.979 61.4439 158.95 62.523C158.934 63.154 158.044 63.9451 157.654 64.3823C156.987 65.1314 156.359 65.8883 155.743 66.6807C152.924 70.3094 150.269 73.9722 147.213 77.4186C146.753 77.937 145.367 80.4123 144.92 79.1829C144.717 78.6255 144.884 77.9991 144.356 77.4795C144.084 77.2118 143.033 77.0643 143.339 76.4901C143.543 76.5819 143.747 76.6739 143.951 76.7654C143.793 76.3066 143.804 75.8039 143.567 75.3702C143.419 75.1008 143.13 74.9733 143.03 74.6698C142.892 74.2506 143.126 73.7634 143.087 73.3312C143.048 72.9003 142.825 72.4929 142.692 72.0863C141.901 69.6762 141.617 67.2465 141.212 64.7598C140.812 62.2992 140.188 59.9157 139.943 57.4277C139.684 54.7998 139.367 52.1772 138.944 49.5704C139.699 49.6763 140.28 50.4969 140.814 50.9607C141.654 51.6898 142.565 52.343 143.471 52.9864ZM140.623 78.428C140.449 78.2919 140.314 78.1246 140.216 77.9264C141.997 77.0442 140.922 78.5492 140.623 78.428ZM139.54 76.5467C138.764 76.7606 138.206 76.8039 137.607 76.4846C137.551 76.4544 137.616 76.2209 137.514 76.173C137.424 76.1314 137.288 76.1829 137.211 76.1439C136.95 76.0113 136.494 76.3018 136.45 75.7943C137.44 75.4911 138.415 74.9317 139.46 74.8374C140.914 74.7066 140.847 76.1862 139.54 76.5467ZM136.139 73.6214C135.08 73.8691 134.207 74.4475 133.082 74.2965C132.026 74.155 131.108 73.6072 130.275 72.976C132.359 72.3859 134.545 72.2795 136.628 71.7086C137.306 71.5228 138.197 71.0328 138.928 71.2303C139.739 71.4498 139.791 72.2103 140.034 72.9023C138.735 73.136 137.425 73.3208 136.139 73.6214ZM129.515 70.685C128.498 70.9281 127.458 71.4597 126.607 70.5423C126.469 70.3943 126.349 70.5421 126.366 70.086C126.383 69.6052 126.819 69.2954 127.194 69.1261C128.077 68.7281 129.314 68.9854 130.252 68.9269C131.747 68.8338 133.269 68.523 134.748 68.2838C135.772 68.1182 136.83 67.7507 137.877 67.8232C138.685 67.8792 139.66 68.5679 138.482 69.0703C137.409 69.5281 135.801 69.4579 134.639 69.6561C132.922 69.9492 131.21 70.28 129.515 70.685ZM128.521 65.8982C128.587 65.9654 128.653 66.0325 128.719 66.0997C128.708 66.0972 129.109 65.7725 129.215 65.7631C129.731 65.7182 130.25 65.7537 130.767 65.7246C131.957 65.6574 133.157 65.45 134.326 65.2216C135.278 65.0356 136.248 64.7149 137.228 64.7953C138.077 64.8647 138.166 65.0386 138.222 65.8576C136.056 65.8576 133.824 65.812 131.695 66.2706C130.309 66.5689 128.782 67.4576 128.087 65.8556C128.232 65.8698 128.376 65.884 128.521 65.8982ZM129.876 62.4308C130.413 62.8399 131.877 62.1595 132.521 62.0916C133.22 62.0176 133.878 61.9408 134.555 61.7666C135.156 61.612 137.144 60.8399 137.605 61.5783C138.311 62.7096 135.451 62.9172 134.997 62.9732C133.095 63.2082 131.122 63.4166 129.271 63.9154C129.473 63.4206 129.674 62.9258 129.876 62.4308ZM132.484 58.5882C132.623 59.1111 136.925 57.1841 137.003 58.5846C137.063 59.6591 132.747 60.1945 131.971 60.1002C132.153 59.6054 132.637 59.1623 132.484 58.5882ZM133.929 55.3012C134.02 54.2464 134.162 54.2525 135.007 54.1532C135.653 54.0774 136.539 53.6992 136.371 54.849C136.228 55.8335 133.837 56.3656 133.929 55.3012ZM135.466 51.672C135.67 51.1057 136.128 51.868 136.137 52.1559C136.163 52.9222 135.582 52.7564 135.023 52.7564C135.178 52.3985 135.326 52.0365 135.466 51.672ZM142.545 47.4213C142.431 47.2839 141.791 47.2315 141.608 47.1648C141.16 47.0005 141.224 46.6505 140.651 46.9957C140.622 46.9668 140.676 46.7072 140.645 46.6953C140.629 46.6892 140.228 46.5377 140.097 46.454C139.782 46.2522 139.498 46.0548 139.209 45.8015C138.901 45.5326 138.593 45.1422 138.241 44.928C138.093 44.8378 137.972 44.7098 137.793 44.6821C137.329 44.6107 137.462 44.9336 137.057 44.9977C136.807 45.0373 136.625 44.7458 136.299 44.8715C136.017 44.98 135.853 45.3757 135.727 45.6112C135.27 46.4682 134.918 47.3906 134.47 48.2568C132.182 52.686 129.582 56.9471 127.366 61.4176C126.298 63.5712 125.184 65.7398 124.433 68.0285C123.891 69.6792 122.668 72.0906 123.72 73.7401C124.486 74.9393 126.018 75.4572 127.241 76.0366C129.08 76.9086 130.776 78.0483 132.636 78.8937C134.854 79.9018 137.007 80.9563 139.169 82.082C140.091 82.5621 140.923 83.2537 141.842 83.7084C142.404 83.9865 143.272 83.512 143.455 84.1495C144.159 83.2962 145.299 83.8651 146.114 83.2643C146.594 82.9109 146.944 82.2149 147.344 81.7796C147.943 81.1272 148.594 80.5218 149.206 79.8808C151.635 77.3345 153.877 74.6825 156.087 71.9477C158.198 69.336 160.663 66.8685 162.446 64.0097C163.154 62.8749 163.282 61.6847 162.815 60.431C162.474 59.5164 161.652 58.1354 160.478 58.741C160.923 58.0018 159.206 57.2125 158.685 57.068C158.677 57.066 158.575 57.6338 158.43 57.6196C158.481 57.6247 157.993 56.3615 157.779 56.1996C157.142 55.7177 156.367 55.1554 155.672 54.7587C155.035 54.395 154.363 54.2148 153.745 53.8077C152.997 53.3144 152.31 52.7293 151.559 52.2393C150.834 51.7663 150.025 51.2071 149.224 50.8819C148.529 50.5998 147.905 50.5445 147.279 50.0822C146.506 49.51 145.831 49.122 144.939 48.7278C144.167 48.3868 143.097 48.089 142.545 47.4213Z" fill="black"/>
<path fill-rule="evenodd" clip-rule="evenodd" d="M41.0489 142.732C41.273 142.5 41.4967 142.268 41.7207 142.037C41.6812 142.575 41.6299 142.831 41.0489 142.732ZM40.7149 144.07C40.4421 144.018 40.8501 143.256 40.9037 143.116C41.2488 143.535 40.7688 143.694 40.7149 144.07ZM41.2039 141.607C41.4709 141.562 41.7378 141.517 42.0048 141.472C41.4861 141.917 41.7397 141.612 41.7208 142.035C41.467 142.013 41.2741 141.851 41.2039 141.607ZM38.2292 145.501C36.2772 148.147 32.7899 149.487 29.5889 149.646C27.7496 149.736 26.1368 149.317 24.4682 148.587C23.8247 148.306 23.1356 147.797 22.49 147.595C21.993 147.439 22.0068 147.468 21.4471 147.725C21.3949 147.329 21.612 147.149 21.3284 146.821C20.9746 146.412 20.6835 146.618 20.3362 146.863C20.1622 146.453 20.104 146.251 19.7978 145.929C19.8074 145.939 19.4426 145.783 19.456 145.794C19.397 145.747 19.0937 145.334 18.9858 145.238C18.5429 144.846 17.9754 144.536 17.6049 144.075C17.2807 143.671 17.1988 142.857 16.5197 143.198C16.8557 142.321 15.8147 141.504 15.4376 140.833C14.8483 139.784 14.5686 138.458 14.532 137.265C14.4929 135.993 14.7426 134.884 14.9609 133.672C15.1135 132.826 14.5671 131.308 15.4637 130.739C15.4763 131.126 15.279 131.443 15.3967 131.835C15.7628 131.51 16.0528 131.101 16.3183 130.694C16.4485 130.494 16.9642 129.96 17.0062 129.759C17.0925 129.347 16.6207 129.142 17.0692 128.769C17.3905 129.581 18.2407 128.698 17.9851 128.117C17.6901 128.27 17.5133 128.505 17.308 128.756C17.1859 127.453 18.5522 128.382 18.6033 127.267C19.1918 127.372 19.5599 127.355 19.9762 126.893C20.4392 126.38 20.3192 126.183 20.9982 125.987C21.2318 125.919 21.8192 125.919 21.9993 125.73C22.3475 125.364 21.9359 125.058 22.4963 124.805C22.5408 125.097 22.8906 125.775 23.3548 125.436C23.4476 125.368 23.2273 125.211 23.4848 125.072C23.8662 124.867 24.2767 124.679 24.6979 124.915C24.6837 123.897 26.9672 124.693 27.6252 124.707C28.2845 124.72 28.8285 124.772 29.4613 124.959C30.0934 125.146 30.1929 124.978 30.8541 124.808C30.6952 125.354 30.867 125.286 31.2069 125.524C31.3566 125.404 31.4559 125.422 31.5045 125.578C31.5644 125.704 31.6636 125.791 31.8015 125.838C32.0036 125.928 32.248 125.991 32.4625 126.078C32.9661 126.283 33.5058 126.441 33.9995 126.643C34.1361 126.671 34.2732 126.672 34.4117 126.648C34.4247 126.754 34.4378 126.861 34.4505 126.967C34.7015 127.101 34.5951 127.44 35.0582 127.203C34.9778 127.699 35.3453 127.566 35.5887 127.802C35.8106 128.018 35.7831 128.216 35.9796 128.437C36.0907 128.63 36.2568 128.714 36.4784 128.689C36.6041 128.886 36.734 129.081 36.8679 129.274C37.1292 129.59 37.4781 129.856 37.7725 130.14C37.9693 130.326 38.1631 130.516 38.3537 130.708C38.2538 130.989 38.3409 131.135 38.6148 131.147C38.7635 131.414 38.8279 131.431 38.9207 131.824C39.1307 132.717 39.347 133.43 39.7125 134.296C41.301 138.06 40.6213 142.258 38.2292 145.501ZM43.5277 134.124C42.9478 132.067 41.9609 129.588 40.8303 127.996C40.2573 127.189 39.5299 125.856 38.6927 125.224C38.4943 125.074 38.265 124.981 38.0716 124.829C37.9221 124.712 37.8966 124.503 37.7155 124.398C37.5887 124.324 37.4577 124.62 37.3248 124.538C37.0471 124.364 36.9712 123.993 36.8308 123.725C36.0744 124.335 36.3337 122.921 35.3248 123.551C35.0081 121.998 33.0344 121.554 31.7398 121.129C31.3559 121.003 31.1275 121.069 30.7553 121.04C30.409 121.013 30.3874 120.977 30.0488 120.845C29.2059 120.514 28.4145 120.332 27.4905 120.403C25.9382 120.523 24.36 121.032 22.8244 121.304C21.1082 121.609 19.4414 122.196 17.9035 123.016C12.3435 125.978 8.82366 132.066 9.92019 138.396C11.6622 148.449 23.9194 154.158 33.1856 151.347C40.3446 149.176 45.6468 141.635 43.5277 134.124Z" fill="black"/>
<path fill-rule="evenodd" clip-rule="evenodd" d="M109.088 78.1693C108.923 78.563 107.382 78.4304 107.348 77.9663C107.298 77.2727 109.374 77.4851 109.088 78.1693ZM110.724 77.9118C111.598 77.9827 113.032 78.5759 113.874 78.2175C115.158 77.6704 113.81 76.8309 113.121 76.5799C112.419 76.3247 111.375 76.4603 111.015 75.7272C110.743 75.1759 111.414 73.6367 110.582 73.8841C109.71 74.1437 109.963 76.3485 108.594 75.6053C107.941 75.2507 108.208 73.0905 107.114 74.1941C106.815 74.496 106.788 75.0504 106.392 75.2755C105.987 75.5054 105.48 75.2659 105.053 75.2859C103.922 75.3389 103.562 76.3967 104.708 76.8162C105.132 76.9716 106.73 77.1612 105.762 77.8542C105.152 78.2907 103.796 77.3746 103.272 78.1346C102.552 79.1784 104.481 79.202 104.999 79.5143C105.877 80.0431 105.152 81.2783 105.222 82.1579C105.329 83.5019 106.11 83.221 106.394 82.0836C106.634 81.1186 106.336 79.7295 107.791 80.113C110.16 80.7376 106.474 83.7452 108.209 84.5148C109.315 85.0056 109.472 82.3528 109.558 81.8961C109.876 80.2101 110.823 80.6035 112.258 80.6552C113.934 80.7156 114.339 79.4758 112.564 79.1206C111.997 79.0073 111.218 79.1505 110.727 78.7898C110.436 78.5767 110.036 77.856 110.724 77.9118Z" fill="black"/>
<path fill-rule="evenodd" clip-rule="evenodd" d="M40.5137 165.345C39.4215 164.406 37.2654 163.69 36.3242 165.205C35.9303 165.84 35.9076 166.662 36.1895 167.341C36.5164 168.128 37.3691 168.517 37.708 167.495C37.9424 166.787 37.5128 165.929 38.7294 166.236C39.4865 166.427 40.3491 167.379 40.0782 168.192C39.4679 170.025 36.2946 168.969 35.2649 168.216C33.2209 166.722 34.758 164.571 36.7432 164.081C37.2561 163.955 38.5839 163.967 38.8616 163.402C39.2301 162.653 38.2094 162.443 37.6997 162.364C33.9526 161.79 30.9749 167.293 34.169 169.773C35.6196 170.898 38.127 171.274 39.6864 170.167C41.1485 169.13 42.094 166.704 40.5137 165.345Z" fill="black"/>
<path fill-rule="evenodd" clip-rule="evenodd" d="M10.4058 106.732C9.12506 106.838 7.84428 106.943 6.56374 107.048C6.49993 106.147 6.69815 103.826 5.89418 103.211C4.59276 102.216 4.65291 104.852 4.70626 105.47C4.75011 105.977 4.97826 106.825 4.66543 107.29C4.24466 107.916 3.18243 107.788 2.5393 107.947C0.947672 108.342 0.250541 110.188 2.36761 110.105C3.56569 110.058 5.30941 109.322 5.56368 111.016C5.68126 111.797 5.16708 115.714 6.96797 113.715C8.08263 112.477 5.97929 109.939 7.77318 109.218C8.35062 108.986 8.86181 109.144 9.37428 109.081C10.612 108.926 10.4222 107.69 10.4058 106.732Z" fill="black"/>
<path fill-rule="evenodd" clip-rule="evenodd" d="M169.486 33.4154C168.796 33.1629 167.942 32.6699 167.175 32.8379C166.359 33.0164 166.031 33.8331 165.438 34.3241C163.826 35.6592 162.887 33.6694 162.002 32.5789C161.165 31.5492 160.145 31.2993 158.964 31.932C158.494 32.1842 156.513 33.3398 156.859 34.0803C157.107 34.6131 158.086 34.1348 158.42 34.0184C159.144 33.7662 159.817 33.5454 160.558 33.9132C161.949 34.6027 162.31 36.4935 163.992 36.7883C165.731 37.0932 165.788 35.4379 167.029 34.8149C167.862 34.3974 168.441 35.1365 169.244 34.9893C170.009 34.8491 170.363 33.7358 169.486 33.4154Z" fill="black"/>
<path fill-rule="evenodd" clip-rule="evenodd" d="M155.446 40.0855C156.061 40.2191 156.462 39.026 156.847 38.7233C157.486 38.2216 158.594 38.1205 159.244 38.6255C160.514 39.611 160.077 41.7388 161.885 42.2934C163.502 42.7892 164.263 40.6602 165.624 40.1301C166.415 39.8219 167.283 39.6201 166.975 38.5142C166.762 37.7494 166.133 37.553 165.451 37.8467C164.277 38.3512 163.878 40.4062 162.487 40.443C161.047 40.481 160.891 38.4057 160.273 37.5017C159.331 36.124 157.394 35.7912 156.294 37.1086C155.961 37.5061 154.274 39.8318 155.446 40.0855Z" fill="black"/>
<path fill-rule="evenodd" clip-rule="evenodd" d="M126.988 16.5596C127.844 17.1452 129.549 17.1249 130.338 16.3986C131.14 15.6597 130.069 15.5462 129.415 15.5687C128.913 15.5862 127.972 15.8354 128.258 14.9672C128.512 14.1969 129.91 14.589 130.027 13.7434C128.975 13.5548 127.816 13.6227 127.038 14.4493C126.476 15.0468 126.187 16.0113 126.988 16.5596Z" fill="black"/>
</svg>
