<?xml version="1.0" standalone="no"?>
<!DOCTYPE svg PUBLIC "-//W3C//DTD SVG 20010904//EN"
 "http://www.w3.org/TR/2001/REC-SVG-20010904/DTD/svg10.dtd">
<svg version="1.0" xmlns="http://www.w3.org/2000/svg"
 width="512.000000pt" height="512.000000pt" viewBox="0 0 512.000000 512.000000"
 preserveAspectRatio="xMidYMid meet">
<metadata>
Created by potrace 1.11, written by Peter Selinger 2001-2013
</metadata>
<g transform="translate(0.000000,512.000000) scale(0.100000,-0.100000)"
fill="#000000" stroke="none">
<path d="M430 3750 l0 -300 -215 0 -215 0 0 -220 c0 -202 1 -220 18 -221 9 -1
106 -1 215 0 l197 0 0 -547 c1 -674 5 -722 75 -871 59 -124 169 -203 340 -246
146 -36 479 -23 618 24 l52 18 2 217 c2 202 1 217 -15 210 -82 -35 -135 -47
-232 -49 -168 -4 -241 29 -284 125 -13 30 -27 71 -30 91 -5 29 -10 669 -7 960
l1 67 268 0 c147 0 275 1 284 1 15 1 17 21 16 221 l0 220 -284 0 c-264 0 -284
1 -285 18 0 9 0 144 0 300 l0 282 -260 0 -259 0 0 -300z"/>
<path d="M2910 3493 c-106 -14 -222 -60 -295 -116 -62 -48 -147 -140 -180
-196 -16 -28 -32 -51 -35 -51 -3 0 -5 66 -5 148 1 81 -1 153 -3 160 -3 9 -62
12 -248 12 l-244 0 0 -1039 0 -1039 260 0 260 -1 0 42 c1 590 8 1220 14 1247
22 101 61 174 126 240 96 98 183 132 335 131 188 0 290 -79 335 -257 19 -73
20 -114 20 -739 l0 -662 260 -1 260 -1 0 592 c1 326 3 610 6 632 31 246 166
406 364 432 227 30 378 -59 434 -257 25 -86 26 -127 26 -781 l1 -617 260 0
259 -1 -1 687 c-1 526 -5 708 -15 777 -47 305 -179 505 -403 607 -138 63 -414
74 -581 25 -161 -48 -293 -144 -390 -284 l-43 -63 -21 43 c-109 221 -322 336
-621 334 -60 0 -121 -2 -135 -4z"/>
</g>
</svg>
